<?xml version="1.0" encoding="UTF-8"?>
<svg width="256px" height="144px" viewBox="0 0 256 144" version="1.1" xmlns="http://www.w3.org/2000/svg" xmlns:xlink="http://www.w3.org/1999/xlink">
    <!-- Generator: Sketch 60 (88103) - https://sketch.com -->
    <title>256x144</title>
    <desc>Created with Sketch.</desc>
    <g id="资源画像" stroke="none" stroke-width="1" fill="none" fill-rule="evenodd">
        <g id="1.0icon" transform="translate(-214.000000, -620.000000)">
            <g id="256x144" transform="translate(214.000000, 620.000000)">
                <rect id="矩形备份-2" fill="#F5F8FF" x="0" y="0" width="256" height="144"></rect>
                <g id="编组-3" transform="translate(67.000000, 55.000000)" fill-rule="nonzero">
                    <polygon id="Fill-1" fill="#9F9FA0" points="54 26 54 34 59 34 59 32.5617471 55.3476601 32.5617471 55.3476601 30.5046848 58.5526695 30.5046848 58.5526695 29.1154632 55.3476601 29.1154632 55.3476601 27.4168369 58.838693 27.4168369 58.838693 26"></polygon>
                    <polygon id="Fill-2" fill="#9F9FA0" points="61 26 61 34 66 34 66 32.5617471 62.4751299 32.5617471 62.4751299 26"></polygon>
                    <polygon id="Fill-3" fill="#9F9FA0" points="67 34 69 34 69 26 67 26"></polygon>
                    <polygon id="Fill-4" fill="#9F9FA0" points="70 26 70 27.4168369 72.2262078 27.4168369 72.2262078 34 73.7836272 34 73.7836272 27.4168369 76 27.4168369 76 26"></polygon>
                    <polygon id="Fill-5" fill="#9F9FA0" points="78 26 78 34 83 34 83 32.5617471 79.3471448 32.5617471 79.3471448 30.5046848 82.5521542 30.5046848 82.5521542 29.1154632 79.3471448 29.1154632 79.3471448 27.4168369 82.8392083 27.4168369 82.8392083 26"></polygon>
                    <path d="M86.4436175,31.4636752 C86.4899669,31.809829 86.5821006,32.0689102 86.7188883,32.2403846 C86.9698538,32.5523504 87.3988695,32.7083333 88.0076305,32.7083333 C88.371644,32.7083333 88.6678286,32.667735 88.895054,32.5854701 C89.3263304,32.4273504 89.5411211,32.1340812 89.5411211,31.7051282 C89.5411211,31.4551282 89.4359866,31.2612179 89.2245877,31.1239316 C89.0131889,30.9903846 88.6785679,30.872329 88.2201601,30.7692308 L87.4367403,30.5892094 C86.6668864,30.4107906 86.1372588,30.2168803 85.8495523,30.0074786 C85.361752,29.6581196 85.1175692,29.1111111 85.1175692,28.366453 C85.1175692,27.6880342 85.3561,27.1233974 85.8337258,26.6741453 C86.3107864,26.2248931 87.0116815,26 87.9358455,26 C88.7079604,26 89.3664622,26.2120726 89.9113517,26.6356837 C90.4568064,27.0592949 90.7422513,27.6736111 90.7688176,28.4797008 L89.3155911,28.4797008 C89.2884596,28.0240384 89.0940177,27.6997863 88.7317005,27.5074786 C88.4897784,27.3803419 88.1896372,27.3173077 87.830711,27.3173077 C87.4310878,27.3173077 87.112859,27.3995726 86.8743287,27.5641026 C86.6363635,27.7286325 86.5170984,27.9583333 86.5170984,28.2532051 C86.5170984,28.5245726 86.6346676,28.7270299 86.8692414,28.8605769 C87.0207253,28.9497863 87.34065,29.0544871 87.830711,29.1746795 L89.1008004,29.4882478 C89.65756,29.6255342 90.0747057,29.8087607 90.352237,30.0384615 C90.784079,30.3952992 91,30.9118589 91,31.5870726 C91,32.2799145 90.7439472,32.855235 90.2329719,33.3130342 C89.7219971,33.7708333 88.9996229,34 88.0664156,34 C87.1139898,34 86.3644842,33.7745726 85.8190295,33.3231838 C85.2730097,32.8728633 85,32.252671 85,31.4636752 L86.4436175,31.4636752 Z" id="Fill-6" fill="#9F9FA0"></path>
                    <polygon id="Fill-8" fill="#9F9FA0" points="92 26 93.4755184 26 93.4755184 32.5623107 97 32.5623107 97 34 92 34"></polygon>
                    <path d="M100.536533,30.9769637 L102.42883,30.9769637 L101.495382,27.828813 L100.536533,30.9769637 Z M100.638133,26 L102.385535,26 L105,34 L103.325911,34 L102.837539,32.3554773 L100.116279,32.3554773 L99.615207,34 L98,34 L100.638133,26 Z" id="Fill-10" fill="#9F9FA0"></path>
                    <polygon id="Fill-12" fill="#9F9FA0" points="107 26 108.621543 26 111.559399 31.5783022 111.559399 26 113 26 113 34 111.454186 34 108.441179 28.3236351 108.441179 34 107 34"></polygon>
                    <path d="M116.438007,27.3897851 L116.438007,32.6107784 L117.80572,32.6107784 C118.504797,32.6107784 118.992989,32.2219091 119.269188,31.4436069 C119.420295,31.0175414 119.495018,30.5086298 119.495018,29.9185629 C119.495018,29.1047552 119.382103,28.4797464 119.15572,28.0435365 C118.929889,27.6078901 118.479336,27.3897851 117.80572,27.3897851 L116.438007,27.3897851 Z M119.152398,26.1741458 C119.65,26.3584361 120.052399,26.6971469 120.360148,27.1891511 C120.607011,27.5870377 120.77583,28.0170483 120.865498,28.4808736 C120.955166,28.9435717 121,29.3848538 121,29.80472 C121,30.8687566 120.810701,31.7693554 120.432657,32.5076435 C119.919004,33.5029236 119.126937,34 118.055904,34 L115,34 L115,26 L118.055904,26 C118.495388,26.0073265 118.860701,26.0648116 119.152398,26.1741458 Z" id="Fill-14" fill="#9F9FA0"></path>
                    <path d="M60.0426666,6.59867562 L60.0426666,4.93855655 C61.5713031,3.67384037 62.7256969,2.31800961 63.4356063,1 L66.3840607,1 C65.1277577,2.73805354 63.8639696,4.09674955 62.6635151,4.93855655 L68.5091822,4.91563465 C68.290394,4.33628347 67.8493636,3.49046512 67.4135152,2.80452708 L69.5426666,2.80452708 C70.361394,4.0698163 71.0430913,5.57120119 71.5900605,7.3092547 L69.2973941,7.3092547 L69.080909,6.57632677 L62.2535761,6.59867562 L60.0426666,6.59867562 Z M59.3056969,11.7354748 L59.3056969,10.3922511 C60.3967576,9.60201842 61.0525455,8.52182357 61.2707575,7.15109356 L63.5645758,7.15109356 C63.4920305,7.43074083 63.1552125,8.33672919 63.1552125,8.33672919 L71.0171819,8.33672919 L71.0171819,9.99627521 L66.8406366,9.99627521 L66.8406366,11.893636 L66.8406366,12.2099583 L71.8359095,12.2099583 L71.8359095,13.8695043 L67.0035758,13.8695043 C67.9322729,15.6075579 69.5967879,16.37888 72,17.1163923 L72,19 C68.9962728,18.2613416 66.8665455,17.26825 65.61197,15.8447996 C64.3015455,17.26825 61.9265454,18.2613416 58.4869698,19 L58.4863941,17.1163923 C61.5436667,16.37888 63.3452124,15.5554105 63.8921822,13.8695043 L59.3056969,13.8695043 L59.3056969,12.2099583 L64.2192124,12.2099583 L64.2192124,11.9721435 L64.2192124,9.99627521 L62.2535761,9.99627521 C61.5436667,10.7865079 60.5608486,11.3670052 59.3056969,11.7354748 Z M53.164091,6.20327273 L53.164091,4.54372672 L54.8838788,4.54372672 L54.8959698,1 L57.3515759,1 L57.3400607,4.54372672 L58.814,4.54372672 L58.814,6.20327273 L57.3400607,6.20327273 L57.3400607,14.0144854 L58.978091,13.6316895 L58.978091,15.4579924 L53,17.0304352 L53,14.8969788 L54.8838788,14.527363 L54.8838788,6.20327273 L53.164091,6.20327273 Z" id="Fill-16" fill="#070201"></path>
                    <path d="M86.9404067,5.09729075 L86.9404067,3.43659864 L90.6329195,3.43659864 L90.6329195,1 L93.2094005,1 L93.2094005,3.43659864 L97.3314231,3.43659864 L97.3314231,5.09729075 L93.8970795,5.09729075 C94.5836011,8.57454395 95.9392778,10.5332208 98,13.1675209 L98,16.1576836 C95.5960171,13.8929993 94.0105349,11.893636 93.2094005,9.52236478 L93.2094005,19 L90.6329195,19 L90.6329195,9.44271113 C89.8300483,11.8678488 88.2190961,13.8929993 85.8151137,16.1576836 L85.8151137,13.5520359 C87.8758358,10.8644424 89.2592976,8.52182354 89.9458192,5.09729075 L86.9404067,5.09729075 Z M78.3525225,5.09729075 L78.3525225,3.43659864 L81.186594,3.43659864 L81.186594,1 L83.7624962,1 L83.7624962,3.43659864 L86.1670574,3.43659864 L86.1670574,5.09729075 L83.7624962,5.09729075 C84.255101,6.84222089 84.8970509,8.06968894 86.1653206,9.88567699 L86.1653206,12.5469103 C85.0770743,11.3882079 84.2770974,10.4707587 83.7624962,9.52236478 L83.7619174,19 L81.1860147,19 L81.186594,10.4707587 C80.4994936,12.2621056 79.4390324,13.5577663 78.0075254,15.0849384 L78,12.1027984 C79.5328069,9.70287477 80.4138229,7.94132625 80.9284247,5.09729075 L78.3525225,5.09729075 Z" id="Fill-18" fill="#070201"></path>
                    <path d="M110.616426,11.5769769 L110.616426,9.66706992 C111.397803,9.03444541 111.70465,8.10384566 111.70465,6.04495096 L111.70465,1.93461098 L116.47504,1.93461098 C118.260229,1.93461098 119.93477,1.77244365 121.497524,1.40398574 L121.497524,3.06175984 C120.269565,3.37749904 118.762705,3.51559913 116.978087,3.51559913 L114.299163,3.51559913 L114.299163,5.41289954 L122,5.41289954 L122,6.99274161 L119.657011,6.99274161 L119.657011,11.3391698 L117.145769,11.3391698 L117.145769,6.99274161 L114.215892,6.99274161 C114.04821,9.15420856 112.847627,10.681905 110.616426,11.5769769 Z M107.517156,17.2809117 L116.054123,17.2809117 C116.891964,17.2809117 117.282082,16.9388132 117.226759,16.252897 L117.22961,13.7888705 L107.990545,13.7888705 C107.730466,13.7888705 107.519437,14.0152171 107.519437,14.2948554 L107.517156,17.2809117 Z M104.841083,18.9988539 L104.841653,12.1293773 L119.907394,12.1293773 L119.907394,16.5485802 C119.962147,18.2338597 119.299973,19 117.231892,19 L104.841083,18.9988539 Z M103,4.14765058 L103,2.48815739 L105.83634,2.48815739 L105.83634,1 L108.356708,1 L108.356708,2.48815739 L110.867379,2.48815739 L110.867379,4.14765058 L108.356708,4.14765058 L108.356708,5.96529989 L110.867379,5.73895325 L110.867379,7.36635682 L108.356708,7.71361264 L108.356708,9.36393734 C108.356708,11.1122501 107.603848,11.7087737 105.929878,11.655482 L104.004383,11.655482 L104.004383,10.0750668 L104.924924,10.0750668 C105.6236,10.0762129 105.83634,9.87851775 105.838622,9.21380364 L105.83634,7.94053227 C104.999069,7.99439703 104.059706,8.07290207 103,8.1783395 L103,6.3606902 L105.83634,6.16987139 L105.83634,4.14765058 L103,4.14765058 Z" id="Fill-20" fill="#070201"></path>
                    <path d="M22.9184317,7.62853887 L30.6654509,7.46607109 C30.6654509,7.46607109 34.539246,-1.29628122 22.1115814,0.164206514 C9.68391676,1.62469425 3.8732241,12.4962572 3.8732241,16.2284234 C3.8732241,19.9605896 12.1050387,25.6400727 24.6937308,15.0928712 L32.1181241,15.255339 C32.1181241,15.255339 14.6654894,32.2932144 0,25.478179 C0,25.478179 12.911889,40.2443759 30.342825,28.3985804 C47.773761,16.553359 38.5740686,1.46222647 38.5740686,1.46222647 C38.5740686,1.46222647 40.0267418,5.68122187 33.5707973,13.4699157 L12.5892631,13.4699157 L20.0136564,2.43588496 L25.8237781,2.43588496 L22.9184317,7.62853887 Z" id="Fill-23" fill="#2A4791"></path>
                    <polygon id="Stroke-26" fill="#9F9FA0" points="46 1 47 1 47 34 46 34"></polygon>
                </g>
            </g>
        </g>
    </g>
</svg>
