<?xml version="1.0" standalone="no"?><!DOCTYPE svg PUBLIC "-//W3C//DTD SVG 1.1//EN" "http://www.w3.org/Graphics/SVG/1.1/DTD/svg11.dtd"><svg class="icon" width="160px" height="160.00px" viewBox="0 0 1024 1024" version="1.1" xmlns="http://www.w3.org/2000/svg"><path fill="#e8e8e8" d="M900 535.8h-851c-12.8 0-23.3-10.4-23.3-23.3 0-12.8 10.4-23.3 23.3-23.3h851c12.8 0 23.3 10.4 23.3 23.3-0.1 12.8-10.5 23.3-23.3 23.3z"  /><path fill="#e6e6e6" d="M777.6 718.7c-6 0-11.9-2.3-16.5-6.8-9.1-9.1-9.1-23.8 0-32.9l145.3-145.3c11.7-11.7 11.7-30.7 0-42.3L761.2 346.1c-9.1-9.1-9.1-23.8 0-32.9 9.1-9.1 23.8-9.1 32.9 0l145.3 145.3c29.8 29.8 29.8 78.3 0 108.1L794.1 711.8c-4.6 4.6-10.5 6.9-16.5 6.9z"  /></svg>