<?xml version="1.0" standalone="no"?><!DOCTYPE svg PUBLIC "-//W3C//DTD SVG 1.1//EN" "http://www.w3.org/Graphics/SVG/1.1/DTD/svg11.dtd"><svg t="1584941461204" class="icon" viewBox="0 0 1024 1024" version="1.1" xmlns="http://www.w3.org/2000/svg" p-id="9111" xmlns:xlink="http://www.w3.org/1999/xlink" width="64" height="64"><defs><style type="text/css"></style></defs><path d="M938.688 96H800V32a32 32 0 1 0-64 0v64h-192V32a32 32 0 1 0-64 0v64H288V32a32 32 0 1 0-64 0v64H85.344A85.312 85.312 0 0 0 0 181.312v757.344A85.344 85.344 0 0 0 85.344 1024h853.344A85.312 85.312 0 0 0 1024 938.656V181.312A85.28 85.28 0 0 0 938.688 96zM960 938.656a21.344 21.344 0 0 1-21.312 21.344H85.344A21.344 21.344 0 0 1 64 938.656V181.312C64 169.568 73.568 160 85.344 160H224v64a32 32 0 1 0 64 0V160h192v64a32 32 0 1 0 64 0V160h192v64a32 32 0 1 0 64 0V160h138.688c11.744 0 21.312 9.568 21.312 21.312v757.344z" fill="#47ABFC" p-id="9112"></path><path d="M224 384h128v96H224zM224 544h128v96H224zM224 704h128v96H224zM448 704h128v96h-128zM448 544h128v96h-128zM448 384h128v96h-128zM672 704h128v96h-128zM672 544h128v96h-128zM672 384h128v96h-128z" fill="#47ABFC" p-id="9113"></path></svg>