<?xml version="1.0" standalone="no"?><!DOCTYPE svg PUBLIC "-//W3C//DTD SVG 1.1//EN" "http://www.w3.org/Graphics/SVG/1.1/DTD/svg11.dtd"><svg t="1566296231294" class="icon" viewBox="0 0 1024 1024" version="1.1" xmlns="http://www.w3.org/2000/svg" p-id="8399" xmlns:xlink="http://www.w3.org/1999/xlink" width="200" height="200"><defs><style type="text/css"></style></defs><path d="M660.503304 63.066217c-96.886173 0-188.055994 47.362887-243.857744 126.701713l-16.138481 22.90841 45.817845 32.222695 16.110835-22.90841c45.351977-64.431056 119.398339-102.904571 198.067545-102.904571 133.430688 0 241.997344 108.553346 241.997344 241.998369S793.935015 603.096101 660.503304 603.096101h-28.010431v56.020862h28.010431c164.340762 0 298.018206-133.690755 298.018206-298.031517 0-164.327451-133.677444-298.01923-298.018206-298.019229z" fill="#2a4791" p-id="8400"></path><path d="M658.588638 201.886637c-15.48217 0-28.010431 12.541571-28.010431 28.010431v146.943926c0 15.468859 12.528261 28.010431 28.010431 28.010431 0.334811 0 0.666549-0.013311 0.998288-0.025597 0.331739 0.011263 0.663478 0.025597 0.998288 0.025597h129.026957c15.48217 0 28.010431-12.541571 28.010431-28.010431 0-15.468859-12.528261-28.010431-28.010431-28.010431h-103.013102V229.896044c0-15.467836-12.528261-28.009407-28.010431-28.009407zM708.618747 814.020574l-203.100965-101.509015 60.670325-88.283489a28.063673 28.063673 0 0 0 4.923864-15.865103V464.358616c0-95.040108-76.152495-169.497048-173.367334-169.497048-97.187195 0-173.33969 74.456941-173.33969 169.497048v144.003327a28.076983 28.076983 0 0 0 5.169597 16.234726l62.365879 87.695778-211.950406 101.522326a28.000192 28.000192 0 0 0-15.906058 25.261298v91.402243c0 15.468859 12.541571 28.010431 28.01043 28.010431h603.996097c15.48217 0 28.010431-12.541571 28.010431-28.010431v-91.402243a28.005311 28.005311 0 0 0-15.48217-25.055497z m-40.538692 88.44731H120.10482V856.71864l226.050331-108.278945a27.911114 27.911114 0 0 0 15.017326-18.244613 27.908042 27.908042 0 0 0-4.294175-23.250388l-76.453518-107.527413V464.358616c0-63.638568 51.534196-113.476187 117.319853-113.476187 65.813301 0 117.347497 49.838642 117.347497 113.476187v135.304398L441.100037 707.313293a28.000192 28.000192 0 0 0-4.048443 22.867455c2.051866 7.850129 7.35764 14.429616 14.606748 18.053146L668.080055 856.390996v46.076888z" fill="#2a4791" p-id="8401"></path></svg>