<?xml version="1.0" standalone="no"?><!DOCTYPE svg PUBLIC "-//W3C//DTD SVG 1.1//EN" "http://www.w3.org/Graphics/SVG/1.1/DTD/svg11.dtd"><svg t="1585044265275" class="icon" viewBox="0 0 1024 1024" version="1.1" xmlns="http://www.w3.org/2000/svg" p-id="6678" xmlns:xlink="http://www.w3.org/1999/xlink" width="64" height="64"><defs><style type="text/css"></style></defs><path d="M899.338239 661.348737c-96.890441 96.272701-236.471625 128.721258-365.421003 90.354702l-96.923751 96.27371c-10.924526 12.452728-26.596169 18.499927-43.860614 18.239507l-15.703943-0.26042 0.0646 15.769553c0.16251 34.723701-27.961861 62.652252-62.524061 62.100121l-15.703943-0.26042 0.09791 15.801853c0.06561 15.768543-6.145109 31.440186-18.630137 43.860614-12.518338 12.419419-29.750483 18.435327-45.454426 18.208216L73.459014 1009.374075c-32.969398-2.113643-58.232175-29.359853-59.955187-60.931258L3.327251 785.810409l-0.0323-3.185605c-0.06561-15.769553 6.145109-31.441196 18.630137-43.861624l253.183939-251.525527c-9.559843-31.700606-14.43717-66.489917-14.598671-101.182328-0.487531-99.393705 38.334256-193.455862 108.660828-263.295914C439.497758 52.88807 533.526605 14.976745 632.466089 16.538257 731.404564 18.131059 825.824042 59.097779 896.834975 131.246284c70.976614 72.115195 110.708862 165.819022 111.196392 266.806539C1008.485588 497.447538 969.664811 591.508686 899.338239 661.348737L899.338239 661.348737zM849.950256 176.24447C728.44607 52.791169 530.568111 49.635846 410.202505 169.1566c-60.930249 60.572928-90.388012 138.963443-90.029682 219.4353 0.19481 39.439527 8.257742 80.601058 24.124196 118.707193L64.550221 785.192668l10.208875 162.665717 160.228063 10.470305-0.39063-78.878045 78.520724 1.235482-0.39063-78.878045 78.520724 1.267782 123.48762-122.640749c113.277735 47.56706 246.6482 27.603531 337.295623-62.426151 60.962549-60.572928 90.421321-138.963443 90.030691-219.43429C941.670651 318.101807 911.465946 238.735222 849.950256 176.24447L849.950256 176.24447zM750.718052 486.587613c-28.254581 28.092071-69.676532 44.965886-111.197402 44.315845-41.518851-0.683351-80.926078-16.680014-111.651623-47.89309-28.547301-29.001523-46.234677-70.977623-46.429488-112.692294-0.19481-41.71568 17.102944-80.926078 45.356516-111.229702 60.897949-60.475018 161.397935-58.849916 222.848015 3.609545 28.547301 28.969223 46.234677 70.977623 46.429488 112.658985C796.269379 417.073591 781.183177 456.349599 750.718052 486.587613L750.718052 486.587613zM705.557356 307.405401c-37.944635-38.334256-98.776974-39.308308-134.249635-2.178243-16.679005 16.516494-27.051399 41.48756-26.921189 66.620127 0.09791 25.165877 8.616073 48.34832 27.57224 67.498288 16.873815 17.037335 42.073001 27.929561 67.237868 28.319181 25.198177 0.421921 48.21811-7.608711 67.010758-26.140938 16.679005-16.516494 27.051399-41.48756 26.95349-66.653437C733.030676 349.737813 724.544814 326.555369 705.557356 307.405401L705.557356 307.405401z" p-id="6679" fill="#3EB1CB"></path></svg>