<?xml version="1.0" encoding="UTF-8"?>
<svg width="290px" height="156px" viewBox="0 0 290 156" version="1.1" xmlns="http://www.w3.org/2000/svg" xmlns:xlink="http://www.w3.org/1999/xlink">
    <!-- Generator: Sketch 60 (88103) - https://sketch.com -->
    <title>编组</title>
    <desc>Created with Sketch.</desc>
    <g id="资源画像" stroke="none" stroke-width="1" fill="none" fill-rule="evenodd">
        <g id="资源画像1备份" transform="translate(-696.000000, -152.000000)">
            <g id="编组" transform="translate(696.000000, 152.000000)">
                <rect id="矩形" fill="#E5E5E5" x="0" y="0" width="290" height="156" rx="4"></rect>
                <path d="M148.099438,52.8920934 C151.729424,52.8920934 154.672074,50.0060742 154.672074,46.4461468 C154.672074,42.8860191 151.729424,40 148.099438,40 C144.469451,40 141.526801,42.8860191 141.526801,46.4461468 C141.526801,50.0060742 144.469451,52.8920934 148.099438,52.8920934 Z M164.313152,60.6610054 L160.428623,62.8668602 L160.428623,59.9583691 C160.422806,57.5734394 158.451173,55.6426033 156.019394,55.6406514 L125.402238,55.6406514 C122.973266,55.646357 121.005562,57.5759419 121,59.9583691 L121,77.6858358 C121.007553,80.0666615 122.974644,81.9945447 125.402238,82 L156.005667,82 C158.434588,81.9945447 160.402291,80.0647096 160.408058,77.6825326 L160.408058,76.2533865 L164.302793,78.4592413 C165.272534,79.006676 166.465996,79.0056751 167.434615,78.4564886 C168.403183,77.9073522 169,76.8932616 169,75.7960898 L169,63.3208036 C169.001623,62.2252334 168.406602,61.212344 167.439361,60.6641085 C166.472171,60.115923 165.280138,60.115923 164.313152,60.6643087 L164.313152,60.6610054 Z M139.131055,63.1884856 L146.289985,67.2817235 C146.729461,67.5330768 147,67.9973262 147,68.5000805 C147,69.0025968 146.729461,69.4670365 146.289985,69.7183899 L139.131055,73.811485 C138.691531,74.0628383 138.149924,74.0628383 137.7104,73.811485 C137.270924,73.5602744 137,73.0958347 137,72.593128 L137,64.4036537 C137.001105,63.9015181 137.272414,63.4381731 137.711697,63.1875813 C138.151221,62.9371322 138.692107,62.937513 139.131055,63.1884856 Z M131.999976,46 C133.061069,45.9992545 134.079003,46.4204347 134.829354,47.1705994 C135.579519,47.9209507 136.000699,48.9388847 136,49.9999772 C136,52.2091323 134.209131,54 131.999976,54 C129.790868,54 128,52.2091323 128,49.9999772 C128,47.790822 129.790868,46 131.999976,46 Z" id="Fill-2" fill="#FFFFFF"></path>
                <text id="暂无视频" font-family="PingFangSC-Regular, PingFang SC" font-size="14" font-weight="normal" line-spacing="22" fill="#000000" fill-opacity="0.25">
                    <tspan x="117" y="109">暂无视频</tspan>
                </text>
            </g>
        </g>
    </g>
</svg>