<?xml version="1.0" encoding="UTF-8"?>
<svg width="570px" height="400px" viewBox="0 0 570 400" version="1.1" xmlns="http://www.w3.org/2000/svg" xmlns:xlink="http://www.w3.org/1999/xlink">
    <!-- Generator: Sketch 60 (88103) - https://sketch.com -->
    <title>编组 2</title>
    <desc>Created with Sketch.</desc>
    <g id="资源画像" stroke="none" stroke-width="1" fill="none" fill-rule="evenodd">
        <g id="资源画像1备份" transform="translate(-696.000000, -383.000000)">
            <g id="编组-2" transform="translate(696.000000, 383.000000)">
                <rect id="矩形" fill="#E5E5E5" x="0" y="0" width="570" height="400" rx="4"></rect>
                <g id="Fill-4" transform="translate(225.000000, 123.000000)" fill="#FFFFFF">
                    <path d="M67.6020613,31.9232788 C76.602028,31.9232788 83.8978552,24.7769457 83.8978552,15.9618873 C83.8978552,7.14633313 76.602028,0 67.6020613,0 C58.6020945,0 51.3062673,7.14633313 51.3062673,15.9618873 C51.3062673,24.7769457 58.6020945,31.9232788 67.6020613,31.9232788 Z M107.801356,51.1605849 L98.170292,56.6227014 L98.170292,49.4207235 C98.1558684,43.5151833 93.2675224,38.7340654 87.2383178,38.7292321 L11.3280085,38.7292321 C5.30576259,38.7433602 0.427158894,43.5213799 0.413367877,49.4207235 L0.413367877,93.3173077 C0.432093294,99.2126855 5.30917871,103.986492 11.3280085,104 L87.2042831,104 C93.2264024,103.986492 98.1050061,99.2078522 98.1193032,93.3091283 L98.1193032,89.7702905 L107.775672,95.232407 C110.17999,96.5879597 113.138985,96.5854811 115.54052,95.2255908 C117.941928,93.8658245 119.421624,91.354743 119.421624,88.6379367 L119.421624,57.7467518 C119.425664,55.0339113 117.950405,52.5258042 115.552287,51.1682686 C113.154295,49.8108569 110.198842,49.8108569 107.801356,51.1687643 L107.801356,51.1605849 Z M45.3663988,57.4191072 L63.1158141,67.5547438 C64.205424,68.1771426 64.8761823,69.3267124 64.8761823,70.5716278 C64.8761823,71.815954 64.205424,72.9659952 63.1158141,73.588394 L45.3663988,83.7236771 C44.2766699,84.3460759 42.9338425,84.3460759 41.8441135,83.7236771 C40.7545037,83.1016319 40.0827921,81.9515907 40.0827921,80.7067931 L40.0827921,60.4280948 C40.0855328,59.1847115 40.7581977,58.037381 41.8473309,57.4168679 C42.9370599,56.7967084 44.2780998,56.7976512 45.3663988,57.4191072 Z M27.6860381,14.8571429 C30.3168461,14.8552968 32.8406496,15.8982194 34.7010249,17.75577 C36.5609374,19.6137827 37.6051861,22.1343811 37.6034531,24.7618482 C37.6034531,30.2321372 33.1632828,34.6666667 27.6860381,34.6666667 C22.2089091,34.6666667 17.768741,30.2321372 17.768741,24.7618482 C17.768741,19.2915593 22.2089091,14.8571429 27.6860381,14.8571429 Z" id="Fill-2"></path>
                </g>
                <text id="暂无视频" font-family="PingFangSC-Regular, PingFang SC" font-size="24" font-weight="normal" line-spacing="32" fill="#000000" fill-opacity="0.25">
                    <tspan x="237" y="276">暂无视频</tspan>
                </text>
            </g>
        </g>
    </g>
</svg>