<?xml version="1.0" encoding="UTF-8"?>
<svg width="154px" height="154px" viewBox="0 0 154 154" version="1.1" xmlns="http://www.w3.org/2000/svg" xmlns:xlink="http://www.w3.org/1999/xlink">
    <!-- Generator: Sketch 52.4 (67378) - http://www.bohemiancoding.com/sketch -->
    <title>分组 12</title>
    <desc>Created with Sketch.</desc>
    <defs>
        <path d="M16.8198499,8.813761 L124.006773,8.89531255 C128.420282,8.8986705 131.997305,12.4756773 132.000684,16.8891862 L132.082736,124.076619 C132.086118,128.494895 128.507139,132.079358 124.088862,132.08274 C124.084792,132.082743 124.080722,132.082743 124.076651,132.08274 L16.8897285,132.001189 C12.4762196,131.997831 8.89919611,128.420824 8.89581757,124.007315 L8.81376554,16.8198827 C8.81038334,12.401606 12.3893625,8.81714322 16.8076392,8.81376103 C16.8117094,8.81375791 16.8157796,8.8137579 16.8198499,8.813761 Z" id="path-1"></path>
        <filter x="-11.4%" y="-8.1%" width="122.7%" height="122.7%" filterUnits="objectBoundingBox" id="filter-2">
            <feOffset dx="0" dy="4" in="SourceAlpha" result="shadowOffsetOuter1"></feOffset>
            <feGaussianBlur stdDeviation="4" in="shadowOffsetOuter1" result="shadowBlurOuter1"></feGaussianBlur>
            <feColorMatrix values="0 0 0 0 0   0 0 0 0 0   0 0 0 0 0  0 0 0 0.0951086957 0" type="matrix" in="shadowBlurOuter1"></feColorMatrix>
        </filter>
        <rect id="path-3" x="0" y="0" width="123" height="123" rx="8"></rect>
        <filter x="-11.4%" y="-8.1%" width="122.8%" height="122.8%" filterUnits="objectBoundingBox" id="filter-4">
            <feOffset dx="0" dy="4" in="SourceAlpha" result="shadowOffsetOuter1"></feOffset>
            <feGaussianBlur stdDeviation="4" in="shadowOffsetOuter1" result="shadowBlurOuter1"></feGaussianBlur>
            <feColorMatrix values="0 0 0 0 0   0 0 0 0 0   0 0 0 0 0  0 0 0 0.0951086957 0" type="matrix" in="shadowBlurOuter1"></feColorMatrix>
        </filter>
    </defs>
    <g id="其他" stroke="none" stroke-width="1" fill="none" fill-rule="evenodd">
        <g id="图标" transform="translate(-268.000000, -132.000000)">
            <g id="分组-12" transform="translate(276.000000, 136.000000)">
                <g id="Rectangle-" transform="translate(70.448251, 70.448251) rotate(7.000000) translate(-70.448251, -70.448251) ">
                    <use fill="black" fill-opacity="1" filter="url(#filter-2)" xlink:href="#path-1"></use>
                    <use fill="#FFFFFF" fill-rule="evenodd" xlink:href="#path-1"></use>
                </g>
                <g id="Rectangle-">
                    <use fill="black" fill-opacity="1" filter="url(#filter-4)" xlink:href="#path-3"></use>
                    <use fill="#FFFFFF" fill-rule="evenodd" xlink:href="#path-3"></use>
                </g>
                <path d="M64.8889829,61.3751579 L64.8889829,67.1250526 L83.6665961,67.1250526 C84.464485,67.1250526 85.1111581,67.7686154 85.1111581,68.5626667 C85.1111581,69.3564372 84.464485,70 83.6665961,70 L43.2222457,70 C42.4243569,70 41.7776837,69.3564372 41.7776837,68.5626667 C41.7776837,67.7686154 42.4243569,67.1250526 43.2222457,67.1250526 L61.9998589,67.1250526 L61.9998589,61.3751579 L41.7776837,61.3751579 C38.586636,61.3751579 36,58.8006821 36,55.6249825 L36,36.9374035 C36,36.143633 36.6466167,35.5000702 37.4442799,35.5000702 C38.2421688,35.5000702 38.8888419,36.143633 38.8888419,36.9374035 L38.8888419,55.6249825 C38.8888419,57.2128604 40.1821881,58.4999298 41.7776837,58.4999298 C43.3731794,58.4999298 44.6665256,57.2128604 44.6665256,55.6249825 L44.6665256,26.8749474 C44.6665256,25.2871256 45.9598718,24 47.5553675,24 L85.1111581,24 C86.7066538,24 88,25.2871256 88,26.8749474 L88,54.1876492 C88,58.1571193 84.7664652,61.3751579 80.7777543,61.3751579 L64.8889829,61.3751579 Z" id="Fill-1" fill="#5E87FD"></path>
                <path d="M35,31.5 C35,32.8807399 36.1192601,34 37.5,34 C38.8807887,34 40,32.8807399 40,31.5 C40,30.1192601 38.8807887,29 37.5,29 C36.1192601,29 35,30.1192601 35,31.5 Z" id="Fill-2" fill="#5E87FD"></path>
                <path d="M80.7843683,59 C83.1129747,59 85,57.0451102 85,54.6365832 L85,27 L47.7515392,27 L47.7515392,56.0909607 C47.7515392,57.1498831 47.4789396,58.1448848 47,59 L80.7843683,59 Z" id="Fill-3" fill="#E3ECFF"></path>
                <path d="M55,34 L55,30 C52.7907306,30 51,31.790852 51,34 L55,34 Z" id="Fill-4" fill="#5E87FD"></path>
                <path d="M52,36.0001099 C52,38.7613613 54.2386387,41 57.0001099,41 C59.7616359,41 62,38.7613613 62,36.0001099 C62,33.2386387 59.7616359,31 57.0001099,31 L57.0001099,36.0001099 L52,36.0001099 Z" id="Fill-5" fill="#5E87FD"></path>
                <path d="M58.857103,54.5834947 C58.857103,55.3657629 58.2175347,56 57.428691,56 C56.6395683,56 56,55.3657629 56,54.5834947 L56,48.9166436 C56,48.1343201 56.6395683,47.5001383 57.428691,47.5001383 C58.2175347,47.5001383 58.857103,48.1343201 58.857103,48.9166436 L58.857103,54.5834947 Z M64.571588,45.7999668 C64.571588,45.1767421 65.2115469,44.6665744 66,44.6665744 C66.7886763,44.6665744 67.428691,45.1767421 67.428691,45.7999668 L67.428691,54.866663 C67.428691,55.4900537 66.7886763,56 66,56 C65.2115469,56 64.571588,55.4900537 64.571588,54.866663 L64.571588,45.7999668 Z M73.142897,40.215515 C73.142897,39.5440903 73.7829117,39 74.571588,39 C75.3600411,39 76,39.5440903 76,40.215515 L76,54.784485 C76,55.456131 75.3600411,56 74.571588,56 C73.7829117,56 73.142897,55.456131 73.142897,54.784485 L73.142897,40.215515 Z" id="Fill-6" fill="#5E87FD"></path>
            </g>
        </g>
    </g>
</svg>