<?xml version="1.0" standalone="no"?><!DOCTYPE svg PUBLIC "-//W3C//DTD SVG 1.1//EN" "http://www.w3.org/Graphics/SVG/1.1/DTD/svg11.dtd"><svg t="1576497885107" class="icon" viewBox="0 0 1024 1024" version="1.1" xmlns="http://www.w3.org/2000/svg" p-id="2417" xmlns:xlink="http://www.w3.org/1999/xlink" width="16" height="16"><defs><style type="text/css"></style></defs><path d="M256 224h512a32 32 0 0 1 32 32v512a32 32 0 0 1-32 32H256a32 32 0 0 1-32-32V256a32 32 0 0 1 32-32z m256 480a32 32 0 1 0 0-64 32 32 0 0 0 0 64z m0-384a32 32 0 0 0-32 32v192a32 32 0 0 0 64 0v-192a32 32 0 0 0-32-32z" p-id="2418"></path></svg>