<?xml version="1.0" standalone="no"?><!DOCTYPE svg PUBLIC "-//W3C//DTD SVG 1.1//EN" "http://www.w3.org/Graphics/SVG/1.1/DTD/svg11.dtd"><svg t="1573629119001" class="icon" viewBox="0 0 1024 1024" version="1.1" xmlns="http://www.w3.org/2000/svg" p-id="11738" xmlns:xlink="http://www.w3.org/1999/xlink" width="200" height="200"><defs><style type="text/css"></style></defs><path d="M469.845333 537.984a31.701333 31.701333 0 0 1-22.613333-9.386667 31.744 31.744 0 0 1 0-45.226666l170.325333-170.325334 22.656-149.589333a32.128 32.128 0 0 1 9.216-18.048L788.010667 9.216a31.701333 31.701333 0 0 1 32-7.765333c11.264 3.498667 19.626667 12.885333 21.888 24.490666l17.322666 90.624 90.624 17.322667a32 32 0 0 1 16.810667 53.845333l-136.192 138.581334a31.957333 31.957333 0 0 1-18.048 9.258666l-149.589333 22.656-170.368 170.368a31.616 31.616 0 0 1-22.613334 9.386667z m215.936-247.936l106.538667-16.128 86.826667-88.362667-53.290667-10.197333a31.829333 31.829333 0 0 1-25.386667-25.386667l-10.197333-53.248-88.32 86.826667-16.170667 106.496z" p-id="11739"></path><path d="M757.845333 1024a31.914667 31.914667 0 0 1-31.018666-24.234667l-22.784-91.093333a446.933333 446.933333 0 0 1-208 51.413333 448.853333 448.853333 0 0 1-197.632-46.250666l-21.504 85.930666a32 32 0 0 1-62.122667-15.530666l26.069333-104.234667a447.061333 447.061333 0 0 1-178.090666-253.738667 444.842667 444.842667 0 0 1 46.08-339.754666 445.141333 445.141333 0 0 1 272.810666-207.658667 446.805333 446.805333 0 0 1 159.616-12.544 32 32 0 1 1-6.656 63.616 382.933333 382.933333 0 0 0-136.661333 10.752 381.610667 381.610667 0 0 0-233.813333 178.048 381.525333 381.525333 0 0 0-39.509334 291.242667 382.634667 382.634667 0 0 0 160.256 222.848l0.682667 0.170666c6.826667 1.706667 12.757333 5.504 17.109333 10.88a383.274667 383.274667 0 0 0 192.554667 52.352c33.066667 0 66.218667-4.352 98.602667-12.885333a381.226667 381.226667 0 0 0 233.685333-178.133333 381.269333 381.269333 0 0 0 39.637333-291.114667c-2.176-8.277333-1.024-16.896 3.285334-24.277333a31.829333 31.829333 0 0 1 27.690666-15.914667c14.506667 0 27.221333 9.813333 30.933334 23.850667 46.805333 177.365333-20.650667 366.933333-168.021334 475.392l27.776 111.104a32.085333 32.085333 0 0 1-30.976 39.765333z" p-id="11740"></path><path d="M495.36 768.170667a255.488 255.488 0 0 1-131.669333-36.821334 254.208 254.208 0 0 1-116.352-157.696 254.250667 254.250667 0 0 1 29.226666-193.792 254.421333 254.421333 0 0 1 157.653334-116.394666A257.408 257.408 0 0 1 495.701333 256a32 32 0 0 1 0.042667 64 193.28 193.28 0 0 0-46.122667 5.632 190.933333 190.933333 0 0 0-118.272 87.296 190.72 190.72 0 0 0-21.888 145.322667 190.762667 190.762667 0 0 0 87.296 118.272 191.36 191.36 0 0 0 145.322667 21.930666 192.213333 192.213333 0 0 0 140.16-232.618666 32 32 0 0 1 62.122667-15.402667 256.341333 256.341333 0 0 1-248.96 317.738667h-0.042667z" p-id="11741"></path></svg>