<?xml version="1.0" standalone="no"?><!DOCTYPE svg PUBLIC "-//W3C//DTD SVG 1.1//EN" "http://www.w3.org/Graphics/SVG/1.1/DTD/svg11.dtd"><svg t="1572944752354" class="icon" viewBox="0 0 1024 1024" version="1.1" xmlns="http://www.w3.org/2000/svg" p-id="871" width="200" height="200" xmlns:xlink="http://www.w3.org/1999/xlink"><defs><style type="text/css"></style></defs><path d="M648.1061357 329.55505778l-93.37909095-13.51497956-41.7743455-84.47104947-41.7755591 84.47104947-93.07082904 13.51497956 67.57489778 66.04086992-15.97136592 92.76378075 83.24164266-43.61542163 83.54869096 43.61542163-15.97136592-92.76256712 67.57732503-66.04208355z m-135.15222281 94.29902222l-58.97633186 31.33106252 11.05737956-66.04086993-47.91652504-46.69075911 66.34791823-9.52092445 29.48755911-60.20573866 29.79460741 60.20573866 66.04086992 9.52092445-47.91652504 46.69075911 11.36442785 66.04086993-59.28338014-31.33106252z" p-id="872" fill="#1296db"></path><path d="M418.91218015 503.19147615l18.03939082-104.7677914-76.28147675-74.54962727 105.11731675-15.26381985 47.16650192-95.37308445 47.16650193 95.37065719 105.43164681 15.26260622-76.28875852 74.55326816 18.0345363 104.73745066-94.33664474-49.24909038-94.04901452 49.27943112z m94.03445096-67.61980207l72.76195081 37.98539377-13.90940917-80.79132444 58.86467792-57.52604444-81.32532149-11.77099379-36.38461629-73.57022815-36.38218904 73.56901452-81.02555496 11.76613927 58.86953244 57.53211259-13.90455466 80.75977007 72.43548444-37.9538394z m-69.70360414 34.51805392l13.07564562-78.09221215-56.69470814-55.24199348 78.43202844-11.25641482 34.85787022-71.1684551 35.22195911 71.1684551 78.13468919 11.26491023-56.6680083 55.21650725 13.44216178 78.10677572-70.08468386-37.03754905-69.71695406 37.0399763z m69.69874962-55.4313197l48.48450371 25.62336237-9.28912119-53.97375052 39.16868267-38.16501097-53.94583703-7.77936593-24.36968297-49.24059495-24.117248 49.24059495-54.263808 7.78786134 39.14319644 38.13952474-9.04032711 53.98831408 48.22964148-25.61972149z" p-id="873" fill="#1296db"></path><path d="M581.44995555 998.24556563H282.29996089l-0.46603378-83.01712118c-0.57647408-8.9250323-0.09709037-37.16133925 24.93037986-63.40243912l0.85560888-0.85924978c24.55658192-23.65242785 58.67656533-24.69129482 62.48614874-24.73134458l0.30340741-0.00121364h69.7509357v-65.02263466c-131.31472592-28.84433541-238.0716563-141.68155022-253.08546845-271.73895585l-0.18932622-1.63233185V110.75584c0-46.85459911 38.12010667-84.97349215 84.97470579-84.97349215h326.91784059v57.12190578H271.85910518c-15.35848297 0-27.8528 12.49431703-27.8528 27.8528v373.74695348c13.77955082 112.31292682 111.74252089 208.67390578 228.54466371 224.48507259l24.73013096 3.34961778v171.01740563H370.82453333c-4.05716385 0.17476267-16.20559645 2.031616-23.18153955 8.38132622-8.11554133 8.77211497-8.81580563 16.79420682-8.8388646 19.06005334l0.49637452 2.35444148-0.35195259 0.73788682 0.15291734 27.23384888h242.3484871v57.12190578z" p-id="874" fill="#1296db"></path><path d="M210.71158992 502.13319111c-41.34350697-3.07533748-84.81693392-21.89630578-119.27309274-51.63508622-36.31543941-31.34441245-58.87317333-70.75460741-63.51530666-110.97429334l-0.18932622-1.63111822V177.94116267c0-32.8213997 26.70227911-59.52367882 59.52367881-59.52367882h125.65193007v57.1231194H87.25754311a2.40298667 2.40298667 0 0 0-2.40055941 2.40055942v156.53394963c3.3957357 25.12334697 19.32583822 51.5646957 43.90547912 72.777728 25.38185008 21.90844208 56.79786667 35.7292563 86.1883354 37.91500325l-4.2392083 56.96534756z m530.61343763 496.11237452h-299.1475674v-57.12311941h242.34727348l0.16990815-30.12107377 0.12500385-0.3725843c-0.05704059-2.47337718-0.91022222-10.32434725-8.83643733-18.89135882-6.97837037-6.34971022-19.12680297-8.20656355-23.18396682-8.38132622H526.34510222V712.33869748l24.7277037-3.34961778c116.80335645-15.81116682 214.76389925-112.17214578 228.54466371-224.48507259V110.75584c0-15.35726933-12.49431703-27.85158637-27.85158638-27.85158637H424.84804267V25.78356148h326.91784058c46.85459911 0 84.97349215 38.11889303 84.97349216 84.97349215v377.08443496l-0.18811259 1.63233186C821.53623703 619.53001245 714.77930667 732.36601363 583.46579437 761.21156267v65.02263466h70.05312948c3.80958341 0.04126341 37.92956682 1.081344 62.48736237 24.73255822l0.85439526 0.85924978c25.02989748 26.24231348 25.50685392 54.47983408 24.93159349 63.40486637l-0.46724742 83.01469393z" p-id="875" fill="#1296db"></path><path d="M812.91582578 502.13319111l-4.24042193-56.96534756c29.39168237-2.18574697 60.8052717-16.00534755 86.18954904-37.91378963 24.57842725-21.21424592 40.50852978-47.6568083 43.90426548-72.77894162v-156.53394963a2.40298667 2.40298667 0 0 0-2.4005594-2.40055942H810.71794252v-57.1231194h125.65071645c32.82018608 0 59.52246518 26.70227911 59.52246518 59.52367882v159.94910341l-0.1881126 1.63233184c-4.64334697 40.21968592-27.19986725 79.63109452-63.51530666 110.97429333-34.45494518 29.73878045-77.92958578 48.56096237-119.27187911 51.63629986z" p-id="876" fill="#1296db"></path></svg>