<?xml version="1.0" standalone="no"?><!DOCTYPE svg PUBLIC "-//W3C//DTD SVG 1.1//EN" "http://www.w3.org/Graphics/SVG/1.1/DTD/svg11.dtd"><svg t="1582181744432" class="icon" viewBox="0 0 1024 1024" version="1.1" xmlns="http://www.w3.org/2000/svg" p-id="8151" xmlns:xlink="http://www.w3.org/1999/xlink" width="200" height="200"><defs><style type="text/css"></style></defs><path d="M329.217 289.4c-11.746-88.094-12.95-169.562-0.602-242.688 164.382-108.423 242.266 19.185 367.736 0 9.88 76.108 6.175 178.598-5.571 239.104a227.388 227.388 0 0 1-48.851 104.84c-33.973 40.147-80.324 65.325-132.217 65.325-51.953 0-98.906-25.178-132.306-65.325-23.492-27.558-40.147-62.313-48.189-101.256z m-82.823 689.092h542.69L756.858 1024h-483.9l-26.564-45.538z m571.693-391.89l59.934 220.49c21.022 77.283 11.144 132.428-80.956 132.428h-20.39V636.326h-243.5l69.842-155.799 25.329-19.155 137.216 32.949 6.776 1.807 4.337 5.391a207.089 207.089 0 0 1 40.177 85.685l1.235-0.603zM262.477 939.52h-37.105c-91.468 0-101.346-55.115-80.957-132.427L204.35 586.6c8.041-36.562 25.359-65.325 50.085-87.491l3.705-3.012 4.939-1.205 132.277-32.918 25.931 19.154 76.047 155.799H262.477V939.52z" fill="#13227a" p-id="8152"></path></svg>