<?xml version="1.0" standalone="no"?><!DOCTYPE svg PUBLIC "-//W3C//DTD SVG 1.1//EN" "http://www.w3.org/Graphics/SVG/1.1/DTD/svg11.dtd"><svg t="1582182036025" class="icon" viewBox="0 0 1024 1024" version="1.1" xmlns="http://www.w3.org/2000/svg" p-id="14629" xmlns:xlink="http://www.w3.org/1999/xlink" width="200" height="200"><defs><style type="text/css"></style></defs><path d="M921.13943 68.061969h-136.635682V34.286857c0-18.934533-15.352324-34.286857-34.286856-34.286857-18.422789 0-33.775112 15.352324-33.775113 34.286857v34.286856H307.046477V34.286857a34.286857 34.286857 0 0 0-68.573713 0v34.286856H102.348826c-56.291854 0-102.348826 46.056972-102.348826 102.348826v716.441779c0 56.291854 46.056972 102.348826 102.348826 102.348825h538.354822c38.38081 22.516742 82.390805 34.286857 126.912544 34.286857 131.006497 0 241.031484-99.278361 254.336831-229.773113 1.023488-3.070465 1.535232-5.629185 1.535233-8.699651v-614.092953c0-57.315342-46.056972-103.372314-102.348826-103.372314zM102.348826 136.635682h136.635682V204.697651a34.286857 34.286857 0 0 0 68.573713 0V136.635682h409.395302V204.697651a34.286857 34.286857 0 0 0 68.573713 0V136.635682H921.13943c18.934533 0 34.286857 15.352324 34.286857 34.286857v170.410794H68.061969V170.410795c0-18.422789 15.352324-33.775112 34.286857-33.775113z m665.267366 818.790605c-103.884058 0-187.810095-83.926037-187.810095-187.810095s83.926037-187.810095 187.810095-187.810095 187.810095 83.926037 187.810095 187.810095-83.926037 187.810095-187.810095 187.810095z m0-443.682159c-96.71964 0-185.763118 54.756622-228.749625 141.241379-43.498251 86.484758-33.775112 190.368816 24.051974 268.153923H102.348826c-18.934533 0-34.286857-15.352324-34.286857-34.286856V409.395302h886.852574v184.739631c-48.103948-52.197901-116.165917-82.390805-187.298351-82.390805z m0 0" p-id="14630" fill="#bfbfbf"></path><path d="M375.108446 546.030985H204.697651a34.286857 34.286857 0 0 0 0 68.573713h170.410795a34.286857 34.286857 0 0 0 0-68.573713z m0 170.410794H204.697651a34.286857 34.286857 0 0 0 0 68.573713h170.410795a34.286857 34.286857 0 0 0 0-68.573713z m511.744128 34.286857h-102.348826v-68.061969a34.286857 34.286857 0 0 0-68.573713 0v102.348825c0 18.934533 15.352324 34.286857 34.286857 34.286857h136.635682a34.286857 34.286857 0 0 0 0-68.573713z m0 0" p-id="14631" fill="#bfbfbf"></path></svg>