<?xml version="1.0" standalone="no"?><!DOCTYPE svg PUBLIC "-//W3C//DTD SVG 1.1//EN" "http://www.w3.org/Graphics/SVG/1.1/DTD/svg11.dtd"><svg t="1582180438820" class="icon" viewBox="0 0 1138 1024" version="1.1" xmlns="http://www.w3.org/2000/svg" p-id="1125" width="222.265625" height="200" xmlns:xlink="http://www.w3.org/1999/xlink"><defs><style type="text/css"></style></defs><path d="M1131.218699 155.965264C1131.218699 72.339371 1063.426111 4.546781 979.800218 4.546781L158.477832 4.546781C74.851938 4.546781 7.059348 72.339371 7.059348 155.965264L7.059348 821.832471C7.059348 905.458364 74.851938 973.250953 158.477832 973.250953L979.800218 973.250953C1063.426111 973.250953 1131.218699 905.458364 1131.218699 821.832471L1131.218699 155.965264 1131.218699 155.965264ZM1064.411517 819.575159C1064.411517 866.842527 1026.093739 905.159014 978.827657 905.159014L160.736428 905.159014C113.469061 905.159014 75.152571 866.841242 75.152571 819.575159L75.152571 158.223862C75.152571 110.956495 113.470345 72.640005 160.736428 72.640005L978.827657 72.640005C1026.095024 72.640005 1064.411517 110.957779 1064.411517 158.223862L1064.411517 819.575159 1064.411517 819.575159ZM533.533365 542.357462C580.302251 508.816402 610.860112 454.038365 610.860112 392.223733 610.860112 290.386458 528.008924 207.535272 426.17165 207.535272 324.334375 207.535272 241.484473 290.386458 241.484473 392.223733 241.484473 454.038364 272.042337 508.816402 318.811219 542.357462 230.361076 583.123979 168.811104 672.616055 168.811104 776.226293 168.811104 795.132723 184.138213 810.459836 203.044647 810.459836 221.95108 810.459836 237.27819 795.132723 237.27819 776.226293 237.27819 672.070036 322.015395 587.33283 426.171649 587.33283 530.327902 587.33283 615.065105 672.070036 615.065105 776.226293 615.065105 795.132723 630.392218 810.459836 649.298648 810.459836 668.205084 810.459836 683.532191 795.132723 683.532191 776.226293 683.534763 672.616055 621.984791 583.123979 533.533365 542.357462L533.533365 542.357462ZM426.172934 276.003642C490.256441 276.003642 542.393024 328.140226 542.393024 392.223733 542.393024 456.307239 490.256441 508.443823 426.172934 508.443823 362.089428 508.443823 309.952844 456.307239 309.952844 392.223733 309.952844 328.140226 362.088143 276.003642 426.172934 276.003642L426.172934 276.003642ZM915.734699 235.802419 753.218514 235.802419C734.312078 235.802419 718.984971 250.941955 718.984971 269.848388 718.984971 288.754821 734.312078 303.894357 753.218514 303.894357L915.734699 303.894357C934.641129 303.894357 949.968242 288.754821 949.968242 269.848388 949.968242 250.941955 934.641129 235.802419 915.734699 235.802419L915.734699 235.802419ZM915.734699 573.692604 753.218514 573.692604C734.312078 573.692604 718.984971 585.620252 718.984971 604.526689 718.984971 623.433119 734.312078 635.360774 753.218514 635.360774L915.734699 635.360774C934.641129 635.360774 949.968242 623.433119 949.968242 604.526689 949.968242 585.620252 934.641129 573.692604 915.734699 573.692604L915.734699 573.692604ZM915.734699 405.389887 753.218514 405.389887C734.312078 405.389887 718.984971 419.887046 718.984971 438.793479 718.984971 457.699912 734.312078 472.197071 753.218514 472.197071L915.734699 472.197071C934.641129 472.197071 949.968242 457.699912 949.968242 438.793479 949.968242 419.887046 934.641129 405.389887 915.734699 405.389887L915.734699 405.389887Z" p-id="1126" fill="#13227a"></path></svg>