<?xml version="1.0" encoding="UTF-8"?>
<svg width="100px" height="360px" viewBox="0 0 100 360" version="1.1" xmlns="http://www.w3.org/2000/svg" xmlns:xlink="http://www.w3.org/1999/xlink">
    <!-- Generator: Sketch 60 (88103) - https://sketch.com -->
    <title>man</title>
    <desc>Created with Sketch.</desc>
    <g id="资源画像" stroke="none" stroke-width="1" fill="none" fill-rule="evenodd">
        <g id="资源画像1备份" transform="translate(-166.000000, -152.000000)" fill="#B2C5EB">
            <g id="man" transform="translate(166.000000, 152.000000)">
                <path d="M59.7425138,221.098449 C59.504235,222.70552 59.1521834,224.308316 59.0469973,225.926073 C57.6645509,247.354398 55.9837194,268.769901 55.0885639,290.21746 C54.5991264,301.949932 55.4878419,313.740106 55.6853343,325.502498 C55.7390006,328.66535 55.6080546,331.834614 55.4341755,334.993192 C55.1014439,340.968419 48.9147817,344.488161 43.7885675,341.197084 C40.9506885,339.376307 39.0830979,339.773801 36.4491512,341.19281 C26.5122813,346.550426 16.0344541,346.911589 5.33122802,343.851316 C4.31800646,343.560675 3.4357309,342.814841 1.33415483,341.624497 C3.46793074,340.52391 4.71728444,339.545135 6.1147574,339.243809 C7.8020289,338.878372 9.61380643,339.074981 11.3719176,339.049337 C21.0597754,338.904016 28.416365,331.379419 28.3304988,318.524989 C28.3004456,314.090584 29.0195753,309.649768 28.9938154,305.213227 C28.9015092,288.706556 29.352307,272.152871 28.2446325,255.708175 C27.1455447,239.413074 24.2776125,223.244059 22.4271952,206.991699 C20.0873403,186.43957 19.0698254,165.823328 22.3799688,145.296844 C23.2150179,140.120878 21.1971614,137.829947 17.0004492,136.417349 C14.9117531,135.714256 12.672791,135.342407 10.4703221,135.111604 C3.81783564,134.414922 0.977809956,131.974396 0.288733429,125.338817 C-0.454009495,118.173247 0.108414338,111.379525 3.48725064,104.502458 C6.8682336,97.6211173 9.05352926,89.9661596 10.5626283,82.4116438 C12.5461383,72.4871258 16.4294388,64.7552339 26.7054803,61.2825074 C31.2005776,59.763056 35.4466629,57.5127292 40.4698376,55.3008696 L40.4698376,70.43982 C40.978595,70.6193332 41.4852058,70.7988465 41.9918166,70.9762227 C44.4991106,66.197751 47.0450445,61.4342388 49.4664723,56.6130259 C49.7627108,56.0231967 49.6360581,55.0016808 49.3226463,54.3648362 C43.8787271,43.3076751 42.7968125,31.0943632 39.9610802,19.351205 C39.4480294,17.2248279 39.4673493,14.9168004 39.5682421,12.7070779 C39.9653735,3.91734 44.0311397,-0.023403161 52.8088154,0 C56.1404253,0.00865277577 59.572928,0.085587024 62.7800318,0.863477756 C71.0425102,2.86804234 74.6209855,8.56972496 73.06466,16.9149538 C71.5212144,25.1853855 69.8768761,33.4429948 67.9792323,41.6407664 C67.6035675,43.2649339 66.122375,44.8912384 64.7270487,45.974729 C61.8376499,48.2207817 58.7078257,50.1740568 55.5930281,52.1145095 C51.4671555,54.6875327 49.91727,58.5021891 49.3526995,63.1460258 C48.7494892,68.0847772 47.6117616,72.9594166 46.4504208,79.2509285 C50.9197583,72.7948628 54.676406,67.3688612 58.4352004,61.9471338 C59.248783,60.7738865 59.9442995,59.4852379 60.9188812,58.463722 C63.6666007,55.5808248 66.1438415,51.3280705 69.4733048,50.4646973 C72.1201314,49.7787002 75.8617526,53.296305 79.1203762,54.9418431 C83.3943679,57.0981391 87.7391994,59.1262114 91.9337649,61.4278276 C99.324701,65.4903834 101.389784,68.5271491 99.1336486,76.564641 C95.6667994,88.9083137 90.9527432,100.899371 86.9084436,113.087038 C85.6805564,116.786293 83.8601923,120.718488 84.1414042,124.402784 C85.109546,137.060605 86.94923,149.65004 88.3381164,162.280079 C89.2590317,170.650952 90.9355699,179.079527 90.6071316,187.420482 C89.5230704,215.155278 95.9308381,242.148514 97.7984287,269.549929 C98.6120113,281.479011 97.8950282,293.850466 95.5487334,305.559431 C93.0264127,318.155277 92.5541485,330.26601 94.9347898,342.776373 C96.6349412,351.698609 96.2893296,351.745625 87.1681889,353.091974 C86.4512059,353.19669 85.7299295,353.724544 85.1460391,354.213932 C75.6556736,362.187312 64.9116611,360.332342 54.1977018,357.960202 C52.8216954,357.654602 51.7805673,355.85947 50.5827333,354.754609 C51.7977405,353.568539 53.0106011,352.380332 54.2341949,351.202811 C54.3415277,351.100232 54.5239934,351.074587 54.6742593,351.016886 C68.3184039,345.787494 68.6404023,345.772535 67.9577657,331.253333 C66.4830132,299.802185 64.6411825,268.368133 62.9646442,236.925533 C62.7800318,233.431436 62.810085,229.924517 62.5374597,226.438968 C62.3957804,224.635287 61.81189,222.865799 61.4276386,221.079215 L59.7425138,221.098449 Z" id="Fill-1"></path>
            </g>
        </g>
    </g>
</svg>