<?xml version="1.0" standalone="no"?><!DOCTYPE svg PUBLIC "-//W3C//DTD SVG 1.1//EN" "http://www.w3.org/Graphics/SVG/1.1/DTD/svg11.dtd"><svg t="1582181201146" class="icon" viewBox="0 0 1024 1024" version="1.1" xmlns="http://www.w3.org/2000/svg" p-id="3183" xmlns:xlink="http://www.w3.org/1999/xlink" width="200" height="200"><defs><style type="text/css"></style></defs><path d="M648.106 329.555l-93.379-13.515-41.774-84.471-41.776 84.471-93.07 13.515 67.574 66.04-15.971 92.765 83.241-43.616 83.55 43.616-15.972-92.763 67.577-66.042z m-135.152 94.3l-58.976 31.33 11.057-66.04-47.917-46.691 66.348-9.521 29.488-60.206 29.795 60.206 66.04 9.52-47.916 46.691 11.364 66.041-59.283-31.33z" p-id="3184" fill="#13227a"></path><path d="M418.912 503.191l18.04-104.767-76.282-74.55 105.117-15.264 47.167-95.373 47.166 95.37 105.432 15.263-76.289 74.554 18.035 104.737-94.337-49.249-94.049 49.28z m94.035-67.62l72.762 37.986-13.91-80.791 58.865-57.526-81.325-11.771-36.385-73.57-36.382 73.568-81.026 11.767 58.87 57.532-13.905 80.76 72.436-37.954z m-69.704 34.519l13.076-78.092-56.695-55.242 78.432-11.257 34.858-71.168 35.222 71.168 78.135 11.265-56.668 55.217 13.442 78.106-70.085-37.037-69.717 37.04z m69.699-55.432l48.484 25.624-9.289-53.974 39.169-38.165-53.946-7.78-24.37-49.24-24.117 49.24-54.264 7.789 39.143 38.139-9.04 53.988 48.23-25.62z" p-id="3185" fill="#13227a"></path><path d="M581.45 998.246H282.3l-0.466-83.018c-0.577-8.925-0.097-37.16 24.93-63.402l0.856-0.86c24.556-23.652 58.676-24.69 62.486-24.73l0.303-0.002h69.751v-65.022C308.846 732.367 202.09 619.53 187.075 489.472l-0.19-1.632V110.756c0-46.855 38.12-84.974 84.975-84.974h326.918v57.122H271.86c-15.358 0-27.853 12.495-27.853 27.853v373.747c13.78 112.313 111.743 208.674 228.545 224.485l24.73 3.35v171.017H370.825c-4.058 0.175-16.206 2.032-23.182 8.381-8.116 8.773-8.816 16.795-8.839 19.06l0.497 2.355-0.352 0.738 0.152 27.234H581.45v57.122z" p-id="3186" fill="#13227a"></path><path d="M210.712 502.133c-41.344-3.075-84.817-21.896-119.274-51.635-36.315-31.344-58.873-70.755-63.515-110.974l-0.19-1.631V177.94c0-32.821 26.703-59.524 59.525-59.524h125.651v57.124H87.258a2.403 2.403 0 0 0-2.401 2.4v156.534c3.396 25.123 19.326 51.565 43.905 72.778 25.382 21.908 56.798 35.73 86.189 37.915l-4.24 56.965z m530.613 496.113H442.177v-57.124h242.348l0.17-30.12 0.125-0.373c-0.057-2.474-0.91-10.325-8.837-18.892-6.978-6.35-19.127-8.206-23.184-8.38H526.345V712.338l24.728-3.35c116.803-15.811 214.764-112.172 228.544-224.485V110.756c0-15.357-12.494-27.852-27.851-27.852H424.848v-57.12h326.918c46.854 0 84.973 38.118 84.973 84.973v377.084l-0.188 1.633C821.536 619.53 714.78 732.366 583.466 761.212v65.022h70.053c3.81 0.041 37.93 1.082 62.487 24.733l0.855 0.859c25.03 26.242 25.507 54.48 24.931 63.405l-0.467 83.015z" p-id="3187" fill="#13227a"></path><path d="M812.916 502.133l-4.24-56.965c29.391-2.186 60.805-16.006 86.189-37.914 24.578-21.214 40.508-47.657 43.904-72.779V177.941a2.403 2.403 0 0 0-2.4-2.4H810.718v-57.124h125.65c32.82 0 59.523 26.703 59.523 59.524v159.95l-0.188 1.632c-4.643 40.22-27.2 79.63-63.515 110.974-34.455 29.739-77.93 48.56-119.272 51.636z" p-id="3188" fill="#13227a"></path></svg>