<?xml version="1.0" standalone="no"?><!DOCTYPE svg PUBLIC "-//W3C//DTD SVG 1.1//EN" "http://www.w3.org/Graphics/SVG/1.1/DTD/svg11.dtd"><svg t="1582181527110" class="icon" viewBox="0 0 1068 1024" version="1.1" xmlns="http://www.w3.org/2000/svg" p-id="5841" xmlns:xlink="http://www.w3.org/1999/xlink" width="208.59375" height="200"><defs><style type="text/css"></style></defs><path d="M828.221455 1023.075621a98.696707 98.696707 0 0 1-17.753371-1.805427 201.906983 201.906983 0 0 1-65.597201-28.285032 2051.868429 2051.868429 0 0 0-204.916029-110.131082L333.233397 992.985162a205.818743 205.818743 0 0 1-36.108551 15.346134 95.386756 95.386756 0 0 1-80.642431-4.814474 75.226149 75.226149 0 0 1-30.09046-38.515788 134.203449 134.203449 0 0 1-6.920805-55.06554c4.814474-92.37771 24.072368-210.633216 30.090459-256.671619l-180.542757-180.542757a15.947944 15.947944 0 0 1-3.610855-4.212664 136.610686 136.610686 0 0 1-15.947943-28.585937 96.590375 96.590375 0 0 1-5.717187-68.305343A80.642431 80.642431 0 0 1 62.419262 320.463393a2103.62402 2103.62402 0 0 1 282.850319-44.232975l117.051887-232.298347a28.285032 28.285032 0 0 1 3.610856-5.416283A98.395802 98.395802 0 0 1 537.848522 0a85.456905 85.456905 0 0 1 68.907152 38.515788 2253.173603 2253.173603 0 0 1 134.203449 240.723676l260.282474 48.445639a88.465951 88.465951 0 0 1 62.588156 52.959209c9.929852 30.090459 0 62.88906-30.09046 98.395802-53.260113 63.189965-142.929682 150.452297-176.630997 184.153612l38.515788 259.078856c1.504523 8.726233 9.027138 64.393583-30.090459 90.271378a65.898106 65.898106 0 0 1-38.816693 11.434375z m-289.771124-214.84588a40.923025 40.923025 0 0 1 14.44342 2.708141A2094.295977 2094.295977 0 0 1 781.882148 932.804243a110.431986 110.431986 0 0 0 44.834784 19.558798 55.065541 55.065541 0 0 0 0-19.859703l-40.923025-277.133131a34.303124 34.303124 0 0 1 10.531661-30.09046s120.361838-117.352792 184.454517-191.375322c16.850657-20.160608 17.452466-30.090459 17.452466-30.090459a32.196792 32.196792 0 0 0-10.832565-6.318997l-276.531323-51.454685a34.904933 34.904933 0 0 1-25.275986-18.95699 2499.313561 2499.313561 0 0 0-135.106162-243.431817c-6.619901-8.425329-11.434375-10.832565-12.938898-10.832565a30.090459 30.090459 0 0 0-14.142516 9.027138l-123.972693 243.431817a35.205838 35.205838 0 0 1-27.984127 19.257894 2232.110282 2232.110282 0 0 0-287.664792 43.029357c-6.619901 2.407237-10.230756 4.814474-10.531661 6.318996a54.463732 54.463732 0 0 0 10.531661 31.594983L273.052479 617.456228a35.807647 35.807647 0 0 1 9.929851 30.090459 2670.528276 2670.528276 0 0 0-33.701314 265.999662 50.551972 50.551972 0 0 0 3.911759 30.090459 36.108551 36.108551 0 0 0 21.665131-2.106332 111.635605 111.635605 0 0 0 24.975081-8.726233l220.863973-120.361838a34.303124 34.303124 0 0 1 16.850657-4.212664z m-142.929683-224.173923a35.205838 35.205838 0 0 1-35.506742-35.205838 191.676227 191.676227 0 0 1 5.717188-45.436594 187.162658 187.162658 0 0 1 49.649258-86.058714 184.454516 184.454516 0 0 1 86.961427-48.144735A180.542757 180.542757 0 0 1 543.866614 364.094559a35.506742 35.506742 0 0 1 0 70.71258 107.42294 107.42294 0 0 0-26.1787 3.009046 114.64465 114.64465 0 0 0-84.253287 83.049668 108.024749 108.024749 0 0 0-3.610855 27.984127 35.205838 35.205838 0 0 1-35.205837 35.205838z" p-id="5842" fill="#13227a"></path></svg>