<?xml version="1.0" encoding="UTF-8"?>
<svg width="100px" height="360px" viewBox="0 0 100 360" version="1.1" xmlns="http://www.w3.org/2000/svg" xmlns:xlink="http://www.w3.org/1999/xlink">
    <!-- Generator: Sketch 60 (88103) - https://sketch.com -->
    <title>weman</title>
    <desc>Created with Sketch.</desc>
    <g id="资源画像" stroke="none" stroke-width="1" fill="none" fill-rule="evenodd">
        <g id="资源画像1备份" transform="translate(-345.000000, -152.000000)" fill="#B2C5EB">
            <g id="weman" transform="translate(345.000000, 152.000000)">
                <path d="M43.6781801,3.28278199 C41.250891,6.02870519 35.6494548,15.1186578 33.5022375,21.7467483 C31.3550203,28.3748388 28.9277313,32.4463801 27.5273722,33.2038762 L26.1270131,33.9613722 C26.1270131,33.9613722 28.1496918,33.8352491 28.834374,32.888379 C29.5190562,31.941509 32.3819503,28.0277162 33.0666325,26.7651597 C32.2574117,29.5427083 31.1994871,31.3733869 30.2035517,32.9514406 C29.2078031,34.5294942 27.6517241,35.7287999 28.4609449,36.8019824 C29.269979,37.8751649 29.8303093,38.0014774 29.3323417,39.3270955 C28.834374,40.6527136 27.5897348,42.9882633 27.8386253,44.376943 C28.0875158,45.765812 33.6350921,49.4900413 33.323839,51.0682844 C33.0127725,52.646338 31.4566935,52.5832765 28.9672286,53.7195205 C26.4777636,54.8557646 22.6189341,56.9388788 26.353225,59.2744285 C25.5441909,57.8224979 25.3572896,56.6862538 26.9133686,56.1813827 C28.4692609,55.6763222 31.1456271,55.6763222 31.1456271,55.6763222 L27.3489736,58.1381844 L27.9714799,60.158237 C27.9714799,60.158237 19.4447869,62.7462223 18.1377851,63.1249703 C16.8307833,63.5037183 15.0258138,62.8094732 13.8433506,64.8925874 C12.6607007,66.9757015 8.5529808,78.9693259 6.5614835,92.2885684 C4.56979947,105.608 2.45357685,108.069862 2.76482999,109.395481 C3.07608314,110.721099 3.26279768,112.930336 2.32922497,114.06658 C1.39565226,115.202824 1.14657506,117.475312 1.4578282,118.674807 C1.76908134,119.874113 0.835508631,121.073418 0.399903604,121.641541 C-0.0358881379,122.209663 -0.22260268,124.419089 0.399903604,125.302898 C1.02222317,126.186517 2.20468637,128.143508 2.82719265,129.469126 C3.44951222,130.794744 4.1965571,132.309547 7.61959481,134.329599 C11.0426325,136.349652 18.8846433,140.768316 18.8846433,140.768316 C18.8846433,140.768316 17.0796738,150.047643 15.5237815,168.290799 L16.6440688,168.416922 C16.6440688,168.416922 16.7684207,184.134965 17.2042124,187.164949 C17.6398174,190.194933 19.7558533,208.627464 20.5650742,215.06618 C21.3741083,221.504897 20.1292824,233.940331 19.5691388,236.591567 C24.0502878,236.71769 32.0168372,236.591567 32.0168372,236.591567 L32.826058,236.647622 C32.826058,236.647622 32.5148049,241.578542 32.7636953,242.967222 C33.0127725,244.355901 33.9463453,250.541993 33.9463453,253.130168 C33.9463453,255.718342 33.8839826,266.449599 34.3819503,272.762003 C34.879918,279.074407 37.1743524,299.337238 38.4189916,303.756091 C39.6638174,308.174944 41.2197097,317.959142 39.9127079,323.956049 C38.6057061,329.952956 35.4937348,335.507864 34.4358102,336.454734 C33.3776989,337.401604 30.5148049,339.800215 29.269979,341.441519 C28.0251532,343.082824 25.7224027,345.544497 25.224435,346.743992 C24.7266541,347.943487 24.9133686,349.269105 24.9133686,349.269105 C24.9133686,349.269105 27.0915804,349.647853 28.7720113,349.647853 C30.4524422,349.647853 39.5392788,349.395228 42.4645356,347.059678 C42.1532824,349.332167 41.9043919,350.215975 42.339997,351.983403 C42.775602,353.75083 44.1447797,355.64476 44.829462,357.03344 C45.5141442,358.422119 48.1281478,359.747927 49.1862591,359.87405 C50.2441837,360.000173 53.5428695,359.621425 57.7127654,353.877143 C60.7625607,349.332167 60.1400544,348.258984 59.7666253,346.68093 C59.3931962,345.102877 59.0197672,339.106159 59.3931962,336.959794 C59.7666253,334.813429 60.0778785,330.079268 59.3310203,328.943024 C58.5841621,327.80678 57.5884135,326.039163 57.5884135,326.039163 C57.5884135,326.039163 57.2771603,320.73669 57.837304,316.886149 C58.3974476,313.035607 60.9409593,294.666138 61.874532,290.436848 C62.8081047,286.207558 65.2975697,270.173829 65.1108551,263.545738 C64.9241406,256.917648 62.8081047,249.658374 62.745742,248.774565 C62.6835661,247.890757 63.4304242,236.970315 63.4304242,235.139636 C64.799602,235.076575 75.4423309,234.066643 75.4423309,234.066643 C75.4423309,234.066643 76.5004422,216.89648 76.8738713,209.763518 C77.2473004,202.630557 77.8076307,176.118195 77.4961909,172.393776 C77.1851244,168.669547 76.6249808,165.891998 76.6249808,165.891998 L77.5871208,165.828937 C77.5871208,165.828937 74.4465822,145.439605 72.1436451,140.578942 C76.4382663,139.316575 86.4584889,135.33972 91.0641765,132.814607 C95.6698641,130.289684 97.1633937,128.964066 97.5991855,127.701509 C98.0347905,126.439142 99.2174404,124.734586 99.7152214,123.850967 C100.213189,122.967159 99.2174404,120.631609 98.5949341,119.432303 C97.9726146,118.232808 96.9145032,115.076701 96.5410742,113.182961 C96.1676451,111.289221 95.1720831,107.94355 94.4872142,106.365496 C93.8027187,104.787253 91.250891,98.4748493 90.5662088,95.2554911 C89.8817133,92.0361329 88.0143812,88.8167746 88.1389198,87.6805305 C88.2634584,86.5442865 88.0767438,85.0292944 87.3920616,82.9461802 C86.7075661,80.8630661 81.4171962,68.3643811 80.5459862,66.660015 C79.6745894,64.9556489 78.8655553,59.7162381 74.5087582,59.0850545 C74.7578354,58.4538709 74.5087582,57.6963748 73.7619,57.1282528 C75.4423309,57.5070008 77.371839,57.5700624 77.8696199,56.3075058 C76.9984099,56.4338183 74.3220436,56.9386894 73.6997241,54.7294522 C75.5046935,55.6763222 76.6249808,54.5400782 76.8116953,53.2144601 C76.9984099,51.888842 75.8781226,50.2475374 75.8781226,50.2475374 C75.8781226,50.2475374 79.1144458,51.3837815 79.799128,49.8687894 C78.243049,50.1214143 75.4423309,48.2276742 74.6954727,47.2175532 C73.9486146,46.2076215 76.5087582,40.9051492 76.5709341,37.7488525 C76.6332968,34.5927452 75.5130095,29.9845179 74.9528659,27.5226557 C74.3927223,25.0607936 73.0235445,16.2234658 72.0276092,13.7616037 C71.0318605,11.2997415 66.5507115,2.84097242 61.1981657,1.38904185 C55.8456199,-0.0626993348 51.7379,-0.315324269 50.9600472,0.347484779 C50.9600472,0.347484779 46.1054691,0.536858793 43.6781801,3.28278199 Z M77.2380563,35.9233966 C77.2380563,37.4833966 76.9903212,40.8923433 76.9903212,40.8923433 C76.9903212,40.8923433 76.8666393,39.7367299 76.2474872,38.9856766 C75.6285209,38.2346233 75.2571039,36.6744499 75.2571039,34.6523433 C75.2571039,32.6300633 75.5046533,30.0877833 75.2571039,27.8923433 C75.2571039,27.8923433 77.2380563,34.3633966 77.2380563,35.9233966 Z M22.5180247,114.989412 C23.0458095,116.479362 22.6353689,122.244632 22.5180247,122.892343 C21.4038711,122.698011 18.8235315,121.726347 18.8235315,121.726347 C18.8235315,121.726347 18.8822915,120.042065 18.8235315,118.681735 C18.7649473,117.321406 19.2927321,115.702031 19.4100762,114.892246 C19.5272445,114.082656 19.175388,112.139328 19.3513162,111.167664 C19.5272445,110.196 20.4068857,109.159429 20.582814,106.892343 C20.582814,106.892343 20.9346705,110.714092 22.5180247,114.989412 Z M69.1229398,107.106445 C68.0514696,109.574554 67.8623643,111.029979 67.6732591,112.612226 C67.4841539,114.194284 66.4754666,114.827069 66.3495225,116.219463 C66.2233893,117.611666 66.6015998,122.611105 66.6015998,122.611105 C66.6015998,122.611105 68.0885342,123.243891 69.9610542,122.611105 C71.8335741,121.97832 75.867756,120.459484 77.569703,119.700066 C79.2716501,118.940648 79.7761828,118.687572 80.5326037,117.991375 C81.2890246,117.295178 82.1713896,116.789026 82.1713896,116.789026 C82.1713896,116.789026 80.7213307,115.206779 79.9021269,113.498088 C79.0825448,111.789397 78.3892851,106.157172 77.8851305,105.081267 C77.3805978,104.005361 74.0398648,97.2972307 73.5984932,94.8923433 C73.5984932,94.8923433 70.1945991,104.638336 69.1229398,107.106445 Z" id="Fill-2"></path>
            </g>
        </g>
    </g>
</svg>