<?xml version="1.0" standalone="no"?><!DOCTYPE svg PUBLIC "-//W3C//DTD SVG 1.1//EN" "http://www.w3.org/Graphics/SVG/1.1/DTD/svg11.dtd"><svg t="1582181823847" class="icon" viewBox="0 0 1314 1024" version="1.1" xmlns="http://www.w3.org/2000/svg" p-id="9223" xmlns:xlink="http://www.w3.org/1999/xlink" width="256.640625" height="200"><defs><style type="text/css"></style></defs><path d="M1311.288889 990.625185l-44.676741-67.508148a32.237037 32.237037 0 0 0-27.192889-12.894815h-198.769778l-112.677925-113.777778h263.054222a105.320296 105.320296 0 0 0 104.751407-105.813333V105.813333A105.320296 105.320296 0 0 0 1191.025778 0H123.71437A105.320296 105.320296 0 0 0 18.962963 105.813333v584.817778A105.320296 105.320296 0 0 0 123.71437 796.444444h265.709037l-112.64 113.777778H75.320889a32.312889 32.312889 0 0 0-27.230815 12.894815L3.451259 990.625185c-10.126222 15.17037 4.589037 33.374815 27.230815 33.374815h1253.451852c22.641778 0 37.357037-18.204444 27.154963-33.374815z m-1118.814815-490.382222a40.391111 40.391111 0 0 1 0-56.888889L372.053333 261.688889a39.936 39.936 0 0 1 56.395852 0l291.00563 293.925926 390.637037-394.42963a39.291259 39.291259 0 0 1 56.433778 0 40.504889 40.504889 0 0 1 0 56.888889L747.557926 641.327407a39.74637 39.74637 0 0 1-56.433778 0L400.118519 347.401481l-151.324445 152.841482a39.973926 39.973926 0 0 1-56.32 0zM495.464296 796.444444h326.162963l112.677926 113.777778H382.976z" fill="#bfbfbf" p-id="9224"></path></svg>