<?xml version="1.0" standalone="no"?><!DOCTYPE svg PUBLIC "-//W3C//DTD SVG 1.1//EN" "http://www.w3.org/Graphics/SVG/1.1/DTD/svg11.dtd"><svg t="1582181614552" class="icon" viewBox="0 0 1024 1024" version="1.1" xmlns="http://www.w3.org/2000/svg" p-id="6944" xmlns:xlink="http://www.w3.org/1999/xlink" width="200" height="200"><defs><style type="text/css"></style></defs><path d="M405.422 886.17H152.387c-34.1 0-61.835-28.626-61.835-63.78V136.97c0-35.184 27.73-63.785 61.835-63.785h644.08c34.1 0 61.834 28.631 61.834 63.785v259.984h-61.834V136.96l-644.055-1.946v687.37l253.03 1.946v61.84h-0.025zM241.46 223.42h435.047v61.835H241.459v-61.84z m0 150.231h350.736v61.835H241.459v-61.84z m0 150.2h235.443v61.835H241.46v-61.834z m0 150.263h235.443v61.834H241.46v-61.834z m715.848 179.573l-93.558-174.474c9.677-21.734 15.273-45.696 15.365-70.989 0.374-97.515-78.407-176.911-176.015-177.254-97.546-0.43-176.973 78.382-177.316 175.923-0.123 25.912 5.658 50.248 15.555 72.474l-95.294 172.277a16.102 16.102 0 0 0 1.178 17.408 16.097 16.097 0 0 0 16.414 6.032l80.728-18.243 27.335 76.985a16.302 16.302 0 0 0 13.82 10.7c0.43-0.035 0.803 0 1.264 0a16.036 16.036 0 0 0 14.192-8.381l83.262-153.728c5.878 0.65 11.535 1.823 17.53 1.89 5.474 0 10.701-1.086 16.139-1.64l83.85 154.282a15.8 15.8 0 0 0 14.1 8.438c0.37 0.092 0.769 0.03 1.265-0.031a16.282 16.282 0 0 0 13.947-10.445l27.822-76.805 80.543 18.74a15.795 15.795 0 0 0 16.384-5.817 16.077 16.077 0 0 0 1.49-17.342z m-371.175-21.304l-10.045-28.324a7.997 7.997 0 0 0-9.431-5.16l-29.988 6.706 42.445-76.21c15.585 15.738 28.324 22.63 45.732 32.214l-38.707 70.774zM701.798 719.78c-62.141-0.307-112.604-51.077-112.291-113.285 0.184-62.147 50.98-112.604 113.187-112.323 62.178 0.215 112.543 50.98 112.297 113.157-0.215 62.208-50.985 112.604-113.193 112.45z m138.327 91.423c-4.761-1.178-9.487 1.577-11.13 6.03l-11.93 33.455-45.481-83.574c20.588-11.284 35.584-19.476 54.072-37.97L875.5 819.21l-35.375-8.007z" p-id="6945" fill="#bfbfbf"></path></svg>