<?xml version="1.0" encoding="UTF-8"?>
<svg width="16px" height="16px" viewBox="0 0 16 16" version="1.1" xmlns="http://www.w3.org/2000/svg" xmlns:xlink="http://www.w3.org/1999/xlink">
    <!-- Generator: Sketch 57 (83077) - https://sketch.com -->
    <title>icon_zhuli_selected</title>
    <desc>Created with Sketch.</desc>
    <g id="其他" stroke="none" stroke-width="1" fill="none" fill-rule="evenodd">
        <g id="我的能力" transform="translate(-230.000000, -586.000000)" fill="#FFFFFF">
            <g id="编组-6" transform="translate(222.000000, 248.000000)">
                <path d="M23.8121203,350.511806 C23.8620229,350.673506 23.9060921,350.878957 23.9432848,351.127394 C23.9813717,351.376616 24,351.628139 24,351.882806 C24,352.136706 23.9780293,352.37732 23.9340452,352.602348 C23.889976,352.828162 23.8248514,352.999217 23.736862,353.114847 C23.6742496,353.195294 23.5143231,353.273461 23.2571036,353.349151 C23.0006292,353.424174 22.677391,353.493732 22.289007,353.557001 C21.9005591,353.621016 20.4682123,353.681219 19.9926053,353.739024 C19.516168,353.796848 19.0398159,353.846064 18.5642088,353.88667 C18.0877715,353.927277 17.6240653,353.956229 17.173069,353.973427 C16.7220087,353.990625 16.3277275,354 15.9891822,354 C15.650722,354 15.2589317,353.988246 14.8138538,353.964838 C14.3696062,353.94133 13.9117972,353.913244 13.4420874,353.878081 C12.9716537,353.843685 12.5045199,353.803059 12.041644,353.756988 C11.5779378,353.71017 10.1548945,353.658577 9.77317414,353.600752 C9.39070861,353.542948 9.06489439,353.487442 8.79502893,353.435908 C8.52590859,353.383547 8.35999967,353.328887 8.2973873,353.271083 C8.1840421,353.189849 8.09688297,352.932037 8.03341902,352.498394 C7.97080666,352.064849 7.99616243,351.500756 8.10959279,350.806254 C8.17222644,350.413296 8.34486284,350.112578 8.62579884,349.903962 C8.90837412,349.696211 9.23337935,349.531366 9.60394406,349.409447 C9.97293335,349.288374 11.3621264,349.181354 11.7683722,349.088367 C12.1761935,348.996245 12.529897,348.857128 12.8311857,348.672019 C13.0689466,348.533728 13.254229,348.400154 13.3854574,348.272772 C13.5166006,348.145409 13.6114026,348.018871 13.6672236,347.891508 C13.7239388,347.764204 13.7518706,347.631377 13.7518706,347.492339 C13.7518706,347.353222 13.745058,347.196986 13.7332423,347.023533 C13.7078866,346.768866 13.6173211,346.572023 13.4608008,346.433752 C13.3042167,346.294694 13.131559,346.150133 12.9437006,346.000187 C12.8430014,345.930628 12.7584183,345.829052 12.6898874,345.696225 C12.6212927,345.563477 12.5553379,345.427132 12.4927255,345.288467 C12.4300919,345.138069 12.3733767,344.970158 12.3234742,344.78497 C12.2980332,344.761935 12.2608618,344.721328 12.2100438,344.663504 C12.1728724,344.605699 12.1288883,344.527532 12.0789006,344.429101 C12.0289981,344.331063 11.9731132,344.189253 11.9105008,344.004145 C11.8470369,343.818977 11.8064591,343.654132 11.7878308,343.50963 C11.7683722,343.365069 11.7716934,343.240458 11.7971556,343.136582 C11.8097803,343.009278 11.8411397,342.899487 11.8910422,342.806893 C11.8910422,342.401827 11.9155677,341.997135 11.9663857,341.59207 C12.0162882,341.256543 12.0983592,340.892084 12.2100438,340.498772 C12.3234742,340.105441 12.5045199,339.752735 12.7558422,339.440165 C12.9817875,339.151102 13.2254669,338.91096 13.4886688,338.720309 C13.7518706,338.529303 14.0243121,338.381657 14.3069726,338.277703 C14.5879086,338.173434 14.8738902,338.101183 15.1616388,338.060576 C15.4493874,338.020343 15.7252352,338 15.9891822,338 C16.2769308,338.023035 16.5121796,338.055053 16.6932254,338.095286 C16.8751866,338.135893 17.022382,338.185187 17.1349821,338.242992 C17.2483486,338.300817 17.3448112,338.370296 17.4268822,338.451136 C17.5081441,338.531976 17.5927911,338.613288 17.6807805,338.694129 L18.037869,338.694129 C18.1504052,338.694129 18.2604292,338.708575 18.3661954,338.737428 C18.4728131,338.76638 18.5794308,338.821433 18.6860485,338.902273 C18.7926663,338.983191 18.9086726,339.099214 19.0339187,339.249534 C19.3223911,339.596421 19.5347963,339.975306 19.6727521,340.386288 C19.8106441,340.796817 19.9113433,341.186985 19.973977,341.557281 C20.0365894,341.985382 20.073846,342.407665 20.0865771,342.824091 C20.1111025,342.881915 20.130476,342.951474 20.1423768,343.032314 C20.1551079,343.113547 20.1644114,343.211585 20.1711602,343.327607 C20.1770574,343.443217 20.1677326,343.587719 20.1423768,343.761153 C20.1178513,343.992784 20.0797644,344.174827 20.0298619,344.308027 C19.9798742,344.440854 19.9232442,344.542057 19.8606318,344.611537 C19.7979981,344.692377 19.7294034,344.750181 19.6541238,344.78497 C19.6041574,344.970158 19.5475274,345.138069 19.4848937,345.288467 C19.4222814,345.427132 19.3562414,345.563477 19.2877106,345.696304 C19.2183707,345.829131 19.1337025,345.930628 19.0339187,346.000187 C18.8205981,346.161887 18.6454495,346.297858 18.5075788,346.408024 C18.3696017,346.517363 18.2756299,346.705617 18.2257487,346.971251 C18.1876618,347.133796 18.1758461,347.295477 18.1876618,347.457177 C18.2003716,347.619722 18.2476981,347.784547 18.3289388,347.951691 C18.4102007,348.11968 18.5421742,348.278983 18.7233051,348.429008 C18.9052663,348.579799 19.1590795,348.712626 19.4848937,348.828255 C19.7734727,348.932897 21.0898982,349.028262 21.434362,349.11494 C21.7787407,349.201696 22.1104734,349.300127 22.4303053,349.409447 C22.7501584,349.519632 23.0353097,349.661048 23.2858018,349.835249 C23.5362725,350.008604 23.7115062,350.233651 23.8121203,350.511806 Z M16.7778936,349.939124 C16.8159805,349.869566 16.8193868,349.796941 16.7880274,349.721939 C16.755859,349.646916 16.7092776,349.574292 16.6467504,349.504734 C16.5841168,349.436021 16.5087733,349.360232 16.4207839,349.279765 L15.5559838,349.279765 C15.468846,349.360232 15.40023,349.436021 15.3494972,349.504734 C15.2995946,349.562617 15.2589317,349.626652 15.2275936,349.696211 C15.1963194,349.76569 15.1988102,349.828959 15.2368971,349.886764 C15.3240562,350.048542 15.40023,350.190725 15.4628424,350.311799 C15.525476,350.433639 15.5939856,350.529004 15.6693503,350.598483 C15.6439733,350.702359 15.6067167,350.850006 15.5559838,351.040638 C15.5068477,351.232055 15.4595212,351.428132 15.415452,351.631284 C15.3714466,351.83359 15.3342752,352.024222 15.3021068,352.203886 C15.2716628,352.382765 15.2555254,352.518737 15.2555254,352.610957 C15.2555254,352.669528 15.2834785,352.738241 15.3401937,352.819553 C15.3968237,352.900786 15.4628424,352.984398 15.5373556,353.071075 C15.6126139,353.157832 15.6912998,353.230456 15.7725405,353.28828 C15.8538024,353.346085 15.9265698,353.374958 15.9891822,353.374958 C16.0517946,353.374958 16.1262226,353.346085 16.2142972,353.28828 C16.3022866,353.230456 16.3869549,353.164043 16.4681104,353.088273 C16.549351,353.013271 16.6187973,352.932037 16.6745971,352.845281 C16.7313122,352.758604 16.7592653,352.686726 16.7592653,352.628921 C16.7592653,352.559363 16.740637,352.440668 16.7033804,352.2726 C16.6652936,352.105455 16.6247158,351.917202 16.5807104,351.709372 C16.5375567,351.500756 16.490145,351.298449 16.4394122,351.101607 C16.390276,350.904744 16.3462707,350.748508 16.3081838,350.632801 C16.3835273,350.575075 16.4554644,350.491463 16.5239953,350.381278 C16.5934416,350.271958 16.6780034,350.124233 16.7778936,349.939124 Z" id="icon_zhuli_selected"></path>
            </g>
        </g>
    </g>
</svg>