<?xml version="1.0" encoding="UTF-8"?>
<svg width="16px" height="16px" viewBox="0 0 16 16" version="1.1" xmlns="http://www.w3.org/2000/svg" xmlns:xlink="http://www.w3.org/1999/xlink">
    <!-- Generator: Sketch 57 (83077) - https://sketch.com -->
    <title>icon_zhuli_default</title>
    <desc>Created with Sketch.</desc>
    <g id="其他" stroke="none" stroke-width="1" fill="none" fill-rule="evenodd" fill-opacity="0.8">
        <g id="我的能力" transform="translate(-310.000000, -587.000000)" fill="#294791">
            <g id="编组-5" transform="translate(256.000000, 195.000000)">
                <path d="M69.8121203,404.511806 C69.8620229,404.673506 69.9060921,404.878957 69.9432848,405.127394 C69.9813717,405.376616 70,405.628139 70,405.882806 C70,406.136706 69.9780293,406.37732 69.9340452,406.602348 C69.889976,406.828162 69.8248514,406.999217 69.736862,407.114847 C69.6742496,407.195294 69.5143231,407.273461 69.2571036,407.349151 C69.0006292,407.424174 68.677391,407.493732 68.289007,407.557001 C67.9005591,407.621016 66.4682123,407.681219 65.9926053,407.739024 C65.516168,407.796848 65.0398159,407.846064 64.5642088,407.88667 C64.0877715,407.927277 63.6240653,407.956229 63.173069,407.973427 C62.7220087,407.990625 62.3277275,408 61.9891822,408 C61.650722,408 61.2589317,407.988246 60.8138538,407.964838 C60.3696062,407.94133 59.9117972,407.913244 59.4420874,407.878081 C58.9716537,407.843685 58.5045199,407.803059 58.041644,407.756988 C57.5779378,407.71017 56.1548945,407.658577 55.7731741,407.600752 C55.3907086,407.542948 55.0648944,407.487442 54.7950289,407.435908 C54.5259086,407.383547 54.3599997,407.328887 54.2973873,407.271083 C54.1840421,407.189849 54.096883,406.932037 54.033419,406.498394 C53.9708067,406.064849 53.9961624,405.500756 54.1095928,404.806254 C54.1722264,404.413296 54.3448628,404.112578 54.6257988,403.903962 C54.9083741,403.696211 55.2333793,403.531366 55.6039441,403.409447 C55.9729333,403.288374 57.3621264,403.181354 57.7683722,403.088367 C58.1761935,402.996245 58.529897,402.857128 58.8311857,402.672019 C59.0689466,402.533728 59.254229,402.400154 59.3854574,402.272772 C59.5166006,402.145409 59.6114026,402.018871 59.6672236,401.891508 C59.7239388,401.764204 59.7518706,401.631377 59.7518706,401.492339 C59.7518706,401.353222 59.745058,401.196986 59.7332423,401.023533 C59.7078866,400.768866 59.6173211,400.572023 59.4608008,400.433752 C59.3042167,400.294694 59.131559,400.150133 58.9437006,400.000187 C58.8430014,399.930628 58.7584183,399.829052 58.6898874,399.696225 C58.6212927,399.563477 58.5553379,399.427132 58.4927255,399.288467 C58.4300919,399.138069 58.3733767,398.970158 58.3234742,398.78497 C58.2980332,398.761935 58.2608618,398.721328 58.2100438,398.663504 C58.1728724,398.605699 58.1288883,398.527532 58.0789006,398.429101 C58.0289981,398.331063 57.9731132,398.189253 57.9105008,398.004145 C57.8470369,397.818977 57.8064591,397.654132 57.7878308,397.50963 C57.7683722,397.365069 57.7716934,397.240458 57.7971556,397.136582 C57.8097803,397.009278 57.8411397,396.899487 57.8910422,396.806893 C57.8910422,396.401827 57.9155677,395.997135 57.9663857,395.59207 C58.0162882,395.256543 58.0983592,394.892084 58.2100438,394.498772 C58.3234742,394.105441 58.5045199,393.752735 58.7558422,393.440165 C58.9817875,393.151102 59.2254669,392.91096 59.4886688,392.720309 C59.7518706,392.529303 60.0243121,392.381657 60.3069726,392.277703 C60.5879086,392.173434 60.8738902,392.101183 61.1616388,392.060576 C61.4493874,392.020343 61.7252352,392 61.9891822,392 C62.2769308,392.023035 62.5121796,392.055053 62.6932254,392.095286 C62.8751866,392.135893 63.022382,392.185187 63.1349821,392.242992 C63.2483486,392.300817 63.3448112,392.370296 63.4268822,392.451136 C63.5081441,392.531976 63.5927911,392.613288 63.6807805,392.694129 L64.037869,392.694129 C64.1504052,392.694129 64.2604292,392.708575 64.3661954,392.737428 C64.4728131,392.76638 64.5794308,392.821433 64.6860485,392.902273 C64.7926663,392.983191 64.9086726,393.099214 65.0339187,393.249534 C65.3223911,393.596421 65.5347963,393.975306 65.6727521,394.386288 C65.8106441,394.796817 65.9113433,395.186985 65.973977,395.557281 C66.0365894,395.985382 66.073846,396.407665 66.0865771,396.824091 C66.1111025,396.881915 66.130476,396.951474 66.1423768,397.032314 C66.1551079,397.113547 66.1644114,397.211585 66.1711602,397.327607 C66.1770574,397.443217 66.1677326,397.587719 66.1423768,397.761153 C66.1178513,397.992784 66.0797644,398.174827 66.0298619,398.308027 C65.9798742,398.440854 65.9232442,398.542057 65.8606318,398.611537 C65.7979981,398.692377 65.7294034,398.750181 65.6541238,398.78497 C65.6041574,398.970158 65.5475274,399.138069 65.4848937,399.288467 C65.4222814,399.427132 65.3562414,399.563477 65.2877106,399.696304 C65.2183707,399.829131 65.1337025,399.930628 65.0339187,400.000187 C64.8205981,400.161887 64.6454495,400.297858 64.5075788,400.408024 C64.3696017,400.517363 64.2756299,400.705617 64.2257487,400.971251 C64.1876618,401.133796 64.1758461,401.295477 64.1876618,401.457177 C64.2003716,401.619722 64.2476981,401.784547 64.3289388,401.951691 C64.4102007,402.11968 64.5421742,402.278983 64.7233051,402.429008 C64.9052663,402.579799 65.1590795,402.712626 65.4848937,402.828255 C65.7734727,402.932897 67.0898982,403.028262 67.434362,403.11494 C67.7787407,403.201696 68.1104734,403.300127 68.4303053,403.409447 C68.7501584,403.519632 69.0353097,403.661048 69.2858018,403.835249 C69.5362725,404.008604 69.7115062,404.233651 69.8121203,404.511806 Z M62.7778936,403.939124 C62.8159805,403.869566 62.8193868,403.796941 62.7880274,403.721939 C62.755859,403.646916 62.7092776,403.574292 62.6467504,403.504734 C62.5841168,403.436021 62.5087733,403.360232 62.4207839,403.279765 L61.5559838,403.279765 C61.468846,403.360232 61.40023,403.436021 61.3494972,403.504734 C61.2995946,403.562617 61.2589317,403.626652 61.2275936,403.696211 C61.1963194,403.76569 61.1988102,403.828959 61.2368971,403.886764 C61.3240562,404.048542 61.40023,404.190725 61.4628424,404.311799 C61.525476,404.433639 61.5939856,404.529004 61.6693503,404.598483 C61.6439733,404.702359 61.6067167,404.850006 61.5559838,405.040638 C61.5068477,405.232055 61.4595212,405.428132 61.415452,405.631284 C61.3714466,405.83359 61.3342752,406.024222 61.3021068,406.203886 C61.2716628,406.382765 61.2555254,406.518737 61.2555254,406.610957 C61.2555254,406.669528 61.2834785,406.738241 61.3401937,406.819553 C61.3968237,406.900786 61.4628424,406.984398 61.5373556,407.071075 C61.6126139,407.157832 61.6912998,407.230456 61.7725405,407.28828 C61.8538024,407.346085 61.9265698,407.374958 61.9891822,407.374958 C62.0517946,407.374958 62.1262226,407.346085 62.2142972,407.28828 C62.3022866,407.230456 62.3869549,407.164043 62.4681104,407.088273 C62.549351,407.013271 62.6187973,406.932037 62.6745971,406.845281 C62.7313122,406.758604 62.7592653,406.686726 62.7592653,406.628921 C62.7592653,406.559363 62.740637,406.440668 62.7033804,406.2726 C62.6652936,406.105455 62.6247158,405.917202 62.5807104,405.709372 C62.5375567,405.500756 62.490145,405.298449 62.4394122,405.101607 C62.390276,404.904744 62.3462707,404.748508 62.3081838,404.632801 C62.3835273,404.575075 62.4554644,404.491463 62.5239953,404.381278 C62.5934416,404.271958 62.6780034,404.124233 62.7778936,403.939124 Z" id="icon_zhuli_default"></path>
            </g>
        </g>
    </g>
</svg>