<?xml version="1.0" encoding="UTF-8"?>
<svg width="16px" height="16px" viewBox="0 0 16 16" version="1.1" xmlns="http://www.w3.org/2000/svg" xmlns:xlink="http://www.w3.org/1999/xlink">
    <!-- Generator: Sketch 57 (83077) - https://sketch.com -->
    <title>icon_zhongji_default</title>
    <desc>Created with Sketch.</desc>
    <g id="其他" stroke="none" stroke-width="1" fill="none" fill-rule="evenodd" fill-opacity="0.8">
        <g id="我的能力" transform="translate(-310.000000, -427.000000)" fill="#294791">
            <g id="编组-5" transform="translate(256.000000, 195.000000)">
                <path d="M64.075062,238.312723 C64.04198,238.422195 63.9894438,238.524813 63.9197801,238.615692 C63.8720537,238.688016 63.8075907,238.747743 63.7317486,238.789872 C63.691667,238.96077 63.6400302,239.128681 63.5774051,239.292646 C63.5189642,239.430126 63.4605429,239.566005 63.3981525,239.699443 C63.346066,239.817236 63.2667826,239.921084 63.1668915,240.002412 C62.9724274,240.162237 62.8132742,240.298955 62.6867923,240.410049 C62.5397613,240.561866 62.4489619,240.759249 62.4291753,240.969503 C62.3948811,241.129113 62.3828175,241.292609 62.3931996,241.4555 C62.4061821,241.626477 62.4503305,241.793567 62.5235723,241.948664 C62.5562632,242.017942 62.5953672,242.084094 62.6404345,242.146106 C61.4982463,244.003647 61.9194548,246.420115 63.6230004,247.782636 C63.3268854,247.817812 63.0301058,247.855351 62.7339908,247.882519 C62.2995651,247.923262 61.8763036,247.952852 61.4634242,247.968867 C61.0505252,247.984824 60.6904948,247.996035 60.3816515,247.996035 C60.0727887,247.996035 59.7135208,247.984824 59.3078952,247.960019 C58.9021914,247.935312 58.4837201,247.908066 58.0556487,247.87373 C57.6276361,247.839336 57.1995648,247.799433 56.7754429,247.753808 C56.3514189,247.708261 55.9641135,247.656308 55.6169092,247.593964 C55.2696462,247.53164 54.9695623,247.480527 54.7230899,247.428554 C54.5605737,247.410019 54.4046075,247.353632 54.2678217,247.263847 C54.1121683,247.036327 54.0285444,246.767401 54.0278601,246.491756 C53.97462,245.928005 53.9977696,245.359704 54.0965854,244.802066 C54.1317985,244.452632 54.3006691,244.130288 54.5679057,243.902104 C54.8354356,243.68771 55.137729,243.52062 55.4616468,243.408178 C55.7976869,243.288236 56.1537482,243.180365 56.5258618,243.088432 C56.8710717,243.006947 57.1994866,242.866029 57.4963445,242.672005 C57.6801918,242.558861 57.8501182,242.424739 58.0028584,242.272376 C58.1109418,242.162063 58.1981632,242.033118 58.2604754,241.891907 C58.312953,241.765188 58.3401302,241.629367 58.3405213,241.492277 C58.3405213,241.354035 58.3333457,241.198156 58.3221229,241.023898 C58.3146344,240.803878 58.2259662,240.594366 58.0732846,240.435596 C57.9196255,240.287217 57.7619778,240.143018 57.6003806,240.003252 C57.5001766,239.922373 57.4210497,239.818388 57.3699408,239.700283 C57.3067879,239.566162 57.2470566,239.430497 57.1906882,239.293485 C57.1282977,239.129442 57.0766609,238.961454 57.0363447,238.790711 C56.9994501,238.752332 56.9649995,238.711746 56.9330907,238.669246 C56.8894702,238.591414 56.8499165,238.511395 56.8147033,238.429441 C56.7542877,238.290984 56.7024358,238.148992 56.659441,238.004187 C56.607726,237.843445 56.5702252,237.678405 56.5473885,237.511022 C56.5289119,237.387038 56.5318838,237.260788 56.5562456,237.137799 C56.5645747,237.023502 56.5935899,236.911666 56.6418637,236.807662 C56.6414922,236.401705 56.6647005,235.99606 56.7114493,235.592758 C56.7639855,235.224574 56.8379898,234.85973 56.9330907,234.500159 C57.0305378,234.118616 57.1999363,233.759104 57.4323508,233.441115 C57.6203041,233.170509 57.8460709,232.928263 58.1028473,232.721739 C58.3286923,232.538028 58.5808739,232.389336 58.8510042,232.280528 C59.1018368,232.178379 59.3635597,232.10543 59.6311092,232.063164 C59.8804753,232.021523 60.1328133,232.000391 60.3856206,232 C60.601064,232.015645 60.8150605,232.047461 61.0257919,232.095137 C61.164787,232.126953 61.2992852,232.176387 61.4258452,232.242149 C61.5252867,232.296621 61.6152454,232.366817 61.6922411,232.449981 C61.7666951,232.529942 61.8450595,232.609825 61.9258679,232.689766 L62.2531291,232.689766 C62.3547799,232.689239 62.4559028,232.703731 62.5532131,232.73295 C62.6602212,232.768048 62.7592716,232.823966 62.8444205,232.897599 C62.962886,233.001818 63.0701873,233.118009 63.1645257,233.244513 C63.4248018,233.58508 63.6220814,233.969456 63.7470382,234.379456 C63.8659534,234.762601 63.9579064,235.153617 64.022213,235.549575 C64.0794807,235.968892 64.1139313,236.391021 64.125467,236.814068 C64.1502981,236.881217 64.1674647,236.950944 64.1766346,237.021901 C64.1878574,237.101784 64.1974966,237.200885 64.2038314,237.316022 C64.2079569,237.460671 64.1988652,237.605397 64.1766346,237.748445 C64.1636521,237.939714 64.1295925,238.128933 64.075062,238.312723 Z M60.9801185,243.508041 C60.9217753,243.440893 60.8545556,243.363393 60.7745097,243.284272 L59.9855673,243.284272 C59.9159817,243.352787 59.8530439,243.427709 59.7975358,243.508041 C59.7519405,243.567084 59.7142834,243.63187 59.6855615,243.700678 C59.6551581,243.761342 59.6585211,243.833354 59.6943403,243.890874 C59.7743862,244.050796 59.8439717,244.193843 59.8999491,244.316148 C59.9463069,244.421734 60.0101637,244.518707 60.0888213,244.603082 C60.0663756,244.707769 60.0304,244.854859 59.9855673,245.044293 C59.9408128,245.233727 59.8975833,245.43111 59.8575604,245.634958 C59.8175374,245.838747 59.7839276,246.029021 59.754365,246.207244 C59.7313914,246.342049 59.7171771,246.47824 59.7119176,246.614881 C59.7179396,246.690409 59.7457425,246.762596 59.7919439,246.822713 C59.8439717,246.902596 59.9039963,246.988124 59.9711965,247.073651 C60.0348969,247.153671 60.1070829,247.226542 60.1864249,247.291073 C60.2405057,247.340976 60.3098566,247.371425 60.3832548,247.377363 C60.4591556,247.369823 60.5310287,247.339765 60.5896847,247.291073 C60.6716467,247.230956 60.7487011,247.164433 60.820105,247.09203 C60.8925842,247.019999 60.9559913,246.93951 61.0089185,246.852245 C61.0540445,246.787928 61.0816128,246.713006 61.0889448,246.634881 C61.0815346,246.51533 61.0641334,246.3966 61.0369365,246.279959 C61.0017234,246.112947 60.9657673,245.925115 60.9249036,245.716443 C60.8841182,245.507868 60.844936,245.307204 60.7952935,245.110602 C60.7457292,244.913981 60.710516,244.757359 60.6744622,244.642222 C60.7546644,244.571129 60.8213367,244.48605 60.8713507,244.391304 C60.9361265,244.277769 61.0145691,244.128316 61.1041563,243.945288 C61.1395845,243.877847 61.1431039,243.7981 61.1137759,243.727846 C61.0800096,243.647963 61.0334954,243.573959 60.9761494,243.508881 L60.9801185,243.508041 Z M66.7999689,242 C67.3860145,242 67.9008508,242 67.9086358,242.000729 C68.1684257,242.010481 68.302218,242.144362 68.410181,242.252065 C68.6714868,242.513078 69.7746964,243.709054 69.8114893,243.747947 C70.0923651,244.062064 70.0305449,244.514586 69.8146189,244.756901 C69.4914537,245.10618 67.0174988,247.743438 67.0174988,247.743438 C66.806238,247.969316 66.6450515,248 66.5026722,248 C66.367315,248 66.1998693,247.969316 65.9878358,247.743438 L63.1781873,244.739698 C62.9348672,244.400899 62.9411265,244.020936 63.1946082,243.749443 C63.340166,243.588645 64.4331749,242.418856 64.5857647,242.252795 C64.7938958,242.026917 64.9824276,242.000729 65.1068603,242.000729 C65.1060584,242.000729 66.0167948,242 66.7999689,242 Z M67.7819145,244.195216 C67.7983452,244.171254 67.8038123,244.171254 67.8218077,244.171254 L68.4493015,244.171254 L68.4493015,244.443513 L68.4351986,244.443513 C68.3162721,244.443513 68.2724962,244.472692 68.2231749,244.534014 C68.2184707,244.540007 68.2130133,244.54672 68.2059814,244.554209 C67.9180345,244.919194 66.806238,246.183981 66.4925106,246.578146 C66.1787442,246.183981 65.0661749,244.919961 64.7821303,244.559472 C64.7743356,244.551217 64.7672645,244.54227 64.7602326,244.533285 C64.7117231,244.472692 64.6671354,244.443513 64.5482089,244.443513 L64.5333431,244.443513 L64.5333431,244.171254 L65.1624115,244.171254 C65.1811698,244.171254 65.1851015,244.171254 65.1983927,244.190719 L66.4893712,245.742696 L67.7819145,244.195216 Z" id="icon_zhongji_default"></path>
            </g>
        </g>
    </g>
</svg>