<?xml version="1.0" encoding="UTF-8"?>
<svg width="16px" height="16px" viewBox="0 0 16 16" version="1.1" xmlns="http://www.w3.org/2000/svg" xmlns:xlink="http://www.w3.org/1999/xlink">
    <!-- Generator: Sketch 57 (83077) - https://sketch.com -->
    <title>icon_gaoji_selected</title>
    <desc>Created with Sketch.</desc>
    <g id="其他" stroke="none" stroke-width="1" fill="none" fill-rule="evenodd">
        <g id="我的能力" transform="translate(-230.000000, -346.000000)" fill="#FFFFFF">
            <g id="编组-6" transform="translate(222.000000, 248.000000)">
                <path d="M18.075062,104.312723 C18.04198,104.422195 17.9894438,104.524813 17.9197801,104.615692 C17.8720537,104.688016 17.8075907,104.747743 17.7317486,104.789872 C17.691667,104.96077 17.6400302,105.128681 17.5774051,105.292646 C17.5189642,105.430126 17.4605429,105.566005 17.3981525,105.699443 C17.346066,105.817236 17.2667826,105.921084 17.1668915,106.002412 C16.9724274,106.162237 16.8132742,106.298955 16.6867923,106.410049 C16.5397613,106.561866 16.4489619,106.759249 16.4291753,106.969503 C16.3948811,107.129113 16.3828175,107.292609 16.3931996,107.4555 C16.4061821,107.626477 16.4503305,107.793567 16.5235723,107.948664 C16.5562632,108.017942 16.5953672,108.084094 16.6404345,108.146106 C15.4982463,110.003647 15.9194548,112.420115 17.6230004,113.782636 C17.3268854,113.817812 17.0301058,113.855351 16.7339908,113.882519 C16.2995651,113.923262 15.8763036,113.952852 15.4634242,113.968867 C15.0505252,113.984824 14.6904948,113.996035 14.3816515,113.996035 C14.0727887,113.996035 13.7135208,113.984824 13.3078952,113.960019 C12.9021914,113.935312 12.4837201,113.908066 12.0556487,113.87373 C11.6276361,113.839336 11.1995648,113.799433 10.7754429,113.753808 C10.3514189,113.708261 9.96411347,113.656308 9.61690919,113.593964 C9.26964625,113.53164 8.96956227,113.480527 8.72308985,113.428554 C8.56057369,113.410019 8.40460745,113.353632 8.26782171,113.263847 C8.1121683,113.036327 8.02854443,112.767401 8.02786011,112.491756 C7.97462003,111.928005 7.99776959,111.359704 8.09658536,110.802066 C8.1317985,110.452632 8.30066906,110.130288 8.56790569,109.902104 C8.8354356,109.68771 9.13772896,109.52062 9.46164682,109.408178 C9.79768691,109.288236 10.1537482,109.180365 10.5258618,109.088432 C10.8710717,109.006947 11.1994866,108.866029 11.4963445,108.672005 C11.6801918,108.558861 11.8501182,108.424739 12.0028584,108.272376 C12.1109418,108.162063 12.1981632,108.033118 12.2604754,107.891907 C12.312953,107.765188 12.3401302,107.629367 12.3405213,107.492277 C12.3405213,107.354035 12.3333457,107.198156 12.3221229,107.023898 C12.3146344,106.803878 12.2259662,106.594366 12.0732846,106.435596 C11.9196255,106.287217 11.7619778,106.143018 11.6003806,106.003252 C11.5001766,105.922373 11.4210497,105.818388 11.3699408,105.700283 C11.3067879,105.566162 11.2470566,105.430497 11.1906882,105.293485 C11.1282977,105.129442 11.0766609,104.961454 11.0363447,104.790711 C10.9994501,104.752332 10.9649995,104.711746 10.9330907,104.669246 C10.8894702,104.591414 10.8499165,104.511395 10.8147033,104.429441 C10.7542877,104.290984 10.7024358,104.148992 10.659441,104.004187 C10.607726,103.843445 10.5702252,103.678405 10.5473885,103.511022 C10.5289119,103.387038 10.5318838,103.260788 10.5562456,103.137799 C10.5645747,103.023502 10.5935899,102.911666 10.6418637,102.807662 C10.6414922,102.401705 10.6647005,101.99606 10.7114493,101.592758 C10.7639855,101.224574 10.8379898,100.85973 10.9330907,100.500159 C11.0305378,100.118616 11.1999363,99.7591037 11.4323508,99.441115 C11.6203041,99.1705092 11.8460709,98.9282629 12.1028473,98.7217392 C12.3286923,98.538028 12.5808739,98.3893364 12.8510042,98.2805277 C13.1018368,98.1783791 13.3635597,98.1054298 13.6311092,98.0631641 C13.8804753,98.0215235 14.1328133,98.0003906 14.3856206,98 C14.601064,98.0156446 14.8150605,98.047461 15.0257919,98.0951368 C15.164787,98.1269533 15.2992852,98.1763869 15.4258452,98.2421487 C15.5252867,98.2966215 15.6152454,98.3668169 15.6922411,98.449981 C15.7666951,98.5299421 15.8450595,98.609825 15.9258679,98.6897665 L16.2531291,98.6897665 C16.3547799,98.6892391 16.4559028,98.7037313 16.5532131,98.7329501 C16.6602212,98.7680478 16.7592716,98.8239658 16.8444205,98.8975988 C16.962886,99.0018176 17.0701873,99.1180092 17.1645257,99.2445132 C17.4248018,99.5850801 17.6220814,99.9694555 17.7470382,100.379456 C17.8659534,100.762601 17.9579064,101.153617 18.022213,101.549575 C18.0794807,101.968892 18.1139313,102.391021 18.125467,102.814068 C18.1502981,102.881217 18.1674647,102.950944 18.1766346,103.021901 C18.1878574,103.101784 18.1974966,103.200885 18.2038314,103.316022 C18.2079569,103.460671 18.1988652,103.605397 18.1766346,103.748445 C18.1636521,103.939714 18.1295925,104.128933 18.075062,104.312723 Z M14.7745097,109.284272 C14.8545556,109.363393 14.9217753,109.440893 14.9801185,109.508041 L14.9801185,109.508041 C15.0334954,109.573959 15.0800096,109.647963 15.1137759,109.727846 C15.1431039,109.7981 15.1395845,109.877847 15.1041563,109.945288 C15.0145691,110.128316 14.9361265,110.277769 14.8713507,110.391304 C14.8213367,110.48605 14.7546644,110.571129 14.6744622,110.642222 C14.710516,110.757359 14.7457292,110.913981 14.7952935,111.110602 C14.844936,111.307204 14.8841182,111.507868 14.9249036,111.716443 C14.9657673,111.925115 15.0017234,112.112947 15.0369365,112.279959 C15.0641334,112.3966 15.0815346,112.51533 15.0889448,112.634881 C15.0816128,112.713006 15.0540445,112.787928 15.0089185,112.852245 C14.9559913,112.93951 14.8925842,113.019999 14.820105,113.09203 C14.7487011,113.164433 14.6716467,113.230956 14.5896847,113.291073 C14.5310287,113.339765 14.4591556,113.369823 14.3832548,113.377363 C14.3098566,113.371425 14.2405057,113.340976 14.1864249,113.291073 C14.1070829,113.226542 14.0348969,113.153671 13.9711965,113.073651 C13.9039963,112.988124 13.8439717,112.902596 13.7919439,112.822713 C13.7457425,112.762596 13.7179396,112.690409 13.7119176,112.614881 C13.7171771,112.47824 13.7313914,112.342049 13.754365,112.207244 C13.7839276,112.029021 13.8175374,111.838747 13.8575604,111.634958 C13.8975833,111.43111 13.9408128,111.233727 13.9855673,111.044293 C14.0304,110.854859 14.0663756,110.707769 14.0888213,110.603082 C14.0101637,110.518707 13.9463069,110.421734 13.8999491,110.316148 C13.8439717,110.193843 13.7743862,110.050796 13.6943403,109.890874 C13.6585211,109.833354 13.6551581,109.761342 13.6855615,109.700678 C13.7142834,109.63187 13.7519405,109.567084 13.7975358,109.508041 C13.8530439,109.427709 13.9159817,109.352787 13.9855673,109.284272 L13.9855673,109.284272 Z M20.5032345,107 C20.6212593,107 20.7220534,107.0655 20.7789416,107.159236 L22.035411,109.690231 L23.5996807,108.272564 L23.5996807,108.277562 C23.6429944,108.235269 23.7011113,108.211734 23.7614782,108.211958 C23.8232366,108.211898 23.8824489,108.236533 23.9261623,108.280418 C23.9698165,108.324289 23.9943304,108.383853 23.994212,108.445917 C23.994212,108.453415 23.9984457,108.44916 24,108.451659 L23.507,112.149 L23.5049855,112.126885 C23.5040529,112.118597 23.5034311,112.110099 23.5046746,112.100132 C23.47495,112.353148 23.3089929,112.559676 23.0829056,112.65597 C22.571963,112.850106 21.608609,112.98853 20.4884314,112.999405 C19.3921459,113.009342 18.4486133,112.894051 17.9343844,112.715699 C17.699963,112.624462 17.5266043,112.409634 17.4960804,112.149998 C17.4969389,112.155695 17.494452,112.158998 17.4953254,112.164874 L17,108.44016 C17.0024869,108.438539 17.0065874,108.441841 17.0065874,108.43354 C17.0067058,108.371357 17.0313973,108.311792 17.0752292,108.267922 C17.1190019,108.224052 17.1783918,108.199461 17.2402094,108.19958 C17.2897552,108.19958 17.3326693,108.218697 17.370654,108.244447 L18.9662617,109.69035 L20.2152112,107.175094 C20.2713,107.06736 20.382323,107 20.5032345,107 Z" id="icon_gaoji_selected"></path>
            </g>
        </g>
    </g>
</svg>