<?xml version="1.0" encoding="UTF-8"?>
<svg width="16px" height="16px" viewBox="0 0 16 16" version="1.1" xmlns="http://www.w3.org/2000/svg" xmlns:xlink="http://www.w3.org/1999/xlink">
    <!-- Generator: Sketch 57 (83077) - https://sketch.com -->
    <title>icon_zhuanjia_default</title>
    <desc>Created with Sketch.</desc>
    <g id="其他" stroke="none" stroke-width="1" fill="none" fill-rule="evenodd" fill-opacity="0.8">
        <g id="我的能力" transform="translate(-310.000000, -267.000000)" fill="#294791">
            <g id="编组-5" transform="translate(256.000000, 195.000000)">
                <path d="M64.3171348,84.0351514 C64.3171348,84.0351514 67.8390136,85.0190393 68.7142051,85.6110908 C69.7436352,86.3079472 70,88 70,88 L70,88 L54,88 C54,88 54.3869675,86.2026736 55.2617241,85.6110908 C56.1365374,85.0195862 59.6584918,84.0351514 59.6584918,84.0351514 L59.6584918,84.0351514 L61.2963109,86.8078306 L61.5988509,86.3991973 L61.210711,85.6110908 L61.987161,84.8232774 L62.7636676,85.6110908 L62.3754521,86.3991973 L62.6779921,86.8078306 Z M59.2962002,77.1668618 C59.5889265,76.8895372 60.9363072,76.8515294 61.4171567,77.1912759 C61.7691809,77.4393816 61.6899343,77.4898114 62.0717209,77.8006321 C62.2918376,77.8006321 62.3891042,77.4234441 62.8836248,77.1912759 C63.4865491,76.9079943 64.6047558,77.0453187 64.822717,77.1303188 C64.971699,77.1883071 65.1915132,77.348737 65.3196767,77.6236397 C65.7036756,78.4476837 65.5524056,79.1900283 65.496795,79.9007909 C65.3725645,81.4870038 64.1265725,84.1292336 62.071286,84.1326548 C60.0159806,84.136089 58.7146048,81.4291131 58.645777,79.9007909 C58.6115711,79.1532509 58.4962655,78.6375081 58.8841218,77.7235812 C58.9918827,77.4696746 59.0844411,77.3670573 59.2962002,77.1668618 Z M57.4972785,76.3643999 L57.4972785,78.3965703 L56.7397562,78.3965703 L56.7397562,76.3643999 L57.4972785,76.3643999 Z M65.2901223,75.1124843 L65.2901223,77.1721938 C65.0112183,76.8938732 64.4195824,76.7018417 63.73068,76.7018417 C62.8484805,76.7018417 62.1237794,77.0162055 62.0161809,77.4218161 L62.0030254,77.5040888 C61.9729794,77.0595179 61.2101248,76.701705 60.271192,76.7015487 C59.6512989,76.7015487 59.1085223,76.8569676 58.8038098,77.0910611 L58.7112769,77.1719008 L58.7112769,75.1124843 L62.0015505,76.4999664 L65.2901223,75.1124843 Z M61.9997164,72 L67.0074906,74.114026 L61.9994138,76.2273684 L57.9337302,74.5107648 L57.7603748,74.4370538 L57.2185257,74.2090847 L57.2185257,76.1841848 L57.0185846,76.1841848 L57.0185846,74.1250221 L56.9925094,74.114026 L57.0185846,74.1031276 L57.0185846,74.0971705 L57.0326149,74.0971705 L61.9997164,72 Z" id="icon_zhuanjia_default"></path>
            </g>
        </g>
    </g>
</svg>