<?xml version="1.0" encoding="UTF-8"?>
<svg width="16px" height="16px" viewBox="0 0 16 16" version="1.1" xmlns="http://www.w3.org/2000/svg" xmlns:xlink="http://www.w3.org/1999/xlink">
    <!-- Generator: Sketch 57 (83077) - https://sketch.com -->
    <title>icon_gaoji_default</title>
    <desc>Created with Sketch.</desc>
    <g id="其他" stroke="none" stroke-width="1" fill="none" fill-rule="evenodd" fill-opacity="0.8">
        <g id="我的能力" transform="translate(-310.000000, -347.000000)" fill="#294791">
            <g id="编组-5" transform="translate(256.000000, 195.000000)">
                <path d="M64.075062,158.312723 C64.04198,158.422195 63.9894438,158.524813 63.9197801,158.615692 C63.8720537,158.688016 63.8075907,158.747743 63.7317486,158.789872 C63.691667,158.96077 63.6400302,159.128681 63.5774051,159.292646 C63.5189642,159.430126 63.4605429,159.566005 63.3981525,159.699443 C63.346066,159.817236 63.2667826,159.921084 63.1668915,160.002412 C62.9724274,160.162237 62.8132742,160.298955 62.6867923,160.410049 C62.5397613,160.561866 62.4489619,160.759249 62.4291753,160.969503 C62.3948811,161.129113 62.3828175,161.292609 62.3931996,161.4555 C62.4061821,161.626477 62.4503305,161.793567 62.5235723,161.948664 C62.5562632,162.017942 62.5953672,162.084094 62.6404345,162.146106 C61.4982463,164.003647 61.9194548,166.420115 63.6230004,167.782636 C63.3268854,167.817812 63.0301058,167.855351 62.7339908,167.882519 C62.2995651,167.923262 61.8763036,167.952852 61.4634242,167.968867 C61.0505252,167.984824 60.6904948,167.996035 60.3816515,167.996035 C60.0727887,167.996035 59.7135208,167.984824 59.3078952,167.960019 C58.9021914,167.935312 58.4837201,167.908066 58.0556487,167.87373 C57.6276361,167.839336 57.1995648,167.799433 56.7754429,167.753808 C56.3514189,167.708261 55.9641135,167.656308 55.6169092,167.593964 C55.2696462,167.53164 54.9695623,167.480527 54.7230899,167.428554 C54.5605737,167.410019 54.4046075,167.353632 54.2678217,167.263847 C54.1121683,167.036327 54.0285444,166.767401 54.0278601,166.491756 C53.97462,165.928005 53.9977696,165.359704 54.0965854,164.802066 C54.1317985,164.452632 54.3006691,164.130288 54.5679057,163.902104 C54.8354356,163.68771 55.137729,163.52062 55.4616468,163.408178 C55.7976869,163.288236 56.1537482,163.180365 56.5258618,163.088432 C56.8710717,163.006947 57.1994866,162.866029 57.4963445,162.672005 C57.6801918,162.558861 57.8501182,162.424739 58.0028584,162.272376 C58.1109418,162.162063 58.1981632,162.033118 58.2604754,161.891907 C58.312953,161.765188 58.3401302,161.629367 58.3405213,161.492277 C58.3405213,161.354035 58.3333457,161.198156 58.3221229,161.023898 C58.3146344,160.803878 58.2259662,160.594366 58.0732846,160.435596 C57.9196255,160.287217 57.7619778,160.143018 57.6003806,160.003252 C57.5001766,159.922373 57.4210497,159.818388 57.3699408,159.700283 C57.3067879,159.566162 57.2470566,159.430497 57.1906882,159.293485 C57.1282977,159.129442 57.0766609,158.961454 57.0363447,158.790711 C56.9994501,158.752332 56.9649995,158.711746 56.9330907,158.669246 C56.8894702,158.591414 56.8499165,158.511395 56.8147033,158.429441 C56.7542877,158.290984 56.7024358,158.148992 56.659441,158.004187 C56.607726,157.843445 56.5702252,157.678405 56.5473885,157.511022 C56.5289119,157.387038 56.5318838,157.260788 56.5562456,157.137799 C56.5645747,157.023502 56.5935899,156.911666 56.6418637,156.807662 C56.6414922,156.401705 56.6647005,155.99606 56.7114493,155.592758 C56.7639855,155.224574 56.8379898,154.85973 56.9330907,154.500159 C57.0305378,154.118616 57.1999363,153.759104 57.4323508,153.441115 C57.6203041,153.170509 57.8460709,152.928263 58.1028473,152.721739 C58.3286923,152.538028 58.5808739,152.389336 58.8510042,152.280528 C59.1018368,152.178379 59.3635597,152.10543 59.6311092,152.063164 C59.8804753,152.021523 60.1328133,152.000391 60.3856206,152 C60.601064,152.015645 60.8150605,152.047461 61.0257919,152.095137 C61.164787,152.126953 61.2992852,152.176387 61.4258452,152.242149 C61.5252867,152.296621 61.6152454,152.366817 61.6922411,152.449981 C61.7666951,152.529942 61.8450595,152.609825 61.9258679,152.689766 L62.2531291,152.689766 C62.3547799,152.689239 62.4559028,152.703731 62.5532131,152.73295 C62.6602212,152.768048 62.7592716,152.823966 62.8444205,152.897599 C62.962886,153.001818 63.0701873,153.118009 63.1645257,153.244513 C63.4248018,153.58508 63.6220814,153.969456 63.7470382,154.379456 C63.8659534,154.762601 63.9579064,155.153617 64.022213,155.549575 C64.0794807,155.968892 64.1139313,156.391021 64.125467,156.814068 C64.1502981,156.881217 64.1674647,156.950944 64.1766346,157.021901 C64.1878574,157.101784 64.1974966,157.200885 64.2038314,157.316022 C64.2079569,157.460671 64.1988652,157.605397 64.1766346,157.748445 C64.1636521,157.939714 64.1295925,158.128933 64.075062,158.312723 Z M60.7745097,163.284272 C60.8545556,163.363393 60.9217753,163.440893 60.9801185,163.508041 L60.9801185,163.508041 C61.0334954,163.573959 61.0800096,163.647963 61.1137759,163.727846 C61.1431039,163.7981 61.1395845,163.877847 61.1041563,163.945288 C61.0145691,164.128316 60.9361265,164.277769 60.8713507,164.391304 C60.8213367,164.48605 60.7546644,164.571129 60.6744622,164.642222 C60.710516,164.757359 60.7457292,164.913981 60.7952935,165.110602 C60.844936,165.307204 60.8841182,165.507868 60.9249036,165.716443 C60.9657673,165.925115 61.0017234,166.112947 61.0369365,166.279959 C61.0641334,166.3966 61.0815346,166.51533 61.0889448,166.634881 C61.0816128,166.713006 61.0540445,166.787928 61.0089185,166.852245 C60.9559913,166.93951 60.8925842,167.019999 60.820105,167.09203 C60.7487011,167.164433 60.6716467,167.230956 60.5896847,167.291073 C60.5310287,167.339765 60.4591556,167.369823 60.3832548,167.377363 C60.3098566,167.371425 60.2405057,167.340976 60.1864249,167.291073 C60.1070829,167.226542 60.0348969,167.153671 59.9711965,167.073651 C59.9039963,166.988124 59.8439717,166.902596 59.7919439,166.822713 C59.7457425,166.762596 59.7179396,166.690409 59.7119176,166.614881 C59.7171771,166.47824 59.7313914,166.342049 59.754365,166.207244 C59.7839276,166.029021 59.8175374,165.838747 59.8575604,165.634958 C59.8975833,165.43111 59.9408128,165.233727 59.9855673,165.044293 C60.0304,164.854859 60.0663756,164.707769 60.0888213,164.603082 C60.0101637,164.518707 59.9463069,164.421734 59.8999491,164.316148 C59.8439717,164.193843 59.7743862,164.050796 59.6943403,163.890874 C59.6585211,163.833354 59.6551581,163.761342 59.6855615,163.700678 C59.7142834,163.63187 59.7519405,163.567084 59.7975358,163.508041 C59.8530439,163.427709 59.9159817,163.352787 59.9855673,163.284272 L59.9855673,163.284272 Z M66.5032345,161 C66.6212593,161 66.7220534,161.0655 66.7789416,161.159236 L68.035411,163.690231 L69.5996807,162.272564 L69.5996807,162.277562 C69.6429944,162.235269 69.7011113,162.211734 69.7614782,162.211958 C69.8232366,162.211898 69.8824489,162.236533 69.9261623,162.280418 C69.9698165,162.324289 69.9943304,162.383853 69.994212,162.445917 C69.994212,162.453415 69.9984457,162.44916 70,162.451659 L69.507,166.149 L69.5049855,166.126885 C69.5040529,166.118597 69.5034311,166.110099 69.5046746,166.100132 C69.47495,166.353148 69.3089929,166.559676 69.0829056,166.65597 C68.571963,166.850106 67.608609,166.98853 66.4884314,166.999405 C65.3921459,167.009342 64.4486133,166.894051 63.9343844,166.715699 C63.699963,166.624462 63.5266043,166.409634 63.4960804,166.149998 C63.4969389,166.155695 63.494452,166.158998 63.4953254,166.164874 L63,162.44016 C63.0024869,162.438539 63.0065874,162.441841 63.0065874,162.43354 C63.0067058,162.371357 63.0313973,162.311792 63.0752292,162.267922 C63.1190019,162.224052 63.1783918,162.199461 63.2402094,162.19958 C63.2897552,162.19958 63.3326693,162.218697 63.370654,162.244447 L64.9662617,163.69035 L66.2152112,161.175094 C66.2713,161.06736 66.382323,161 66.5032345,161 Z" id="icon_gaoji_default"></path>
            </g>
        </g>
    </g>
</svg>