<?xml version="1.0" encoding="utf-8"?>
<!-- Generator: Adobe Illustrator 22.0.0, SVG Export Plug-In . SVG Version: 6.00 Build 0)  -->
<svg version="1.1" id="图层_1" xmlns="http://www.w3.org/2000/svg" xmlns:xlink="http://www.w3.org/1999/xlink" x="0px" y="0px"
	 viewBox="0 0 320 208" style="enable-background:new 0 0 320 208;" xml:space="preserve">
<style type="text/css">
	.st0{fill:#FFFFFF;}
	.st1{fill:#EAF0FF;}
	.st2{font-family:'MicrosoftYaHeiLight';}
	.st3{font-size:49.8943px;}
</style>
<g>
	<path class="st0" d="M58.7,74H27.2c-3.8,0-7,3.1-7,7V129c0,3.8,3.1,7,7,7h31.5c3.8,0,7-3.1,7-7V81C65.7,77.1,62.5,74,58.7,74z
		 M27.2,78.6h31.5c1.3,0,2.3,1,2.3,2.3v37.2H24.9V81C24.9,79.7,25.9,78.6,27.2,78.6L27.2,78.6z M58.7,131.4H27.2
		c-1.3,0-2.3-1-2.3-2.3v-6.2H61v6.2C61,130.3,60,131.4,58.7,131.4L58.7,131.4z"/>
	<path class="st0" d="M32.8,86.3h20.5c1.3,0,2.3-1,2.3-2.3s-1-2.3-2.3-2.3H32.8c-1.3,0-2.3,1-2.3,2.3C30.5,85.3,31.5,86.3,32.8,86.3
		z"/>
	<path class="st0" d="M39.9,127.1c0,1.7,1.4,3.1,3.1,3.1s3.1-1.4,3.1-3.1c0-1.7-1.4-3.1-3.1-3.1C41.3,124,39.9,125.4,39.9,127.1z"/>
</g>
<text transform="matrix(1 0 0 1 91.3739 121.1421)" class="st1 st2 st3">APP下载</text>
</svg>
