<?xml version="1.0" encoding="UTF-8"?>
<svg width="134px" height="50px" viewBox="0 0 134 50" version="1.1" xmlns="http://www.w3.org/2000/svg" xmlns:xlink="http://www.w3.org/1999/xlink">
    <!-- Generator: Sketch 52.4 (67378) - http://www.bohemiancoding.com/sketch -->
    <title>文字+icon</title>
    <desc>Created with Sketch.</desc>
    <g id="页面" stroke="none" stroke-width="1" fill="none" fill-rule="evenodd">
        <g id="1.0个人工作台" transform="translate(-1066.000000, 0.000000)">
            <g id="top" transform="translate(220.000000, 0.000000)">
                <g id="分组-20" transform="translate(846.000000, 0.000000)">
                    <g id="shanxiyidongduankaoqinjiankongzhishikushouye03-copy" transform="translate(0.000000, 17.000000)" fill="#FFFFFF">
                        <path d="M16,3.99996014 C16,3.29710188 15.5222551,2.69598485 14.8365864,2.53826138 L8.33259998,1.03654024 C8.22282335,1.01254466 8.11199761,1 7.9999442,1 C7.88800239,1 7.77708736,1.01254466 7.66286877,1.0377456 L1.16341356,2.53826138 C0.477722548,2.69598485 0,3.29710188 0,3.99996014 C0,4.70284073 0.477722548,5.30516311 1.16341356,5.46177051 L2.50059919,5.77148082 L2.50059919,9.99999203 C2.50059919,11.3269138 4.01829797,12.500621 8.00117187,12.500621 C11.9839788,12.500621 13.5016553,11.3280299 13.5016553,9.99999203 L13.5016553,5.77148082 L14.8388409,5.46177051 C15.5222551,5.30516311 16,4.70284073 16,3.99996014 Z M12.5005852,9.99999203 C12.5005852,10.5520242 11.000007,11.5005971 7.9999442,11.5005971 C4.99999302,11.5005971 3.50053083,10.5520242 3.50053083,9.99999203 L3.50053083,6.00114637 L7.66740002,6.96454076 C7.77708736,6.9874649 7.88800239,7.00003189 7.9999442,7.00003189 C8.11199761,7.00003189 8.22282335,6.9874649 8.33713123,6.96226397 L12.5005852,6.00114637 L12.5005852,9.99999203 Z M8.11427439,5.98744099 C8.0753682,5.99661511 8.037712,6.00114637 7.9999442,6.00114637 C7.962288,6.00114637 7.92454252,5.99661511 7.88572561,5.98744099 L1.38854717,4.48799663 C1.16115909,4.43540726 1.00002093,4.23313015 1.00002093,3.99996014 C1.00002093,3.76804013 1.16115909,3.5657407 1.38854717,3.51203526 L7.88572561,2.01370697 C7.92454252,2.00455517 7.962288,2.00002392 7.9999442,2.00002392 C8.037712,2.00002392 8.0753682,2.00455517 8.11427439,2.01370697 L14.6125912,3.51317365 C14.8399793,3.56687909 15.0011175,3.76917852 15.0011175,4.00118782 C15.0011175,4.23426855 14.8399793,4.43654566 14.6125912,4.48911271 L8.11427439,5.98744099 Z M14.5005378,6.50058913 L14.5005378,11.0011543 C14.5005378,11.2777173 14.7233946,11.5017355 15.0011175,11.5017355 C15.278818,11.5017355 15.5016971,11.2788557 15.5016971,11.0011543 L15.5016971,6.50058913 C15.5016971,6.22400386 15.278818,6.00114637 15.0011175,6.00114637 C14.7233946,6.00114637 14.5005378,6.22286547 14.5005378,6.50058913 Z M14.9999791,12.0000399 C14.4468325,12.0000399 13.9999581,13.4480556 13.9999581,13.9999761 C13.9999581,14.5520082 14.4468325,15 14.9999791,15 C15.5531256,15 16,14.5520082 16,13.9999761 C16,13.4480556 15.5531256,12.0000399 14.9999791,12.0000399 Z" id="Fill-1"></path>
                    </g>
                    <text id="E-Learning学习平台" font-family="PingFangSC-Regular, PingFang SC" font-size="12" font-weight="normal" line-spacing="18" fill="#EAF0FF">
                        <tspan x="22" y="29">E-Learning学习平台</tspan>
                    </text>
                </g>
            </g>
        </g>
    </g>
</svg>