<?xml version="1.0" encoding="UTF-8"?>
<svg width="68px" height="16px" viewBox="0 0 68 16" version="1.1" xmlns="http://www.w3.org/2000/svg" xmlns:xlink="http://www.w3.org/1999/xlink">
    <!-- Generator: Sketch 57 (83077) - https://sketch.com -->
    <title>feedback</title>
    <desc>Created with Sketch.</desc>
    <g id="页面-1" stroke="none" stroke-width="1" fill="none" fill-rule="evenodd">
        <g id="feedback" transform="translate(0.000000, -2.000000)">
            <text id="问题反馈" font-family="PingFangSC-Regular, PingFang SC" font-size="12" font-weight="normal" line-spacing="20" fill="#EAF0FF">
                <tspan x="20" y="13">问题反馈</tspan>
            </text>
            <path d="M8.47863248,16.0032206 L0.916239316,16.0032206 C0.423931624,16.0032206 0,15.6038647 0,15.1400966 L0,2.86312399 C0,2.39935588 0.423931624,2 0.916239316,2 L12.1299145,2 C12.6222222,2 13.0461538,2.39935588 13.0461538,2.86312399 L13.0461538,3.24959742 L13.0324786,3.24959742 L13.0324786,9.66505636 L8.47863248,16.0032206 Z M0.916239316,2.77294686 C0.875213675,2.77294686 0.820512821,2.82447665 0.820512821,2.86312399 L0.820512821,15.1400966 C0.820512821,15.178744 0.875213675,15.2302738 0.916239316,15.2302738 L8.04102564,15.2302738 L12.2119658,9.4331723 L12.2119658,2.82447665 C12.1982906,2.79871176 12.157265,2.77294686 12.1299145,2.77294686 L0.916239316,2.77294686 Z M9.68205128,15.410628 L9.68205128,15.52657 L9.65470085,17.4331723 L9.65470085,18 L10.2153846,17.7938808 L12.1025641,17.0724638 L12.2119658,17.0338164 L12.2803419,16.9436393 L15.7811966,12.1256039 L16,11.8164251 L15.6717949,11.610306 L13.8119658,10.4122383 L13.4837607,10.2061192 L13.2649573,10.5152979 L9.75042735,15.3204509 L9.68205128,15.410628 Z M13.6920087,11.2865316 L14.8568184,12.0369202 L11.7112959,16.3658357 L10.4631959,16.842767 L10.479956,15.6779462 L13.6920087,11.2865316 Z M6.08571429,11.800659 C6.42095238,11.800659 6.6952381,12.0378913 6.6952381,12.3278418 L6.6952381,12.4728171 C6.6952381,12.7627677 6.42095238,13 6.08571429,13 C5.75047619,13 5.47619048,12.7627677 5.47619048,12.4728171 L5.47619048,12.3278418 C5.47619048,12.0378913 5.75047619,11.800659 6.08571429,11.800659 Z M6.07047619,5 C7.70095238,5.05271829 8.53904762,5.77759473 8.6,7.17462932 C8.6,7.67545305 8.21904762,8.24217463 7.44190476,8.84843493 C6.71047619,9.46787479 6.3447619,9.99505766 6.3447619,10.4431631 L6.3447619,10.4431631 L6.3447619,10.8253707 C6.3447619,10.8253707 6.28380952,11.15486 5.85714286,11.15486 C5.43047619,11.15486 5.36952381,10.8253707 5.36952381,10.8253707 L5.36952381,10.8253707 L5.36952381,10.2850082 C5.36952381,9.75782537 5.76571429,9.16474465 6.52761905,8.49258649 C7.10666667,7.96540362 7.42666667,7.53047776 7.48761905,7.20098847 C7.45714286,6.44975288 7.0152381,6.02800659 6.16190476,5.94892916 C4.86666667,5.8830313 4.24190476,6.44975288 4.28761905,7.60955519 C4.28761905,7.60955519 4.25714286,7.96540362 3.7847619,7.96540362 C3.31238095,7.96540362 3.26666667,7.60955519 3.26666667,7.60955519 C3.26666667,5.85667216 4.19619048,5 6.07047619,5 Z" id="形状" fill="#FFFFFF" fill-rule="nonzero"></path>
        </g>
    </g>
</svg>