<?xml version="1.0" encoding="UTF-8"?>
<svg width="44px" height="16px" viewBox="0 0 44 16" version="1.1" xmlns="http://www.w3.org/2000/svg" xmlns:xlink="http://www.w3.org/1999/xlink">
    <!-- Generator: Sketch 57 (83077) - https://sketch.com -->
    <title>帮助</title>
    <desc>Created with Sketch.</desc>
    <g id="其他" stroke="none" stroke-width="1" fill="none" fill-rule="evenodd">
        <g id="报表" transform="translate(-837.000000, -16.000000)">
            <g id="帮助" transform="translate(837.000000, 14.000000)">
                <text font-family="PingFangSC-Regular, PingFang SC" font-size="12" font-weight="normal" line-spacing="20" fill="#EAF0FF">
                    <tspan x="20" y="13">帮助</tspan>
                </text>
                <circle id="椭圆形" stroke="#FFFFFF" cx="8" cy="10" r="7.5"></circle>
                <path d="M9.95354345,7.65604425 C9.94967208,7.63708191 9.9458007,7.61653937 9.94063886,7.59757703 C9.85804944,7.25783513 9.69674199,6.96865947 9.44768329,6.70950751 C9.43994053,6.70160653 9.43348823,6.69370556 9.42574548,6.68264419 C9.11087333,6.23702923 8.61146547,6 7.98301164,6 C7.86687028,6 7.75718121,6.00790097 7.65136352,6.02054253 C7.19325036,6.07742955 6.83192168,6.25599157 6.59447711,6.54674743 C6.3041237,6.90229128 6.102812,7.34948644 6.00860845,7.84250724 C6.00473707,7.86146958 6.00215615,7.88043192 6.00086569,7.89939426 C5.99570385,7.98156439 6.01377029,8.06531472 6.05119362,8.1332631 C6.09765016,8.22017382 6.17120636,8.27706084 6.25379577,8.29444298 L6.50930678,8.34658941 C6.66674285,8.37819331 6.82030754,8.25335791 6.85514995,8.06057414 C6.92612523,7.67500658 7.04097613,7.42059521 7.21905956,7.25783513 C7.49392745,7.00658415 7.72104834,6.8975507 7.98043072,6.8975507 C8.2333608,6.8975507 8.5017764,7.00658415 8.74051143,7.20410851 C8.75599694,7.21675007 8.77277292,7.23097182 8.78825843,7.24519357 C8.79600119,7.25309455 8.80374395,7.25941533 8.81148671,7.2688965 C9.04505989,7.55807216 9.1470062,7.83934685 9.1470062,8.17592836 C9.1470062,8.34184883 9.11087333,8.46194364 9.06570725,8.61838293 C9.05796449,8.64208586 9.05151219,8.66736898 9.04376943,8.69265209 C9.03602668,8.7226758 9.02183162,8.74795891 9.00505565,8.77166184 C8.98053691,8.80484593 8.95343726,8.84119041 8.92633761,8.88069529 C8.91988531,8.89017646 8.91472347,8.89807743 8.90698072,8.9075586 C8.88633336,8.9375823 8.86439555,8.96602581 8.84116728,8.99762971 C8.83213406,9.01027127 8.82051992,9.02607322 8.81019625,9.03871477 C8.79212981,9.0624177 8.77277292,9.08612062 8.75341602,9.10982354 C8.68373121,9.19673426 8.59985133,9.28996576 8.4953241,9.39583882 C8.46435307,9.42428233 8.4346725,9.45272584 8.40628239,9.48116934 C8.21400391,9.66921254 8.07076289,9.84935475 8.003659,9.98683171 C7.99591624,10.0026337 7.98817348,10.0168554 7.97914026,10.0263366 C7.80621868,10.2444035 7.7416957,10.402423 7.68233455,10.6173295 C7.67975363,10.6268106 7.67717272,10.6347116 7.67588226,10.645773 C7.61652111,10.9396892 7.55457905,11.2446668 7.55457905,11.627074 C7.55457905,11.8340795 7.69136777,12 7.85912752,12 L8.1056053,12 C8.27078413,12 8.40628239,11.8356597 8.41015377,11.634975 C8.41402515,11.4358704 8.42434883,11.2810113 8.46693399,11.124572 C8.49145272,11.0360811 8.50693824,10.9570714 8.51855238,10.8938636 C8.53403789,10.8101132 8.54694249,10.7453253 8.57017076,10.710561 C8.57791352,10.6979194 8.58694674,10.6836977 8.59468949,10.6694759 C8.60243225,10.6552541 8.61017501,10.6394522 8.61920823,10.6252304 C8.66179339,10.5588623 8.73018775,10.4830129 8.81406763,10.3929418 C8.86826693,10.3344746 8.92762807,10.2681064 8.99215105,10.192257 C9.01408886,10.1669739 9.03602668,10.1416908 9.05925495,10.1132473 L9.06957863,10.1006057 C9.13410161,10.0342376 9.19475321,9.96786937 9.25153343,9.90308138 C9.27992354,9.87147748 9.30702319,9.83829339 9.33283239,9.80826969 L9.37799847,9.75296287 C9.60640982,9.46852779 9.74706992,9.22991836 9.80643106,9.11930471 C9.94967208,8.85541217 10,8.44772189 10,8.17908875 C10,8.02897024 9.98967632,7.8851725 9.96644805,7.75085594 C9.96515759,7.71451146 9.95999575,7.68606795 9.95354345,7.65604425 L9.95354345,7.65604425 Z M8.18835979,13.0039683 C8.17566138,13.0013228 8.16296296,13 8.15026455,13 L7.84973545,13 C7.83703704,13 7.82433862,13.0013228 7.81164021,13.0039683 C7.69206349,13.0277778 7.6,13.1574074 7.6,13.3121693 L7.6,13.6878307 C7.6,13.8611111 7.71216931,14 7.84973545,14 L8.15026455,14 C8.28888889,14 8.4,13.8597884 8.4,13.6878307 L8.4,13.3121693 C8.4,13.1574074 8.30793651,13.026455 8.18835979,13.0039683 Z" id="形状" fill="#FFFFFF" fill-rule="nonzero"></path>
            </g>
        </g>
    </g>
</svg>