<?xml version="1.0" encoding="UTF-8"?>
<svg width="16px" height="16px" viewBox="0 0 16 16" version="1.1" xmlns="http://www.w3.org/2000/svg" xmlns:xlink="http://www.w3.org/1999/xlink">
    <!-- Generator: Sketch 57 (83077) - https://sketch.com -->
    <title>icon_guanzhu</title>
    <desc>Created with Sketch.</desc>
    <g id="其他" stroke="none" stroke-width="1" fill="none" fill-rule="evenodd">
        <g id="我的能力" transform="translate(-1192.000000, -206.000000)" fill="#F46433">
            <path d="M1204.30386,222 C1204.13078,222 1203.92884,221.939936 1203.75574,221.849922 L1200.00555,219.898665 L1196.22659,221.849922 C1195.85155,222.059982 1195.36116,222.030032 1195.01498,221.759806 C1194.6688,221.489682 1194.46694,221.009397 1194.55344,220.559081 L1195.33228,216.356432 L1192.36104,213.474656 C1192.04372,213.144469 1191.92836,212.634151 1192.04372,212.213847 C1192.18794,211.763614 1192.53412,211.433406 1192.99567,211.373342 L1197.12087,210.592901 L1198.96711,206.690427 C1199.16899,206.270123 1199.57287,206 1200.00555,206 C1200.43832,206 1200.871,206.270123 1201.04408,206.690427 L1202.89031,210.592901 L1207.01546,211.34331 C1207.4482,211.403374 1207.82325,211.733582 1207.93861,212.183815 C1208.08283,212.634151 1207.96747,213.114437 1207.65017,213.444624 L1204.67883,216.356432 L1205.42889,220.559081 C1205.51539,221.039346 1205.31353,221.489682 1204.96735,221.759806 C1204.79427,221.909904 1204.56346,222 1204.30386,222 Z" id="icon_guanzhu"></path>
        </g>
    </g>
</svg>