<?xml version="1.0" encoding="UTF-8"?>
<svg width="16px" height="16px" viewBox="0 0 16 16" version="1.1" xmlns="http://www.w3.org/2000/svg" xmlns:xlink="http://www.w3.org/1999/xlink">
    <!-- Generator: Sketch 57 (83077) - https://sketch.com -->
    <title>icon_chuji_default</title>
    <desc>Created with Sketch.</desc>
    <g id="其他" stroke="none" stroke-width="1" fill="none" fill-rule="evenodd" fill-opacity="0.8">
        <g id="我的能力" transform="translate(-230.000000, -506.000000)" fill="#294791">
            <g id="编组-6" transform="translate(222.000000, 248.000000)">
                <path d="M18.075062,264.312723 C18.04198,264.422195 17.9894438,264.524813 17.9197801,264.615692 C17.8720537,264.688016 17.8075907,264.747743 17.7317486,264.789872 C17.691667,264.96077 17.6400302,265.128681 17.5774051,265.292646 C17.5189642,265.430126 17.4605429,265.566005 17.3981525,265.699443 C17.346066,265.817236 17.2667826,265.921084 17.1668915,266.002412 C16.9724274,266.162237 16.8132742,266.298955 16.6867923,266.410049 C16.5397613,266.561866 16.4489619,266.759249 16.4291753,266.969503 C16.3948811,267.129113 16.3828175,267.292609 16.3931996,267.4555 C16.4061821,267.626477 16.4503305,267.793567 16.5235723,267.948664 C16.5562632,268.017942 16.5953672,268.084094 16.6404345,268.146106 C15.4982463,270.003647 15.9194548,272.420115 17.6230004,273.782636 C17.3268854,273.817812 17.0301058,273.855351 16.7339908,273.882519 C16.2995651,273.923262 15.8763036,273.952852 15.4634242,273.968867 C15.0505252,273.984824 14.6904948,273.996035 14.3816515,273.996035 C14.0727887,273.996035 13.7135208,273.984824 13.3078952,273.960019 C12.9021914,273.935312 12.4837201,273.908066 12.0556487,273.87373 C11.6276361,273.839336 11.1995648,273.799433 10.7754429,273.753808 C10.3514189,273.708261 9.96411347,273.656308 9.61690919,273.593964 C9.26964625,273.53164 8.96956227,273.480527 8.72308985,273.428554 C8.56057369,273.410019 8.40460745,273.353632 8.26782171,273.263847 C8.1121683,273.036327 8.02854443,272.767401 8.02786011,272.491756 C7.97462003,271.928005 7.99776959,271.359704 8.09658536,270.802066 C8.1317985,270.452632 8.30066906,270.130288 8.56790569,269.902104 C8.8354356,269.68771 9.13772896,269.52062 9.46164682,269.408178 C9.79768691,269.288236 10.1537482,269.180365 10.5258618,269.088432 C10.8710717,269.006947 11.1994866,268.866029 11.4963445,268.672005 C11.6801918,268.558861 11.8501182,268.424739 12.0028584,268.272376 C12.1109418,268.162063 12.1981632,268.033118 12.2604754,267.891907 C12.312953,267.765188 12.3401302,267.629367 12.3405213,267.492277 C12.3405213,267.354035 12.3333457,267.198156 12.3221229,267.023898 C12.3146344,266.803878 12.2259662,266.594366 12.0732846,266.435596 C11.9196255,266.287217 11.7619778,266.143018 11.6003806,266.003252 C11.5001766,265.922373 11.4210497,265.818388 11.3699408,265.700283 C11.3067879,265.566162 11.2470566,265.430497 11.1906882,265.293485 C11.1282977,265.129442 11.0766609,264.961454 11.0363447,264.790711 C10.9994501,264.752332 10.9649995,264.711746 10.9330907,264.669246 C10.8894702,264.591414 10.8499165,264.511395 10.8147033,264.429441 C10.7542877,264.290984 10.7024358,264.148992 10.659441,264.004187 C10.607726,263.843445 10.5702252,263.678405 10.5473885,263.511022 C10.5289119,263.387038 10.5318838,263.260788 10.5562456,263.137799 C10.5645747,263.023502 10.5935899,262.911666 10.6418637,262.807662 C10.6414922,262.401705 10.6647005,261.99606 10.7114493,261.592758 C10.7639855,261.224574 10.8379898,260.85973 10.9330907,260.500159 C11.0305378,260.118616 11.1999363,259.759104 11.4323508,259.441115 C11.6203041,259.170509 11.8460709,258.928263 12.1028473,258.721739 C12.3286923,258.538028 12.5808739,258.389336 12.8510042,258.280528 C13.1018368,258.178379 13.3635597,258.10543 13.6311092,258.063164 C13.8804753,258.021523 14.1328133,258.000391 14.3856206,258 C14.601064,258.015645 14.8150605,258.047461 15.0257919,258.095137 C15.164787,258.126953 15.2992852,258.176387 15.4258452,258.242149 C15.5252867,258.296621 15.6152454,258.366817 15.6922411,258.449981 C15.7666951,258.529942 15.8450595,258.609825 15.9258679,258.689766 L16.2531291,258.689766 C16.3547799,258.689239 16.4559028,258.703731 16.5532131,258.73295 C16.6602212,258.768048 16.7592716,258.823966 16.8444205,258.897599 C16.962886,259.001818 17.0701873,259.118009 17.1645257,259.244513 C17.4248018,259.58508 17.6220814,259.969456 17.7470382,260.379456 C17.8659534,260.762601 17.9579064,261.153617 18.022213,261.549575 C18.0794807,261.968892 18.1139313,262.391021 18.125467,262.814068 C18.1502981,262.881217 18.1674647,262.950944 18.1766346,263.021901 C18.1878574,263.101784 18.1974966,263.200885 18.2038314,263.316022 C18.2079569,263.460671 18.1988652,263.605397 18.1766346,263.748445 C18.1636521,263.939714 18.1295925,264.128933 18.075062,264.312723 Z M14.9801185,269.508041 C14.9217753,269.440893 14.8545556,269.363393 14.7745097,269.284272 L13.9855673,269.284272 C13.9159817,269.352787 13.8530439,269.427709 13.7975358,269.508041 C13.7519405,269.567084 13.7142834,269.63187 13.6855615,269.700678 C13.6551581,269.761342 13.6585211,269.833354 13.6943403,269.890874 C13.7743862,270.050796 13.8439717,270.193843 13.8999491,270.316148 C13.9463069,270.421734 14.0101637,270.518707 14.0888213,270.603082 C14.0663756,270.707769 14.0304,270.854859 13.9855673,271.044293 C13.9408128,271.233727 13.8975833,271.43111 13.8575604,271.634958 C13.8175374,271.838747 13.7839276,272.029021 13.754365,272.207244 C13.7313914,272.342049 13.7171771,272.47824 13.7119176,272.614881 C13.7179396,272.690409 13.7457425,272.762596 13.7919439,272.822713 C13.8439717,272.902596 13.9039963,272.988124 13.9711965,273.073651 C14.0348969,273.153671 14.1070829,273.226542 14.1864249,273.291073 C14.2405057,273.340976 14.3098566,273.371425 14.3832548,273.377363 C14.4591556,273.369823 14.5310287,273.339765 14.5896847,273.291073 C14.6716467,273.230956 14.7487011,273.164433 14.820105,273.09203 C14.8925842,273.019999 14.9559913,272.93951 15.0089185,272.852245 C15.0540445,272.787928 15.0816128,272.713006 15.0889448,272.634881 C15.0815346,272.51533 15.0641334,272.3966 15.0369365,272.279959 C15.0017234,272.112947 14.9657673,271.925115 14.9249036,271.716443 C14.8841182,271.507868 14.844936,271.307204 14.7952935,271.110602 C14.7457292,270.913981 14.710516,270.757359 14.6744622,270.642222 C14.7546644,270.571129 14.8213367,270.48605 14.8713507,270.391304 C14.9361265,270.277769 15.0145691,270.128316 15.1041563,269.945288 C15.1395845,269.877847 15.1431039,269.7981 15.1137759,269.727846 C15.0800096,269.647963 15.0334954,269.573959 14.9761494,269.508881 L14.9801185,269.508041 Z M22.2805823,273.957359 L20.4997177,272.981565 L18.7188531,273.957359 C18.5964603,274.02359 18.4487724,274.010711 18.338391,273.923948 C18.2281576,273.837185 18.1745201,273.691968 18.2004069,273.549676 L18.5395981,271.492598 L17.1104983,270.043948 C17.0114775,269.942968 16.9752951,269.791685 17.0171282,269.653375 C17.0590797,269.515096 17.171887,269.413743 17.3082439,269.391749 L19.2877713,269.092076 L20.1788988,267.210359 C20.2391041,267.081661 20.3635679,267 20.4999544,267 C20.6364297,267 20.7608935,267.081661 20.8209804,267.210359 L21.7122263,269.092076 L23.6917833,269.391749 C23.8281402,269.413743 23.9409179,269.515096 23.9828694,269.653375 C24.0247024,269.791685 23.9885497,269.942968 23.889381,270.043948 L22.4613462,271.494651 L22.8005374,273.551729 C22.8259509,273.694022 22.7718696,273.839114 22.6611628,273.92541 C22.5505448,274.011799 22.4028568,274.024087 22.2805823,273.957359 Z" id="icon_chuji_default"></path>
            </g>
        </g>
    </g>
</svg>