<?xml version="1.0" encoding="UTF-8"?>
<svg width="16px" height="16px" viewBox="0 0 16 16" version="1.1" xmlns="http://www.w3.org/2000/svg" xmlns:xlink="http://www.w3.org/1999/xlink">
    <!-- Generator: Sketch 57 (83077) - https://sketch.com -->
    <title>icon_zhuanjia_selected</title>
    <desc>Created with Sketch.</desc>
    <g id="其他" stroke="none" stroke-width="1" fill="none" fill-rule="evenodd">
        <g id="我的能力" transform="translate(-230.000000, -266.000000)" fill="#FFFFFF">
            <g id="编组-6" transform="translate(222.000000, 248.000000)">
                <path d="M18.3171348,30.0351514 C18.3171348,30.0351514 21.8390136,31.0190393 22.7142051,31.6110908 C23.7436352,32.3079472 24,34 24,34 L24,34 L8,34 C8,34 8.38696755,32.2026736 9.2617241,31.6110908 C10.1365374,31.0195862 13.6584918,30.0351514 13.6584918,30.0351514 L13.6584918,30.0351514 L15.2963109,32.8078306 L15.5988509,32.3991973 L15.210711,31.6110908 L15.987161,30.8232774 L16.7636676,31.6110908 L16.3754521,32.3991973 L16.6779921,32.8078306 Z M13.2962002,23.1668618 C13.5889265,22.8895372 14.9363072,22.8515294 15.4171567,23.1912759 C15.7691809,23.4393816 15.6899343,23.4898114 16.0717209,23.8006321 C16.2918376,23.8006321 16.3891042,23.4234441 16.8836248,23.1912759 C17.4865491,22.9079943 18.6047558,23.0453187 18.822717,23.1303188 C18.971699,23.1883071 19.1915132,23.348737 19.3196767,23.6236397 C19.7036756,24.4476837 19.5524056,25.1900283 19.496795,25.9007909 C19.3725645,27.4870038 18.1265725,30.1292336 16.071286,30.1326548 C14.0159806,30.136089 12.7146048,27.4291131 12.645777,25.9007909 C12.6115711,25.1532509 12.4962655,24.6375081 12.8841218,23.7235812 C12.9918827,23.4696746 13.0844411,23.3670573 13.2962002,23.1668618 Z M11.4972785,22.3643999 L11.4972785,24.3965703 L10.7397562,24.3965703 L10.7397562,22.3643999 L11.4972785,22.3643999 Z M19.2901223,21.1124843 L19.2901223,23.1721938 C19.0112183,22.8938732 18.4195824,22.7018417 17.73068,22.7018417 C16.8484805,22.7018417 16.1237794,23.0162055 16.0161809,23.4218161 L16.0030254,23.5040888 C15.9729794,23.0595179 15.2101248,22.701705 14.271192,22.7015487 C13.6512989,22.7015487 13.1085223,22.8569676 12.8038098,23.0910611 L12.7112769,23.1719008 L12.7112769,21.1124843 L16.0015505,22.4999664 L19.2901223,21.1124843 Z M15.9997164,18 L21.0074906,20.114026 L15.9994138,22.2273684 L11.9337302,20.5107648 L11.7603748,20.4370538 L11.2185257,20.2090847 L11.2185257,22.1841848 L11.0185846,22.1841848 L11.0185846,20.1250221 L10.9925094,20.114026 L11.0185846,20.1031276 L11.0185846,20.0971705 L11.0326149,20.0971705 L15.9997164,18 Z" id="icon_zhuanjia_selected"></path>
            </g>
        </g>
    </g>
</svg>