<?xml version="1.0" encoding="UTF-8"?>
<svg width="234px" height="440px" viewBox="0 0 234 440" version="1.1" xmlns="http://www.w3.org/2000/svg" xmlns:xlink="http://www.w3.org/1999/xlink">
    <!-- Generator: Sketch 60 (88103) - https://sketch.com -->
    <title>02</title>
    <desc>Created with Sketch.</desc>
    <defs>
        <rect id="path-1" x="-1.42108547e-14" y="0" width="214" height="420" rx="4"></rect>
        <filter x="-7.0%" y="-3.6%" width="114.0%" height="107.1%" filterUnits="objectBoundingBox" id="filter-2">
            <feOffset dx="0" dy="0" in="SourceAlpha" result="shadowOffsetOuter1"></feOffset>
            <feGaussianBlur stdDeviation="5" in="shadowOffsetOuter1" result="shadowBlurOuter1"></feGaussianBlur>
            <feColorMatrix values="0 0 0 0 0.631372549   0 0 0 0 0.784313725   0 0 0 0 0.941176471  0 0 0 0.1 0" type="matrix" in="shadowBlurOuter1"></feColorMatrix>
        </filter>
    </defs>
    <g id="TW主题介绍" stroke="none" stroke-width="1" fill="none" fill-rule="evenodd">
        <g id="1.0首页" transform="translate(-451.000000, -130.000000)">
            <g id="首页" transform="translate(220.000000, 80.000000)">
                <g id="02" transform="translate(241.000000, 60.000000)">
                    <g id="矩形备份-12">
                        <use fill="black" fill-opacity="1" filter="url(#filter-2)" xlink:href="#path-1"></use>
                        <use fill="#FFFFFF" fill-rule="evenodd" xlink:href="#path-1"></use>
                    </g>
                    <rect id="矩形备份-2" stroke="#D9D9D9" fill="#FFFFFF" x="63.5" y="356.5" width="87" height="23" rx="11.5"></rect>
                    <g id="icon_zuzhi" transform="translate(47.000000, 130.000000)">
                        <circle id="椭圆形备份" fill="#F5A400" cx="60" cy="60" r="60"></circle>
                        <path d="M65.3296673,67.4065343 C65.1040095,67.4065343 63.5504766,65.8573316 64.6617349,62.9878785 C67.108858,60.5573626 69.1056643,56.578665 69.1056643,52.5932508 C69.1056643,46.6252311 64.8873927,43.5266108 60.4434633,43.5266108 C55.7818658,43.5266108 51.7826815,46.6252311 51.7826815,52.5932508 C51.7826815,56.5719484 53.560453,60.5506461 55.9995339,62.9878785 C56.8865536,65.4173735 55.3318117,67.1865553 54.8895371,67.4065343 C50.0035433,69.1758772 44.4483556,72.2732617 44.4483556,75.583855 L44.4483556,76.6933682 C44.4483556,80.8919912 52.667073,82 60.4434633,82 C67.994406,82 76.2131234,81.1199764 76.2131234,76.6933682 L76.2131234,75.583855 C75.9952451,72.2732617 70.2156611,68.9559519 65.3296673,67.4065343 Z M79.9878589,59.4493539 C79.7636729,59.4493539 78.4357978,59.0092346 79.3201367,56.3519694 C81.542811,54.1426684 83.0961337,50.3839497 83.0961337,46.6252311 C83.0961337,41.0973307 79.5457945,38 75.1018651,38 C71.9948518,38 69.1056643,39.5493639 67.993197,42.6400318 C70.6591972,44.8493329 72.4371264,48.1666427 72.4371264,52.5865343 C72.4371264,57.2320468 70.2156611,61.6519384 67.7765802,64.5213377 C71.5513157,65.8506151 77.3308997,68.721304 78.8856942,73.1478584 C84.6574461,72.9266435 89.9935466,71.5986557 89.9935466,68.2813459 L89.9935466,67.1718864 C90.2113723,63.8679559 84.8753244,60.9985566 79.9893307,59.4493539 L79.9878589,59.4493539 Z M40.0056877,59.4493539 C40.230084,59.4493539 41.5579591,59.0092346 40.6736201,56.3519694 C38.4508932,54.1426684 36.8974129,50.3839497 36.8974129,46.6252311 C37.1230707,41.0973307 40.6736201,38 44.8918917,38 C47.9986947,38 50.8890912,39.5493639 52.0005598,42.6400318 C49.3343493,44.8493329 47.5566304,48.1666427 47.5566304,52.5865343 C47.5566304,57.2320468 49.7778855,61.6519384 52.2169663,64.5213377 C48.4422309,65.8506151 42.6625943,68.721304 41.1091139,73.1478584 C35.3348389,72.9251928 30,71.597205 30,68.2798952 L30,67.1705968 C30.0156115,63.8667201 35.3438799,60.9973207 40.0044261,59.4479031 L40.0056877,59.4493539 Z" id="Fill-1" fill="#FFFFFF"></path>
                    </g>
                    <text id="组织激活" font-family="PingFangSC-Semibold, PingFang SC" font-size="16" font-weight="500" line-spacing="24" fill="#000000" fill-opacity="0.8">
                        <tspan x="75" y="287">组织激活</tspan>
                    </text>
                    <text id="查看更多备份" font-family="PingFangSC-Regular, PingFang SC" font-size="14" font-weight="normal" line-spacing="22" fill="#000000" fill-opacity="0.6">
                        <tspan x="79" y="372">查看更多</tspan>
                    </text>
                    <g id="icon_02" transform="translate(81.000000, 40.000000)" fill="#000000" fill-opacity="0.25">
                        <path d="M18.8501941,36.36 C22.5221941,36.36 24.9701941,33.732 24.9701941,29.808 L24.9701941,17.028 C24.9701941,13.068 22.5221941,10.44 18.8501941,10.44 C15.1781941,10.44 12.7301941,13.068 12.7301941,17.028 L12.7301941,29.808 C12.7301941,33.732 15.1781941,36.36 18.8501941,36.36 Z M18.8501941,34.272 C16.3301941,34.272 14.8541941,32.616 14.8541941,29.808 L14.8541941,17.028 C14.8541941,14.184 16.3301941,12.528 18.8501941,12.528 C21.3701941,12.528 22.8461941,14.184 22.8461941,17.028 L22.8461941,29.808 C22.8461941,32.616 21.3701941,34.272 18.8501941,34.272 Z M40.1261941,36 L40.1261941,33.984 L30.1541941,33.984 C30.1541941,26.676 39.8741941,23.328 39.8741941,16.128 C39.8741941,12.96 37.6061941,10.44 33.9701941,10.44 C30.5861941,10.44 28.3541941,12.96 28.1381941,16.74 L30.2981941,16.74 C30.3701941,13.896 31.7741941,12.456 33.9701941,12.456 C36.3461941,12.456 37.7141941,14.04 37.7141941,16.128 C37.7141941,22.284 27.9941941,25.632 27.9941941,34.2 L27.9941941,36 L40.1261941,36 Z" id="02" fill-rule="nonzero"></path>
                        <rect id="矩形" transform="translate(46.992388, 5.500000) rotate(-45.000000) translate(-46.992388, -5.500000) " x="40.9923882" y="5" width="12" height="1"></rect>
                        <rect id="矩形备份" transform="translate(5.000000, 40.500000) rotate(-45.000000) translate(-5.000000, -40.500000) " x="-1" y="40" width="12" height="1"></rect>
                    </g>
                </g>
            </g>
        </g>
    </g>
</svg>