<?xml version="1.0" encoding="UTF-8"?>
<svg width="234px" height="440px" viewBox="0 0 234 440" version="1.1" xmlns="http://www.w3.org/2000/svg" xmlns:xlink="http://www.w3.org/1999/xlink">
    <!-- Generator: Sketch 60 (88103) - https://sketch.com -->
    <title>03</title>
    <desc>Created with Sketch.</desc>
    <defs>
        <rect id="path-1" x="-1.42108547e-14" y="0" width="214" height="420" rx="4"></rect>
        <filter x="-7.0%" y="-3.6%" width="114.0%" height="107.1%" filterUnits="objectBoundingBox" id="filter-2">
            <feOffset dx="0" dy="0" in="SourceAlpha" result="shadowOffsetOuter1"></feOffset>
            <feGaussianBlur stdDeviation="5" in="shadowOffsetOuter1" result="shadowBlurOuter1"></feGaussianBlur>
            <feColorMatrix values="0 0 0 0 0.631372549   0 0 0 0 0.784313725   0 0 0 0 0.941176471  0 0 0 0.1 0" type="matrix" in="shadowBlurOuter1"></feColorMatrix>
        </filter>
    </defs>
    <g id="TW主题介绍" stroke="none" stroke-width="1" fill="none" fill-rule="evenodd">
        <g id="1.0首页" transform="translate(-676.000000, -130.000000)">
            <g id="首页" transform="translate(220.000000, 80.000000)">
                <g id="03" transform="translate(466.000000, 60.000000)">
                    <g id="矩形备份-13">
                        <use fill="black" fill-opacity="1" filter="url(#filter-2)" xlink:href="#path-1"></use>
                        <use fill="#FFFFFF" fill-rule="evenodd" xlink:href="#path-1"></use>
                    </g>
                    <rect id="矩形备份-3" stroke="#D9D9D9" fill="#FFFFFF" x="63.5" y="356.5" width="87" height="23" rx="11.5"></rect>
                    <g id="icon_shehui" transform="translate(47.000000, 130.000000)">
                        <circle id="椭圆形备份-2" fill="#985FDE" cx="60" cy="60" r="60"></circle>
                        <path d="M61.8744196,53.5914538 L62.7001833,53.5914538 C66.2819001,53.4414906 69.006884,53.2574089 70.875135,53.0390255 L71.3946549,52.9734738 C71.6451301,52.9398435 71.876189,53.1145869 71.9142351,53.3666006 L72.0257725,54.2094337 C72.2538072,56.1577337 72.3652841,58.1183017 72.3596588,60.0799684 C72.363167,61.8878878 72.27032,63.6944033 72.0812993,65.4920688 L72.0812993,65.9508083 C72.0626089,66.0723901 71.9997633,66.1825584 71.9050412,66.2597677 C71.8046333,66.3372823 71.6777324,66.3710957 71.552525,66.3534566 L71.2741655,66.3534566 C68.3259253,66.0044581 65.3620797,65.807498 62.3939999,65.7636138 L61.8744196,65.7636138 C61.6237025,65.753604 61.4243385,65.5483431 61.41956,65.2953528 L61.41956,54.0594706 C61.4243385,53.8117293 61.6197104,53.6104967 61.8649837,53.6007311 L61.8744196,53.5914538 Z M48.048503,65.9603298 C48.048503,65.744815 48.048503,65.5669588 47.9927343,65.4357945 C47.8025038,63.6445987 47.7096568,61.8442477 47.7143747,60.0425539 C47.7096568,58.0086217 47.8273638,55.9760934 48.0668909,53.9564434 C48.0668909,53.7974471 48.1226596,53.5818713 48.1597984,53.3198478 C48.1703836,53.1956414 48.2349228,53.0824214 48.3360565,53.0108883 C48.4345892,52.937219 48.5584054,52.9067015 48.6793787,52.9264768 L49.2546672,53.001611 C52.0259839,53.3487173 54.8137529,53.5456775 57.605877,53.5914538 L58.1627775,53.5914538 C58.2832669,53.5914538 58.3990384,53.6396104 58.4840826,53.7256698 C58.5693688,53.8117293 58.6173347,53.9285504 58.6173347,54.0501322 L58.6173347,65.2860755 C58.6126167,65.5390658 58.4131923,65.7443267 58.1627775,65.7543364 L57.791571,65.7543364 C54.8421211,65.7960844 51.8969658,65.9896266 48.9671137,66.3346578 L48.5680833,66.3909321 C48.4461422,66.4023456 48.324443,66.3689595 48.2247611,66.2971822 C48.1299785,66.2199729 48.0671329,66.1098046 48.048503,65.9882228 L48.048503,65.9603298 Z M58.6266397,35.5202557 L58.6266397,50.3141154 C58.6284642,50.4411904 58.5781393,50.5632605 58.4874094,50.6512731 C58.3974052,50.7375767 58.2775812,50.7845126 58.1532811,50.7824462 L58.0420462,50.7824462 C55.2159286,50.7433139 52.3941056,50.5494666 49.5887954,50.2018109 L49.2546672,50.1551191 C49.1237741,50.1391279 49.0056437,50.0675949 48.9300353,49.9584031 C48.8584192,49.8513477 48.8348294,49.7187795 48.8650727,49.5931694 L48.9300353,49.3404232 C50.1718867,43.7891018 53.325237,38.8621691 57.8286493,35.4361494 L58.0977544,35.2394334 C58.2043319,35.1793749 58.3343177,35.1793749 58.4410766,35.2394334 C58.5540052,35.2959518 58.6258633,35.4117964 58.6266397,35.5391155 L58.6266397,35.5202557 Z M61.4103661,35.4921795 C61.4087329,35.3691329 61.4772643,35.2560959 61.5866242,35.2020189 C61.6934436,35.1418994 61.8233689,35.1418994 61.9299464,35.2020189 L62.3103469,35.4828412 C66.6635103,38.8257311 69.7407685,43.5812164 71.0235088,48.9472964 C71.0235088,49.1062927 71.1255498,49.3218075 71.1905124,49.583831 C71.2321272,49.7176198 71.2186387,49.8628222 71.1534341,49.9865403 C71.0754668,50.0931075 70.9585461,50.1639082 70.8285603,50.1832563 L70.4852381,50.2299481 C67.8826792,50.546598 65.2656639,50.7311069 62.6444146,50.7824462 L61.8744196,50.7824462 C61.7503615,50.7845126 61.630356,50.7375767 61.5402914,50.6512731 C61.4495614,50.5632605 61.3992365,50.4411904 61.4011183,50.3141154 L61.4011183,35.4921795 L61.4103661,35.4921795 Z M49.0692151,69.1062596 L49.755799,69.0125708 C52.1436304,68.7316875 54.8253663,68.5631087 57.800765,68.5070494 L58.1627775,68.5070494 C58.2867752,68.5046981 58.4068412,68.5519392 58.4968453,68.6379987 C58.5868494,68.7226543 58.6374163,68.8416116 58.636053,68.9658179 L58.636053,84.3216275 C58.6367509,84.4956995 58.5396094,84.6554282 58.3853079,84.7336141 C58.2343332,84.8261432 58.0446471,84.8261432 57.893612,84.7336141 L57.5595442,84.4806238 C53.1156508,80.9628074 50.0435945,75.9763044 48.8834606,70.3984938 C48.8834606,70.2203935 48.7814197,69.9676473 48.716457,69.6586879 C48.6890565,69.531857 48.7159731,69.3992889 48.7908556,69.2936372 C48.8674317,69.18707 48.9855621,69.1188939 49.1154874,69.1062596 L49.0692151,69.1062596 Z M71.3854609,69.6493495 C71.3854609,69.8553428 71.2926139,70.0706745 71.2368452,70.2766678 C69.7955694,76.3067482 66.9283814,80.98832 62.6352207,84.3216275 L62.1527792,84.6866171 C62.0015626,84.7793904 61.8120579,84.7793904 61.6608413,84.6866171 C61.5067818,84.6084312 61.4096402,84.4489466 61.4103381,84.2746305 L61.4103381,68.9658179 C61.4089749,68.8416116 61.4595417,68.7226543 61.5495458,68.6379987 C61.63955,68.5519392 61.759616,68.5046981 61.8836136,68.5070494 L62.6260267,68.5070494 C65.4653304,68.5693342 68.0357709,68.7348003 70.3368644,69.0032324 L70.98637,69.0876439 C71.117505,69.103391 71.2356959,69.174924 71.3113043,69.2841158 C71.3859448,69.3897064 71.4131033,69.5225187 71.3854609,69.6493495 Z M75.1249873,60.0425539 C75.1299472,58.0121618 75.0182284,55.9832345 74.7909196,53.9659649 C74.7909196,53.6848984 74.7072665,53.301049 74.6331099,52.804895 C74.6080079,52.5657597 74.7630352,52.34524 74.995062,52.2898812 L75.4217953,52.1961924 C78.0311892,51.6595112 80.5194284,50.6405309 82.7616684,49.1907042 L82.9471809,49.0596009 C83.0619846,48.9825747 83.2037653,48.95871 83.3370173,48.9939882 C83.4691202,49.0278627 83.57848,49.1210632 83.6337648,49.2467344 C83.7266118,49.4295954 83.8102649,49.6172172 83.884482,49.8086841 C86.5775289,56.0571479 86.704188,63.1286084 84.2369982,69.4714934 C84.1812295,69.6212124 84.1257027,69.7709924 84.0607401,69.9209555 C84.0094474,70.0480305 83.9035958,70.144588 83.7729446,70.182979 C83.6380594,70.2215532 83.4934358,70.2010454 83.3740957,70.1269488 L83.2441703,70.033199 C80.8818644,68.5745832 78.2748294,67.5653686 75.5517206,67.0556038 L75.1155514,66.9621592 C74.8774155,66.9147349 74.7155532,66.6903701 74.7443448,66.4472064 C74.7443448,66.2504904 74.7909196,66.0537744 74.8188039,65.8573026 C75.0274223,63.9261534 75.1297053,61.9851777 75.1249873,60.0425539 Z M68.2491678,35.4454267 C73.48217,37.1856582 78.0316731,40.5597371 81.2398243,45.0801153 C81.3790041,45.2768313 81.5646981,45.5483763 81.787289,45.8855339 C81.9281019,46.0948231 81.8739663,46.3797348 81.6667996,46.5220685 L81.1469773,46.8873633 C79.3082438,48.0684527 77.2751061,48.9086612 75.1434357,49.3685604 L74.5218145,49.5182794 C74.2734563,49.576934 74.0246747,49.4222102 73.9651559,49.1718444 C73.9651559,49.0596009 73.9093872,48.9472964 73.8906968,48.8347478 C72.7544551,43.7838528 70.2484934,39.1514142 66.6531066,35.454704 C66.588144,35.3655318 66.588144,35.2441941 66.6531066,35.1550219 C66.7109924,35.0596851 66.8241629,35.0139088 66.9314057,35.0427174 C67.4975607,35.2020189 67.9521179,35.3331222 68.2862461,35.4454267 L68.2491678,35.4454267 Z M74.6980726,69.7149622 L75.2920514,69.8460655 C77.543062,70.2895462 79.6983826,71.1328065 81.6573032,72.3366009 L82.2142037,72.7018347 C82.4179228,72.8406284 82.4790748,73.1157134 82.3533835,73.329092 C82.1863799,73.6192526 82.0472001,73.8441058 81.9359047,74.0126846 C78.693276,79.0833549 73.8165402,82.8699087 68.1283759,84.7336141 L67.2934183,84.9863603 C67.1325238,85.0314041 66.9614676,84.9622514 66.8756975,84.8177814 C66.773596,84.6857016 66.773596,84.5004602 66.8756975,84.3683803 C70.445075,80.5853666 72.9082727,75.8801742 73.9927983,70.7730659 C73.9927983,70.6044871 74.0856453,70.3703566 74.141414,70.0706745 C74.2051669,69.8226891 74.4485651,69.6672328 74.6980726,69.7149622 Z M36.8206692,70.033199 L36.6351567,70.155086 C36.5208369,70.2337602 36.3769392,70.2544511 36.2453202,70.2110551 C36.110677,70.1765093 36.0002888,70.0789753 35.9485728,69.9490927 C35.9485728,69.8928184 35.901998,69.8272057 35.8741137,69.7709924 C33.3001649,63.3642037 33.3804912,56.1832463 36.0969465,49.8368213 L36.3939359,49.1811827 C36.4492207,49.0555116 36.5586411,48.9625552 36.6906834,48.9284366 C36.823996,48.8919987 36.9662001,48.9158023 37.0805803,48.9939882 L37.3681339,49.1907042 C39.5248457,50.5966467 41.9178184,51.592983 44.4297079,52.1306408 L45.0234448,52.2710824 C45.2578306,52.322596 45.4147329,52.5459843 45.3853969,52.7860352 C45.3853969,53.029504 45.3109983,53.2729118 45.2833559,53.5165637 C45.0161259,55.6906934 44.8859587,57.8798378 44.8935195,60.0706911 C44.8871079,62.0507293 44.9924756,64.0296079 45.2088969,65.9977442 L45.2646655,66.4846209 C45.2989615,66.7258925 45.1399421,66.9521494 44.9027135,66.9995736 L44.513119,67.083741 C41.7916433,67.5830077 39.1841244,68.582945 36.8206692,70.033199 Z M53.4675016,35.379875 C49.7794493,39.1416486 47.2246144,43.8818751 46.0999256,49.0502626 C46.0975667,49.0970154 46.0975667,49.1437683 46.0999256,49.1907042 C46.0401648,49.44107 45.7915647,49.5957939 45.5430251,49.5371392 L45.2183933,49.4622492 C43.0179496,49.003998 40.9176717,48.1476151 39.0199032,46.9340551 L38.4167304,46.5127912 C38.2137372,46.3673446 38.1605694,46.0865223 38.2961805,45.8759514 L38.583734,45.4454101 C41.8270885,40.7001787 46.5296833,37.1658218 51.9642875,35.3891524 C52.2797253,35.2861862 52.7158945,35.1550219 53.2633592,35.0145802 C53.3632831,34.9745412 53.4769375,35.0195851 53.5232703,35.1176074 C53.5818214,35.1950609 53.5818214,35.3026047 53.5232703,35.379875 L53.4675016,35.379875 Z M37.8413814,72.7392492 L38.4353602,72.3366009 C40.3888975,71.1375673 42.5378066,70.2974197 44.7822241,69.8553428 L45.357573,69.7242395 C45.4789697,69.6997035 45.6051449,69.7230188 45.7100892,69.7897912 C45.8137633,69.8534508 45.8848956,69.9592855 45.9049772,70.0799518 C45.9700003,70.3514968 46.0162726,70.5763499 46.0533509,70.7353463 C47.108601,75.831102 49.5396198,80.5329375 53.0776047,84.3216275 C53.2000297,84.4515711 53.2196273,84.6482871 53.1258125,84.8003864 C53.0319978,84.9522417 52.8481788,85.0211502 52.6788162,84.9675004 C46.5885368,83.1774643 41.3552926,79.205425 37.9621127,73.7973529 L37.6930076,73.3947047 C37.6313113,73.2928982 37.6124394,73.1705839 37.6403238,73.0546784 C37.6682081,72.9385897 37.7404897,72.8386753 37.8413814,72.7767247 L37.8413814,72.7392492 Z" id="Fill-1" fill="#FFFFFF"></path>
                    </g>
                    <text id="社会化链接" font-family="PingFangSC-Semibold, PingFang SC" font-size="16" font-weight="500" line-spacing="24" fill="#000000" fill-opacity="0.8">
                        <tspan x="67" y="287">社会化链接</tspan>
                    </text>
                    <text id="查看更多备份-2" font-family="PingFangSC-Regular, PingFang SC" font-size="14" font-weight="normal" line-spacing="22" fill="#000000" fill-opacity="0.6">
                        <tspan x="79" y="372">查看更多</tspan>
                    </text>
                    <g id="icon_03" transform="translate(81.000000, 40.000000)" fill="#000000" fill-opacity="0.25">
                        <path d="M18.782,36.36 C22.454,36.36 24.902,33.732 24.902,29.808 L24.902,17.028 C24.902,13.068 22.454,10.44 18.782,10.44 C15.11,10.44 12.662,13.068 12.662,17.028 L12.662,29.808 C12.662,33.732 15.11,36.36 18.782,36.36 Z M18.782,34.272 C16.262,34.272 14.786,32.616 14.786,29.808 L14.786,17.028 C14.786,14.184 16.262,12.528 18.782,12.528 C21.302,12.528 22.778,14.184 22.778,17.028 L22.778,29.808 C22.778,32.616 21.302,34.272 18.782,34.272 Z M33.614,36.396 C37.25,36.396 39.734,33.984 39.734,29.448 L39.734,27.612 C39.734,23.688 37.754,21.276 33.434,21.276 L33.398,21.276 L39.122,12.348 L39.122,10.8 L28.286,10.8 L28.286,12.816 L36.35,12.816 L30.986,21.348 L30.986,23.148 L33.254,23.148 C35.882,23.148 37.61,24.516 37.61,27.612 L37.61,29.448 C37.61,32.832 36.098,34.308 33.578,34.308 C31.418,34.308 29.726,33.192 29.582,29.34 L27.422,29.34 C27.422,34.128 30.122,36.396 33.614,36.396 Z" id="03" fill-rule="nonzero"></path>
                        <rect id="矩形" transform="translate(47.000000, 5.500000) rotate(-45.000000) translate(-47.000000, -5.500000) " x="41" y="5" width="12" height="1"></rect>
                        <rect id="矩形备份" transform="translate(5.000000, 40.500000) rotate(-45.000000) translate(-5.000000, -40.500000) " x="-1" y="40" width="12" height="1"></rect>
                    </g>
                </g>
            </g>
        </g>
    </g>
</svg>