<?xml version="1.0" encoding="UTF-8"?>
<svg width="234px" height="440px" viewBox="0 0 234 440" version="1.1" xmlns="http://www.w3.org/2000/svg" xmlns:xlink="http://www.w3.org/1999/xlink">
    <!-- Generator: Sketch 60 (88103) - https://sketch.com -->
    <title>04</title>
    <desc>Created with Sketch.</desc>
    <defs>
        <rect id="path-1" x="-5.68434189e-14" y="0" width="214" height="420" rx="4"></rect>
        <filter x="-7.0%" y="-3.6%" width="114.0%" height="107.1%" filterUnits="objectBoundingBox" id="filter-2">
            <feOffset dx="0" dy="0" in="SourceAlpha" result="shadowOffsetOuter1"></feOffset>
            <feGaussianBlur stdDeviation="5" in="shadowOffsetOuter1" result="shadowBlurOuter1"></feGaussianBlur>
            <feColorMatrix values="0 0 0 0 0.631372549   0 0 0 0 0.784313725   0 0 0 0 0.941176471  0 0 0 0.1 0" type="matrix" in="shadowBlurOuter1"></feColorMatrix>
        </filter>
    </defs>
    <g id="TW主题介绍" stroke="none" stroke-width="1" fill="none" fill-rule="evenodd">
        <g id="1.0首页" transform="translate(-901.000000, -130.000000)">
            <g id="首页" transform="translate(220.000000, 80.000000)">
                <g id="04" transform="translate(691.000000, 60.000000)">
                    <g id="矩形备份-14">
                        <use fill="black" fill-opacity="1" filter="url(#filter-2)" xlink:href="#path-1"></use>
                        <use fill="#FFFFFF" fill-rule="evenodd" xlink:href="#path-1"></use>
                    </g>
                    <rect id="矩形备份-4" stroke="#D9D9D9" fill="#FFFFFF" x="63.5" y="356.5" width="87" height="23" rx="11.5"></rect>
                    <g id="icon_yewu" transform="translate(47.000000, 130.000000)">
                        <circle id="椭圆形备份-3" fill="#F46433" cx="60" cy="60" r="60"></circle>
                        <path d="M79.5977159,47.9525546 L71.9280476,47.9525546 L71.9280476,42.6507557 C71.9280476,41.1845347 70.786772,40 69.3734772,40 L50.6322028,40 C49.218908,40 48.0776324,41.1845347 48.0776324,42.6507557 L48.0776324,47.9525546 L40.4079641,47.9525546 C38.5239174,47.9525546 37,49.5338508 37,51.4888362 L37,62 L44.6693912,62 L44.6693912,60.240736 C44.6693912,58.7742275 45.8109439,57.5896928 47.2242387,57.5896928 C48.6371872,57.5896928 49.7787398,58.7742275 49.7787398,60.240736 L49.7787398,62 L71.074931,62 L71.074931,60.240736 C71.074931,58.7742275 72.2162065,57.5896928 73.6295014,57.5896928 C75.0424498,57.5896928 76.1840718,58.7742275 76.1840718,60.240736 L76.1840718,62 L83,62 L83,51.4832298 C83,49.5338508 81.4760826,47.9525546 79.5977159,47.9525546 Z M66.4781393,48 L54.5275099,48 C53.1281613,47.9890865 52,46.8719802 52,45.5001356 C52,44.1171064 53.1392908,43 54.5496307,43 L66.45035,43 C67.8606899,43 69,44.1171064 69,45.5001356 C69.0053727,46.8719802 67.8772114,47.9835281 66.4781393,48 Z M76.1849133,65.4295844 C76.1849133,66.9300405 75.0434323,68.1422925 73.6303812,68.1422925 C72.2175379,68.1422925 71.0761262,66.9300405 71.0761262,65.4295844 L71.0761262,65 L49.7771621,65 L49.7771621,65.4295844 C49.7771621,66.9300405 48.6357504,68.1422925 47.2229764,68.1422925 C45.8098561,68.1422925 44.6684444,66.9300405 44.6684444,65.4295844 L44.6684444,65 L37,65 L37,76.3808982 C37,78.3817024 38.5237292,80 40.4075434,80 L79.5924566,80 C81.4762708,80 83,78.3817024 83,76.3808982 L83,65 L76.1849133,65 L76.1849133,65.4295844 Z" id="yewu" fill="#FFFFFF"></path>
                    </g>
                    <text id="业务管理" font-family="PingFangSC-Semibold, PingFang SC" font-size="16" font-weight="500" line-spacing="24" fill="#000000" fill-opacity="0.8">
                        <tspan x="75" y="287">业务管理</tspan>
                    </text>
                    <text id="查看更多备份-3" font-family="PingFangSC-Regular, PingFang SC" font-size="14" font-weight="normal" line-spacing="22" fill="#000000" fill-opacity="0.6">
                        <tspan x="79" y="372">查看更多</tspan>
                    </text>
                    <g id="icon_04" transform="translate(81.000000, 40.000000)" fill="#000000" fill-opacity="0.25">
                        <path d="M18.782,36.36 C22.454,36.36 24.902,33.732 24.902,29.808 L24.902,17.028 C24.902,13.068 22.454,10.44 18.782,10.44 C15.11,10.44 12.662,13.068 12.662,17.028 L12.662,29.808 C12.662,33.732 15.11,36.36 18.782,36.36 Z M18.782,34.272 C16.262,34.272 14.786,32.616 14.786,29.808 L14.786,17.028 C14.786,14.184 16.262,12.528 18.782,12.528 C21.302,12.528 22.778,14.184 22.778,17.028 L22.778,29.808 C22.778,32.616 21.302,34.272 18.782,34.272 Z M38.294,36 L38.294,29.268 L41.354,29.268 L41.354,27.18 L38.294,27.18 L38.294,18.36 L36.134,18.36 L36.134,27.18 L29.726,27.18 L35.27,10.8 L33.002,10.8 L27.17,28.08 L27.17,29.268 L36.134,29.268 L36.134,36 L38.294,36 Z" id="04" fill-rule="nonzero"></path>
                        <rect id="矩形" transform="translate(47.000000, 5.500000) rotate(-45.000000) translate(-47.000000, -5.500000) " x="41" y="5" width="12" height="1"></rect>
                        <rect id="矩形备份" transform="translate(5.000000, 40.500000) rotate(-45.000000) translate(-5.000000, -40.500000) " x="-1" y="40" width="12" height="1"></rect>
                    </g>
                </g>
            </g>
        </g>
    </g>
</svg>