<?xml version="1.0" encoding="UTF-8"?>
<svg width="234px" height="440px" viewBox="0 0 234 440" version="1.1" xmlns="http://www.w3.org/2000/svg" xmlns:xlink="http://www.w3.org/1999/xlink">
    <!-- Generator: Sketch 60 (88103) - https://sketch.com -->
    <title>05</title>
    <desc>Created with Sketch.</desc>
    <defs>
        <rect id="path-1" x="9.9475983e-14" y="0" width="214" height="420" rx="4"></rect>
        <filter x="-7.0%" y="-3.6%" width="114.0%" height="107.1%" filterUnits="objectBoundingBox" id="filter-2">
            <feOffset dx="0" dy="0" in="SourceAlpha" result="shadowOffsetOuter1"></feOffset>
            <feGaussianBlur stdDeviation="5" in="shadowOffsetOuter1" result="shadowBlurOuter1"></feGaussianBlur>
            <feColorMatrix values="0 0 0 0 0.631372549   0 0 0 0 0.784313725   0 0 0 0 0.941176471  0 0 0 0.1 0" type="matrix" in="shadowBlurOuter1"></feColorMatrix>
        </filter>
    </defs>
    <g id="TW主题介绍" stroke="none" stroke-width="1" fill="none" fill-rule="evenodd">
        <g id="1.0首页" transform="translate(-1126.000000, -130.000000)">
            <g id="首页" transform="translate(220.000000, 80.000000)">
                <g id="05" transform="translate(916.000000, 60.000000)">
                    <g id="矩形备份-15">
                        <use fill="black" fill-opacity="1" filter="url(#filter-2)" xlink:href="#path-1"></use>
                        <use fill="#FFFFFF" fill-rule="evenodd" xlink:href="#path-1"></use>
                    </g>
                    <rect id="矩形备份-5" stroke="#D9D9D9" fill="#FFFFFF" x="63.5" y="356.5" width="87" height="23" rx="11.5"></rect>
                    <g id="icon_renwu" transform="translate(47.000000, 130.000000)">
                        <circle id="椭圆形备份-4" fill="#00BCBC" cx="60" cy="60" r="60"></circle>
                        <path d="M44.3068773,47.0229608 C44.37849,47.0295622 44.4486922,47.048662 44.5143405,47.0797355 C44.6644975,47.1601848 44.7774779,47.2992698 44.8278022,47.4652955 C44.8777638,47.6316941 44.8614424,47.8119825 44.7817396,47.9657032 C44.1013183,49.1498832 43.9292181,50.5714958 44.3064239,51.8907524 C44.7605217,53.1776614 45.7469694,54.1903157 46.9990026,54.6552996 C49.2577945,55.5383774 51.7820813,55.3410296 53.8850038,54.1171376 L53.8850038,54.1171376 L60.4475692,50.2870801 C60.6434261,50.1796901 60.8853456,50.2255546 61.0305154,50.3981057 L61.0305154,50.3981057 L74.7316105,67.8209243 L76.4215108,69.9744111 L76.4066402,69.9784196 C76.965195,70.6233191 77.2166353,71.4892443 77.0941341,72.343517 C76.9715422,73.1974168 76.4873404,73.9519435 75.7715561,74.4038765 C74.678838,75.0731997 73.2829044,74.8903943 72.3882193,73.9607063 L72.3882193,73.9607063 L72.1728674,73.7393076 L72.1243566,73.7393076 L72.1243566,73.7964517 C72.3177652,74.9213435 71.8654809,76.0603116 70.9619097,76.7252535 C69.8288415,77.5027125 68.3182046,77.3424664 67.363221,76.3433291 L67.363221,76.3433291 L67.1514055,76.1219304 L67.0993583,76.1219304 L67.0993583,76.1790745 C67.3628583,77.4258988 66.7844458,78.6996637 65.6857432,79.2928258 C64.5874032,79.8859878 63.2389831,79.6526569 62.3899979,78.7222231 L62.3899979,78.7222231 L62.1781823,78.4968159 L62.1264072,78.4968159 L62.1264072,78.5579685 C62.2794657,79.3223767 62.1267699,80.1176408 61.7028667,80.7650571 L61.7028667,80.7650571 L61.7028667,80.7879894 C60.8279487,82.073034 59.1054963,82.385882 57.8551859,81.4867703 L57.8551859,81.4867703 L57.8551859,81.4292532 L58.1190486,80.9329473 C59.2659901,78.9054014 58.9868034,76.3451003 57.4319174,74.6289108 C56.7037107,73.8682315 55.7597894,73.3642815 54.7354398,73.189493 C54.1343587,72.0657199 53.1269652,71.230371 51.9312408,70.8640144 C51.4810421,69.1711301 50.1946432,67.8486108 48.547904,67.385771 C48.2706215,66.3967015 47.7180512,65.5129711 46.9582897,64.8425293 L46.9582897,64.8425293 L46.8878357,64.7813766 C44.8288903,63.0651872 41.8068913,63.3881962 40.1353979,65.5030898 L40.1353979,65.5030898 L38.2301458,67.9392211 L35.5340308,67.9392211 C34.8316663,67.8817041 34.2294971,67.4021778 34,66.7175665 L34,66.7175665 L34,48.2864749 C34.0049871,47.9456607 34.1416335,47.6204144 34.3800167,47.3833547 C34.6180372,47.1462949 34.9386622,47.0163456 35.2701681,47.0224981 L35.2701681,47.0224981 Z M41.4413128,67.0197803 C42.1684732,66.035337 43.5159623,65.7522759 44.576034,66.3615029 C45.1167716,66.6677886 45.5095383,67.1823523 45.6629758,67.7858196 C45.8164133,68.389287 45.7169013,69.0294492 45.3882522,69.5578547 C45.3882522,69.5578547 45.3314544,69.8318118 45.6007113,69.7784881 C46.2359575,69.436994 46.9898027,69.3966761 47.6579416,69.668125 C48.8827548,70.2047984 49.4571263,71.6233555 48.9518758,72.8643838 C48.9518758,72.8643838 48.8458779,73.1957521 49.2251169,73.1423355 C49.5381998,73.0353167 49.8661077,72.9787416 50.1969805,72.974747 C51.519082,73.1006242 52.51587,74.2353769 52.473897,75.5660521 L52.473897,75.6194687 C52.5270813,75.6764153 52.5270813,75.6764153 52.5802655,75.6764153 C53.4684612,75.2787177 54.5075928,75.4441696 55.2292866,76.0988239 C56.0878325,76.9163289 56.2687887,78.2202494 55.6657867,79.2417591 L55.6657867,79.2417591 L55.3393613,79.8506146 C55.2528211,79.9305071 55.178604,80.0230338 55.1193045,80.1246646 L55.1193045,80.1246646 L55.0736253,80.1892289 C54.250937,81.2212361 52.750381,81.3914258 51.7184766,80.5699261 L51.7184766,80.5699261 L51.6084945,80.5128866 C51.1277978,80.1344189 50.8010018,79.5933792 50.6902784,78.990655 L50.6902784,78.990655 L50.6902784,78.9336155 C50.6811982,78.900265 50.6559032,78.8734174 50.6229179,78.8629199 C50.5900252,78.8519579 50.5537969,78.8585537 50.5270194,78.8802919 C49.7039605,79.3668931 48.6641804,79.2783611 47.9347962,78.6596584 L47.9347962,78.6596584 L47.7716299,78.5493881 C47.1122006,78.0173596 46.7650204,77.1871275 46.8494296,76.3423103 L46.8494296,76.3423103 L46.8494296,76.2889867 C46.8424804,76.2551717 46.818668,76.2269306 46.7856826,76.2153184 C46.7531605,76.2037061 46.7169322,76.2098374 46.6901548,76.2319472 C45.8446733,76.643115 44.8395463,76.5368394 44.0979316,75.9579901 L44.0979316,75.9579901 L43.8778747,75.7906802 C43.177955,75.2191699 42.846063,74.3094169 43.0124723,73.4200086 L43.0124723,73.4200086 L43.0124723,73.3096454 C42.959288,73.2563218 42.9100879,73.2029981 42.8532901,73.2563218 C42.0019713,73.7160754 40.9607087,73.6297729 40.1966713,73.0356883 L40.1966713,73.0356883 L39.9270438,72.8150548 L39.8737669,72.8150548 C38.8582625,71.9506362 38.7119595,70.4337927 39.543728,69.3905448 L39.543728,69.3905448 Z M56.4252494,41.8983536 C58.88552,39.9541468 62.1519774,39.4654849 65.049299,40.6078089 L65.049299,40.6078089 L79.4374346,46.3619376 C80.3662133,46.7305315 81.3536584,46.9172522 82.3493548,46.9118454 L82.3493548,46.9118454 L84.7263863,46.9118454 C85.059615,46.9067182 85.3816001,47.038532 85.6207087,47.2778291 C85.8598173,47.5170329 85.9961917,47.8440504 86,48.1871018 L86,48.1871018 L86,66.6564138 C85.9961917,67.3795253 85.4332845,67.968772 84.7299226,67.9850856 L84.7299226,67.9850856 L81.6100858,67.9850856 C81.167413,67.9890941 80.7387947,68.1449588 80.3920555,68.427883 L80.3920555,68.427883 L79.7010253,69.0353078 C79.6177861,69.1070876 79.5097022,69.1416724 79.4017089,69.1306724 C79.2933529,69.1201385 79.1937923,69.0647655 79.1254237,68.9777908 L79.1254237,68.9777908 L62.3528214,47.6335585 C61.9316384,47.0935321 61.1899212,46.9508115 60.6073377,47.2974986 L60.6073377,47.2974986 L52.9414452,51.7800064 C51.3953547,52.6758555 49.5311781,52.7774658 47.9014857,52.0550069 C47.0294692,51.6405486 46.6314082,50.5925637 46.9990026,49.6800282 C47.0298319,49.4301972 47.1654809,49.2070274 47.3705866,49.0689678 L47.3705866,49.0689678 Z" id="Fill-7" fill="#FFFFFF"></path>
                    </g>
                    <text id="任务协作" font-family="PingFangSC-Semibold, PingFang SC" font-size="16" font-weight="500" line-spacing="24" fill="#000000" fill-opacity="0.8">
                        <tspan x="75" y="287">任务协作</tspan>
                    </text>
                    <text id="查看更多备份-4" font-family="PingFangSC-Regular, PingFang SC" font-size="14" font-weight="normal" line-spacing="22" fill="#000000" fill-opacity="0.6">
                        <tspan x="79" y="372">查看更多</tspan>
                    </text>
                    <g id="icon_05" transform="translate(81.000000, 40.000000)" fill="#000000" fill-opacity="0.25">
                        <path d="M18.908,36.36 C22.58,36.36 25.028,33.732 25.028,29.808 L25.028,17.028 C25.028,13.068 22.58,10.44 18.908,10.44 C15.236,10.44 12.788,13.068 12.788,17.028 L12.788,29.808 C12.788,33.732 15.236,36.36 18.908,36.36 Z M18.908,34.272 C16.388,34.272 14.912,32.616 14.912,29.808 L14.912,17.028 C14.912,14.184 16.388,12.528 18.908,12.528 C21.428,12.528 22.904,14.184 22.904,17.028 L22.904,29.808 C22.904,32.616 21.428,34.272 18.908,34.272 Z M34.388,36.36 C37.988,36.36 40.004,33.948 40.004,28.512 L40.004,25.992 C40.004,21.6 37.916,19.188 34.604,19.188 C33.056,19.188 31.868,19.728 31.04,20.592 L31.04,12.816 L39.284,12.816 L39.284,10.8 L28.916,10.8 L28.916,23.976 L30.968,23.976 C31.4,22.32 32.552,21.24 34.316,21.24 C36.8,21.24 37.844,22.788 37.844,26.028 L37.844,28.512 C37.844,32.796 36.62,34.272 34.388,34.272 C32.12,34.272 30.824,32.904 30.716,30.024 L28.592,30.024 C28.736,34.092 30.932,36.36 34.388,36.36 Z" id="05" fill-rule="nonzero"></path>
                        <rect id="矩形" transform="translate(47.000000, 5.500000) rotate(-45.000000) translate(-47.000000, -5.500000) " x="41" y="5" width="12" height="1"></rect>
                        <rect id="矩形备份" transform="translate(5.000000, 40.500000) rotate(-45.000000) translate(-5.000000, -40.500000) " x="-1" y="40" width="12" height="1"></rect>
                    </g>
                </g>
            </g>
        </g>
    </g>
</svg>