<?xml version="1.0" encoding="UTF-8"?>
<svg width="234px" height="440px" viewBox="0 0 234 440" version="1.1" xmlns="http://www.w3.org/2000/svg" xmlns:xlink="http://www.w3.org/1999/xlink">
    <!-- Generator: Sketch 60 (88103) - https://sketch.com -->
    <title>06</title>
    <desc>Created with Sketch.</desc>
    <defs>
        <rect id="path-1" x="1.13686838e-13" y="0" width="214" height="420" rx="4"></rect>
        <filter x="-7.0%" y="-3.6%" width="114.0%" height="107.1%" filterUnits="objectBoundingBox" id="filter-2">
            <feOffset dx="0" dy="0" in="SourceAlpha" result="shadowOffsetOuter1"></feOffset>
            <feGaussianBlur stdDeviation="5" in="shadowOffsetOuter1" result="shadowBlurOuter1"></feGaussianBlur>
            <feColorMatrix values="0 0 0 0 0.631372549   0 0 0 0 0.784313725   0 0 0 0 0.941176471  0 0 0 0.1 0" type="matrix" in="shadowBlurOuter1"></feColorMatrix>
        </filter>
    </defs>
    <g id="TW主题介绍" stroke="none" stroke-width="1" fill="none" fill-rule="evenodd">
        <g id="06" transform="translate(10.000000, 10.000000)">
            <g id="矩形备份-15">
                <use fill="black" fill-opacity="1" filter="url(#filter-2)" xlink:href="#path-1"></use>
                <use fill="#FFFFFF" fill-rule="evenodd" xlink:href="#path-1"></use>
            </g>
            <rect id="矩形备份-5" stroke="#D9D9D9" fill="#FFFFFF" x="63.5" y="356.5" width="87" height="23" rx="11.5"></rect>
            <g id="icon_资产" transform="translate(47.000000, 130.000000)">
                <circle id="椭圆形备份-4" fill="#4FB01C" cx="60" cy="60" r="60"></circle>
                <path d="M84.4959959,62.1154055 L61.0742774,71.6345364 C60.8594534,71.8460227 60.4297267,71.8460227 60.2149027,71.8460227 C59.785176,71.8460227 59.5702733,71.8460227 59.3554493,71.6345364 L35.9337308,62.1154055 C35.0742774,61.6923554 34.4297267,60.8459453 34.4297267,59.9998451 C34.4297267,58.7306947 35.5040041,57.6731082 36.793499,57.6731082 C37.2232257,57.6731082 37.4380497,57.6731082 37.6529524,57.8845945 L60,66.9806754 L82.3470476,57.8845945 C82.5622651,57.6731082 82.9919918,57.6731082 83.2068158,57.6731082 C84.4959959,57.6731082 85.5702733,58.7306947 85.5702733,59.9998451 C86,61.0577415 85.3554493,61.9038417 84.4959959,62.1154055 Z M84.4959959,51.9613508 L61.0742774,61.4807916 C60.8594534,61.6923554 60.4297267,61.6923554 60.2149027,61.6923554 C59.785176,61.6923554 59.5702733,61.6923554 59.3554493,61.4807916 L35.9337308,51.9613508 C35.0742774,51.5383781 34.4297267,50.6922779 34.4297267,49.8461777 C34.4297267,49.0000775 35.0742774,47.9421811 35.9337308,47.7306173 L59.3554493,38.2114863 C59.5702733,38 60,38 60.2149027,38 C60.6446294,38 60.8594534,38 61.0742774,38.2114863 L84.4959959,47.7306173 C85.3554493,48.1536674 86,49.0000775 86,49.8461777 C86,50.6922779 85.3554493,51.5383781 84.4959959,51.9613508 Z M36.793499,67.8267756 C37.2232257,67.8267756 37.4380497,67.8267756 37.6529524,68.0383394 L60,77.1344202 L82.3470476,68.0383394 C82.5622651,67.8267756 82.9919918,67.8267756 83.2068158,67.8267756 C84.4959959,67.8267756 85.5702733,68.8844396 85.5702733,70.1538223 C85.5702733,71.2114863 84.9257226,72.0575865 84.0662692,72.2690729 L60.6446294,81.7882038 C60.4297267,82 60,82 59.785176,82 C59.3554493,82 59.1405466,82 58.9257226,81.7882038 L35.5040041,72.2690729 C34.6445507,71.8460227 34,70.9999225 34,70.1538223 C34.4297267,68.8844396 35.5040041,67.8267756 36.793499,67.8267756 Z" id="zichan" fill="#FFFFFF"></path>
            </g>
            <text id="电子资产" font-family="PingFangSC-Semibold, PingFang SC" font-size="16" font-weight="500" line-spacing="24" fill="#000000" fill-opacity="0.8">
                <tspan x="75" y="287">电子资产</tspan>
            </text>
            <text id="查看更多备份-4" font-family="PingFangSC-Regular, PingFang SC" font-size="14" font-weight="normal" line-spacing="22" fill="#000000" fill-opacity="0.6">
                <tspan x="79" y="372">查看更多</tspan>
            </text>
            <g id="icon_05" transform="translate(81.000000, 40.000000)" fill="#000000" fill-opacity="0.25">
                <path d="M18.332,36.36 C22.004,36.36 24.452,33.732 24.452,29.808 L24.452,17.028 C24.452,13.068 22.004,10.44 18.332,10.44 C14.66,10.44 12.212,13.068 12.212,17.028 L12.212,29.808 C12.212,33.732 14.66,36.36 18.332,36.36 Z M18.332,34.272 C15.812,34.272 14.336,32.616 14.336,29.808 L14.336,17.028 C14.336,14.184 15.812,12.528 18.332,12.528 C20.852,12.528 22.328,14.184 22.328,17.028 L22.328,29.808 C22.328,32.616 20.852,34.272 18.332,34.272 Z M34.496,36.36 C37.844,36.36 40.544,33.948 40.544,30.024 L40.544,25.632 C40.544,21.852 37.736,19.44 34.64,19.44 C32.912,19.44 31.58,20.088 30.572,21.132 L30.572,16.56 C30.572,14.004 32.192,12.528 34.424,12.528 C36.404,12.528 38.096,13.896 38.24,16.416 L40.4,16.416 C40.148,12.816 37.628,10.44 34.424,10.44 C30.968,10.44 28.412,12.852 28.412,16.596 L28.412,30.024 C28.412,33.948 31.112,36.36 34.496,36.36 Z M34.496,34.272 C32.3,34.272 30.572,32.796 30.572,30.024 L30.572,25.704 C30.572,23.004 32.192,21.528 34.28,21.528 C36.548,21.528 38.384,23.004 38.384,25.632 L38.384,30.024 C38.384,32.796 36.656,34.272 34.496,34.272 Z" id="06" fill-rule="nonzero"></path>
                <rect id="矩形" transform="translate(47.000000, 5.500000) rotate(-45.000000) translate(-47.000000, -5.500000) " x="41" y="5" width="12" height="1"></rect>
                <rect id="矩形备份" transform="translate(5.000000, 40.500000) rotate(-45.000000) translate(-5.000000, -40.500000) " x="-1" y="40" width="12" height="1"></rect>
            </g>
        </g>
    </g>
</svg>